<svg width="10" height="18" viewBox="0 0 10 18" fill="none" xmlns="http://www.w3.org/2000/svg">
<path fill-rule="evenodd" clip-rule="evenodd" d="M7.68812 3.625C7.68812 3.62478 7.68812 3.62456 7.68812 3.62433C7.68812 2.17495 6.51317 1 5.06379 1C3.61441 1 2.43945 2.17495 2.43945 3.62433C2.43945 3.62456 2.43945 3.62478 2.43945 3.625V9.89513C1.5595 10.6328 1 11.7401 1 12.9782C1 15.199 2.80033 16.9993 5.02116 16.9993C7.24198 16.9993 9.04231 15.199 9.04231 12.9782C9.04231 11.7806 8.51879 10.7053 7.68812 9.96864V3.625Z" fill="white"/>
<path d="M2.43945 9.89513L2.92126 10.4699L3.18945 10.2451V9.89513H2.43945ZM7.68812 9.96864H6.93812V10.306L7.19049 10.5298L7.68812 9.96864ZM6.93812 3.62433C6.93812 3.62433 6.93812 3.62433 6.93812 3.62433C6.93812 3.62433 6.93812 3.62434 6.93812 3.62434C6.93812 3.62434 6.93812 3.62434 6.93812 3.62434C6.93812 3.62434 6.93812 3.62434 6.93812 3.62434C6.93812 3.62434 6.93812 3.62434 6.93812 3.62434C6.93812 3.62434 6.93812 3.62434 6.93812 3.62434C6.93812 3.62434 6.93812 3.62434 6.93812 3.62434C6.93812 3.62434 6.93812 3.62434 6.93812 3.62434C6.93812 3.62434 6.93812 3.62434 6.93812 3.62434C6.93812 3.62435 6.93812 3.62435 6.93812 3.62435C6.93812 3.62435 6.93812 3.62435 6.93812 3.62435C6.93812 3.62435 6.93812 3.62435 6.93812 3.62435C6.93812 3.62435 6.93812 3.62435 6.93812 3.62435C6.93812 3.62435 6.93812 3.62435 6.93812 3.62435C6.93812 3.62435 6.93812 3.62435 6.93812 3.62435C6.93812 3.62435 6.93812 3.62435 6.93812 3.62435C6.93812 3.62435 6.93812 3.62435 6.93812 3.62436C6.93812 3.62436 6.93812 3.62436 6.93812 3.62436C6.93812 3.62436 6.93812 3.62436 6.93812 3.62436C6.93812 3.62436 6.93812 3.62436 6.93812 3.62436C6.93812 3.62436 6.93812 3.62436 6.93812 3.62436C6.93812 3.62436 6.93812 3.62436 6.93812 3.62436C6.93812 3.62436 6.93812 3.62436 6.93812 3.62436C6.93812 3.62436 6.93812 3.62436 6.93812 3.62436C6.93812 3.62436 6.93812 3.62437 6.93812 3.62437C6.93812 3.62437 6.93812 3.62437 6.93812 3.62437C6.93812 3.62437 6.93812 3.62437 6.93812 3.62437C6.93812 3.62437 6.93812 3.62437 6.93812 3.62437C6.93812 3.62437 6.93812 3.62437 6.93812 3.62437C6.93812 3.62437 6.93812 3.62437 6.93812 3.62437C6.93812 3.62437 6.93812 3.62437 6.93812 3.62437C6.93812 3.62437 6.93812 3.62437 6.93812 3.62437C6.93812 3.62438 6.93812 3.62438 6.93812 3.62438C6.93812 3.62438 6.93812 3.62438 6.93812 3.62438C6.93812 3.62438 6.93812 3.62438 6.93812 3.62438C6.93812 3.62438 6.93812 3.62438 6.93812 3.62438C6.93812 3.62438 6.93812 3.62438 6.93812 3.62438C6.93812 3.62438 6.93812 3.62438 6.93812 3.62438C6.93812 3.62438 6.93812 3.62438 6.93812 3.62438C6.93812 3.62438 6.93812 3.62438 6.93812 3.62439C6.93812 3.62439 6.93812 3.62439 6.93812 3.62439C6.93812 3.62439 6.93812 3.62439 6.93812 3.62439C6.93812 3.62439 6.93812 3.62439 6.93812 3.62439C6.93812 3.62439 6.93812 3.62439 6.93812 3.62439C6.93812 3.62439 6.93812 3.62439 6.93812 3.62439C6.93812 3.62439 6.93812 3.62439 6.93812 3.62439C6.93812 3.62439 6.93812 3.62439 6.93812 3.62439C6.93812 3.62439 6.93812 3.6244 6.93812 3.6244C6.93812 3.6244 6.93812 3.6244 6.93812 3.6244C6.93812 3.6244 6.93812 3.6244 6.93812 3.6244C6.93812 3.6244 6.93812 3.6244 6.93812 3.6244C6.93812 3.6244 6.93812 3.6244 6.93812 3.6244C6.93812 3.6244 6.93812 3.6244 6.93812 3.6244C6.93812 3.6244 6.93812 3.6244 6.93812 3.6244C6.93812 3.6244 6.93812 3.6244 6.93812 3.6244C6.93812 3.62441 6.93812 3.62441 6.93812 3.62441C6.93812 3.62441 6.93812 3.62441 6.93812 3.62441C6.93812 3.62441 6.93812 3.62441 6.93812 3.62441C6.93812 3.62441 6.93812 3.62441 6.93812 3.62441C6.93812 3.62441 6.93812 3.62441 6.93812 3.62441C6.93812 3.62441 6.93812 3.62441 6.93812 3.62441C6.93812 3.62441 6.93812 3.62441 6.93812 3.62441C6.93812 3.62441 6.93812 3.62441 6.93812 3.62442C6.93812 3.62442 6.93812 3.62442 6.93812 3.62442C6.93812 3.62442 6.93812 3.62442 6.93812 3.62442C6.93812 3.62442 6.93812 3.62442 6.93812 3.62442C6.93812 3.62442 6.93812 3.62442 6.93812 3.62442C6.93812 3.62442 6.93812 3.62442 6.93812 3.62442C6.93812 3.62442 6.93812 3.62442 6.93812 3.62442C6.93812 3.62442 6.93812 3.62442 6.93812 3.62442C6.93812 3.62442 6.93812 3.62443 6.93812 3.62443C6.93812 3.62443 6.93812 3.62443 6.93812 3.62443C6.93812 3.62443 6.93812 3.62443 6.93812 3.62443C6.93812 3.62443 6.93812 3.62443 6.93812 3.62443C6.93812 3.62443 6.93812 3.62443 6.93812 3.62443C6.93812 3.62443 6.93812 3.62443 6.93812 3.62443C6.93812 3.62443 6.93812 3.62443 6.93812 3.62443C6.93812 3.62443 6.93812 3.62443 6.93812 3.62443C6.93812 3.62444 6.93812 3.62444 6.93812 3.62444C6.93812 3.62444 6.93812 3.62444 6.93812 3.62444C6.93812 3.62444 6.93812 3.62444 6.93812 3.62444C6.93812 3.62444 6.93812 3.62444 6.93812 3.62444C6.93812 3.62444 6.93812 3.62444 6.93812 3.62444C6.93812 3.62444 6.93812 3.62444 6.93812 3.62444C6.93812 3.62444 6.93812 3.62444 6.93812 3.62444C6.93812 3.62444 6.93812 3.62444 6.93812 3.62445C6.93812 3.62445 6.93812 3.62445 6.93812 3.62445C6.93812 3.62445 6.93812 3.62445 6.93812 3.62445C6.93812 3.62445 6.93812 3.62445 6.93812 3.62445C6.93812 3.62445 6.93812 3.62445 6.93812 3.62445C6.93812 3.62445 6.93812 3.62445 6.93812 3.62445C6.93812 3.62445 6.93812 3.62445 6.93812 3.62445C6.93812 3.62445 6.93812 3.62445 6.93812 3.62445C6.93812 3.62445 6.93812 3.62446 6.93812 3.62446C6.93812 3.62446 6.93812 3.62446 6.93812 3.62446C6.93812 3.62446 6.93812 3.62446 6.93812 3.62446C6.93812 3.62446 6.93812 3.62446 6.93812 3.62446C6.93812 3.62446 6.93812 3.62446 6.93812 3.62446C6.93812 3.62446 6.93812 3.62446 6.93812 3.62446C6.93812 3.62446 6.93812 3.62446 6.93812 3.62446C6.93812 3.62446 6.93812 3.62446 6.93812 3.62446C6.93812 3.62447 6.93812 3.62447 6.93812 3.62447C6.93812 3.62447 6.93812 3.62447 6.93812 3.62447C6.93812 3.62447 6.93812 3.62447 6.93812 3.62447C6.93812 3.62447 6.93812 3.62447 6.93812 3.62447C6.93812 3.62447 6.93812 3.62447 6.93812 3.62447C6.93812 3.62447 6.93812 3.62447 6.93812 3.62447C6.93812 3.62447 6.93812 3.62447 6.93812 3.62447C6.93812 3.62447 6.93812 3.62447 6.93812 3.62448C6.93812 3.62448 6.93812 3.62448 6.93812 3.62448C6.93812 3.62448 6.93812 3.62448 6.93812 3.62448C6.93812 3.62448 6.93812 3.62448 6.93812 3.62448C6.93812 3.62448 6.93812 3.62448 6.93812 3.62448C6.93812 3.62448 6.93812 3.62448 6.93812 3.62448C6.93812 3.62448 6.93812 3.62448 6.93812 3.62448C6.93812 3.62448 6.93812 3.62448 6.93812 3.62448C6.93812 3.62448 6.93812 3.62449 6.93812 3.62449C6.93812 3.62449 6.93812 3.62449 6.93812 3.62449C6.93812 3.62449 6.93812 3.62449 6.93812 3.62449C6.93812 3.62449 6.93812 3.62449 6.93812 3.62449C6.93812 3.62449 6.93812 3.62449 6.93812 3.62449C6.93812 3.62449 6.93812 3.62449 6.93812 3.62449C6.93812 3.62449 6.93812 3.62449 6.93812 3.62449C6.93812 3.62449 6.93812 3.62449 6.93812 3.62449C6.93812 3.6245 6.93812 3.6245 6.93812 3.6245C6.93812 3.6245 6.93812 3.6245 6.93812 3.6245C6.93812 3.6245 6.93812 3.6245 6.93812 3.6245C6.93812 3.6245 6.93812 3.6245 6.93812 3.6245C6.93812 3.6245 6.93812 3.6245 6.93812 3.6245C6.93812 3.6245 6.93812 3.6245 6.93812 3.6245C6.93812 3.6245 6.93812 3.6245 6.93812 3.6245C6.93812 3.6245 6.93812 3.6245 6.93812 3.62451C6.93812 3.62451 6.93812 3.62451 6.93812 3.62451C6.93812 3.62451 6.93812 3.62451 6.93812 3.62451C6.93812 3.62451 6.93812 3.62451 6.93812 3.62451C6.93812 3.62451 6.93812 3.62451 6.93812 3.62451C6.93812 3.62451 6.93812 3.62451 6.93812 3.62451C6.93812 3.62451 6.93812 3.62451 6.93812 3.62451C6.93812 3.62451 6.93812 3.62451 6.93812 3.62451C6.93812 3.62451 6.93812 3.62452 6.93812 3.62452C6.93812 3.62452 6.93812 3.62452 6.93812 3.62452C6.93812 3.62452 6.93812 3.62452 6.93812 3.62452C6.93812 3.62452 6.93812 3.62452 6.93812 3.62452C6.93812 3.62452 6.93812 3.62452 6.93812 3.62452C6.93812 3.62452 6.93812 3.62452 6.93812 3.62452C6.93812 3.62452 6.93812 3.62452 6.93812 3.62452C6.93812 3.62452 6.93812 3.62452 6.93812 3.62452C6.93812 3.62453 6.93812 3.62453 6.93812 3.62453C6.93812 3.62453 6.93812 3.62453 6.93812 3.62453C6.93812 3.62453 6.93812 3.62453 6.93812 3.62453C6.93812 3.62453 6.93812 3.62453 6.93812 3.62453C6.93812 3.62453 6.93812 3.62453 6.93812 3.62453C6.93812 3.62453 6.93812 3.62453 6.93812 3.62453C6.93812 3.62453 6.93812 3.62453 6.93812 3.62453C6.93812 3.62453 6.93812 3.62453 6.93812 3.62454C6.93812 3.62454 6.93812 3.62454 6.93812 3.62454C6.93812 3.62454 6.93812 3.62454 6.93812 3.62454C6.93812 3.62454 6.93812 3.62454 6.93812 3.62454C6.93812 3.62454 6.93812 3.62454 6.93812 3.62454C6.93812 3.62454 6.93812 3.62454 6.93812 3.62454C6.93812 3.62454 6.93812 3.62454 6.93812 3.62454C6.93812 3.62454 6.93812 3.62454 6.93812 3.62454C6.93812 3.62454 6.93812 3.62454 6.93812 3.62455C6.93812 3.62455 6.93812 3.62455 6.93812 3.62455C6.93812 3.62455 6.93812 3.62455 6.93812 3.62455C6.93812 3.62455 6.93812 3.62455 6.93812 3.62455C6.93812 3.62455 6.93812 3.62455 6.93812 3.62455C6.93812 3.62455 6.93812 3.62455 6.93812 3.62455C6.93812 3.62455 6.93812 3.62455 6.93812 3.62455C6.93812 3.62455 6.93812 3.62455 6.93812 3.62455C6.93812 3.62455 6.93812 3.62456 6.93812 3.62456C6.93812 3.62456 6.93812 3.62456 6.93812 3.62456C6.93812 3.62456 6.93812 3.62456 6.93812 3.62456C6.93812 3.62456 6.93812 3.62456 6.93812 3.62456C6.93812 3.62456 6.93812 3.62456 6.93812 3.62456C6.93812 3.62456 6.93812 3.62456 6.93812 3.62456C6.93812 3.62456 6.93812 3.62456 6.93812 3.62456C6.93812 3.62456 6.93812 3.62456 6.93812 3.62456C6.93812 3.62457 6.93812 3.62457 6.93812 3.62457C6.93812 3.62457 6.93812 3.62457 6.93812 3.62457C6.93812 3.62457 6.93812 3.62457 6.93812 3.62457C6.93812 3.62457 6.93812 3.62457 6.93812 3.62457C6.93812 3.62457 6.93812 3.62457 6.93812 3.62457C6.93812 3.62457 6.93812 3.62457 6.93812 3.62457C6.93812 3.62457 6.93812 3.62457 6.93812 3.62457C6.93812 3.62457 6.93812 3.62457 6.93812 3.62458C6.93812 3.62458 6.93812 3.62458 6.93812 3.62458C6.93812 3.62458 6.93812 3.62458 6.93812 3.62458C6.93812 3.62458 6.93812 3.62458 6.93812 3.62458C6.93812 3.62458 6.93812 3.62458 6.93812 3.62458C6.93812 3.62458 6.93812 3.62458 6.93812 3.62458C6.93812 3.62458 6.93812 3.62458 6.93812 3.62458C6.93812 3.62458 6.93812 3.62458 6.93812 3.62458C6.93812 3.62458 6.93812 3.62459 6.93812 3.62459C6.93812 3.62459 6.93812 3.62459 6.93812 3.62459C6.93812 3.62459 6.93812 3.62459 6.93812 3.62459C6.93812 3.62459 6.93812 3.62459 6.93812 3.62459C6.93812 3.62459 6.93812 3.62459 6.93812 3.62459C6.93812 3.62459 6.93812 3.62459 6.93812 3.62459C6.93812 3.62459 6.93812 3.62459 6.93812 3.62459C6.93812 3.62459 6.93812 3.62459 6.93812 3.62459C6.93812 3.6246 6.93812 3.6246 6.93812 3.6246C6.93812 3.6246 6.93812 3.6246 6.93812 3.6246C6.93812 3.6246 6.93812 3.6246 6.93812 3.6246C6.93812 3.6246 6.93812 3.6246 6.93812 3.6246C6.93812 3.6246 6.93812 3.6246 6.93812 3.6246C6.93812 3.6246 6.93812 3.6246 6.93812 3.6246C6.93812 3.6246 6.93812 3.6246 6.93812 3.6246C6.93812 3.6246 6.93812 3.6246 6.93812 3.62461C6.93812 3.62461 6.93812 3.62461 6.93812 3.62461C6.93812 3.62461 6.93812 3.62461 6.93812 3.62461C6.93812 3.62461 6.93812 3.62461 6.93812 3.62461C6.93812 3.62461 6.93812 3.62461 6.93812 3.62461C6.93812 3.62461 6.93812 3.62461 6.93812 3.62461C6.93812 3.62461 6.93812 3.62461 6.93812 3.62461C6.93812 3.62461 6.93812 3.62461 6.93812 3.62461C6.93812 3.62461 6.93812 3.62462 6.93812 3.62462C6.93812 3.62462 6.93812 3.62462 6.93812 3.62462C6.93812 3.62462 6.93812 3.62462 6.93812 3.62462C6.93812 3.62462 6.93812 3.62462 6.93812 3.62462C6.93812 3.62462 6.93812 3.62462 6.93812 3.62462C6.93812 3.62462 6.93812 3.62462 6.93812 3.62462C6.93812 3.62462 6.93812 3.62462 6.93812 3.62462C6.93812 3.62462 6.93812 3.62462 6.93812 3.62462C6.93812 3.62463 6.93812 3.62463 6.93812 3.62463C6.93812 3.62463 6.93812 3.62463 6.93812 3.62463C6.93812 3.62463 6.93812 3.62463 6.93812 3.62463C6.93812 3.62463 6.93812 3.62463 6.93812 3.62463C6.93812 3.62463 6.93812 3.62463 6.93812 3.62463C6.93812 3.62463 6.93812 3.62463 6.93812 3.62463C6.93812 3.62463 6.93812 3.62463 6.93812 3.62463C6.93812 3.62463 6.93812 3.62463 6.93812 3.62464C6.93812 3.62464 6.93812 3.62464 6.93812 3.62464C6.93812 3.62464 6.93812 3.62464 6.93812 3.62464C6.93812 3.62464 6.93812 3.62464 6.93812 3.62464C6.93812 3.62464 6.93812 3.62464 6.93812 3.62464C6.93812 3.62464 6.93812 3.62464 6.93812 3.62464C6.93812 3.62464 6.93812 3.62464 6.93812 3.62464C6.93812 3.62464 6.93812 3.62464 6.93812 3.62464C6.93812 3.62464 6.93812 3.62465 6.93812 3.62465C6.93812 3.62465 6.93812 3.62465 6.93812 3.62465C6.93812 3.62465 6.93812 3.62465 6.93812 3.62465C6.93812 3.62465 6.93812 3.62465 6.93812 3.62465C6.93812 3.62465 6.93812 3.62465 6.93812 3.62465C6.93812 3.62465 6.93812 3.62465 6.93812 3.62465C6.93812 3.62465 6.93812 3.62465 6.93812 3.62465C6.93812 3.62465 6.93812 3.62465 6.93812 3.62465C6.93812 3.62466 6.93812 3.62466 6.93812 3.62466C6.93812 3.62466 6.93812 3.62466 6.93812 3.62466C6.93812 3.62466 6.93812 3.62466 6.93812 3.62466C6.93812 3.62466 6.93812 3.62466 6.93812 3.62466C6.93812 3.62466 6.93812 3.62466 6.93812 3.62466C6.93812 3.62466 6.93812 3.62466 6.93812 3.62466C6.93812 3.62466 6.93812 3.62466 6.93812 3.62466C6.93812 3.62466 6.93812 3.62466 6.93812 3.62467C6.93812 3.62467 6.93812 3.62467 6.93812 3.62467C6.93812 3.62467 6.93812 3.62467 6.93812 3.62467C6.93812 3.62467 6.93812 3.62467 6.93812 3.62467C6.93812 3.62467 6.93812 3.62467 6.93812 3.62467C6.93812 3.62467 6.93812 3.62467 6.93812 3.62467C6.93812 3.62467 6.93812 3.62467 6.93812 3.62467C6.93812 3.62467 6.93812 3.62467 6.93812 3.62467C6.93812 3.62467 6.93812 3.62468 6.93812 3.62468C6.93812 3.62468 6.93812 3.62468 6.93812 3.62468C6.93812 3.62468 6.93812 3.62468 6.93812 3.62468C6.93812 3.62468 6.93812 3.62468 6.93812 3.62468C6.93812 3.62468 6.93812 3.62468 6.93812 3.62468C6.93812 3.62468 6.93812 3.62468 6.93812 3.62468C6.93812 3.62468 6.93812 3.62468 6.93812 3.62468C6.93812 3.62468 6.93812 3.62468 6.93812 3.62468C6.93812 3.62469 6.93812 3.62469 6.93812 3.62469C6.93812 3.62469 6.93812 3.62469 6.93812 3.62469C6.93812 3.62469 6.93812 3.62469 6.93812 3.62469C6.93812 3.62469 6.93812 3.62469 6.93812 3.62469C6.93812 3.62469 6.93812 3.62469 6.93812 3.62469C6.93812 3.62469 6.93812 3.62469 6.93812 3.62469C6.93812 3.62469 6.93812 3.62469 6.93812 3.62469C6.93812 3.62469 6.93812 3.62469 6.93812 3.6247C6.93812 3.6247 6.93812 3.6247 6.93812 3.6247C6.93812 3.6247 6.93812 3.6247 6.93812 3.6247C6.93812 3.6247 6.93812 3.6247 6.93812 3.6247C6.93812 3.6247 6.93812 3.6247 6.93812 3.6247C6.93812 3.6247 6.93812 3.6247 6.93812 3.6247C6.93812 3.6247 6.93812 3.6247 6.93812 3.6247C6.93812 3.6247 6.93812 3.6247 6.93812 3.6247C6.93812 3.6247 6.93812 3.62471 6.93812 3.62471C6.93812 3.62471 6.93812 3.62471 6.93812 3.62471C6.93812 3.62471 6.93812 3.62471 6.93812 3.62471C6.93812 3.62471 6.93812 3.62471 6.93812 3.62471C6.93812 3.62471 6.93812 3.62471 6.93812 3.62471C6.93812 3.62471 6.93812 3.62471 6.93812 3.62471C6.93812 3.62471 6.93812 3.62471 6.93812 3.62471C6.93812 3.62471 6.93812 3.62471 6.93812 3.62471C6.93812 3.62472 6.93812 3.62472 6.93812 3.62472C6.93812 3.62472 6.93812 3.62472 6.93812 3.62472C6.93812 3.62472 6.93812 3.62472 6.93812 3.62472C6.93812 3.62472 6.93812 3.62472 6.93812 3.62472C6.93812 3.62472 6.93812 3.62472 6.93812 3.62472C6.93812 3.62472 6.93812 3.62472 6.93812 3.62472C6.93812 3.62472 6.93812 3.62472 6.93812 3.62472C6.93812 3.62472 6.93812 3.62472 6.93812 3.62473C6.93812 3.62473 6.93812 3.62473 6.93812 3.62473C6.93812 3.62473 6.93812 3.62473 6.93812 3.62473C6.93812 3.62473 6.93812 3.62473 6.93812 3.62473C6.93812 3.62473 6.93812 3.62473 6.93812 3.62473C6.93812 3.62473 6.93812 3.62473 6.93812 3.62473C6.93812 3.62473 6.93812 3.62473 6.93812 3.62473C6.93812 3.62473 6.93812 3.62473 6.93812 3.62473C6.93812 3.62473 6.93812 3.62474 6.93812 3.62474C6.93812 3.62474 6.93812 3.62474 6.93812 3.62474C6.93812 3.62474 6.93812 3.62474 6.93812 3.62474C6.93812 3.62474 6.93812 3.62474 6.93812 3.62474C6.93812 3.62474 6.93812 3.62474 6.93812 3.62474C6.93812 3.62474 6.93812 3.62474 6.93812 3.62474C6.93812 3.62474 6.93812 3.62474 6.93812 3.62474C6.93812 3.62474 6.93812 3.62474 6.93812 3.62474C6.93812 3.62475 6.93812 3.62475 6.93812 3.62475C6.93812 3.62475 6.93812 3.62475 6.93812 3.62475C6.93812 3.62475 6.93812 3.62475 6.93812 3.62475C6.93812 3.62475 6.93812 3.62475 6.93812 3.62475C6.93812 3.62475 6.93812 3.62475 6.93812 3.62475C6.93812 3.62475 6.93812 3.62475 6.93812 3.62475C6.93812 3.62475 6.93812 3.62475 6.93812 3.62475C6.93812 3.62475 6.93812 3.62475 6.93812 3.62476C6.93812 3.62476 6.93812 3.62476 6.93812 3.62476C6.93812 3.62476 6.93812 3.62476 6.93812 3.62476C6.93812 3.62476 6.93812 3.62476 6.93812 3.62476C6.93812 3.62476 6.93812 3.62476 6.93812 3.62476C6.93812 3.62476 6.93812 3.62476 6.93812 3.62476C6.93812 3.62476 6.93812 3.62476 6.93812 3.62476C6.93812 3.62476 6.93812 3.62476 6.93812 3.62476C6.93812 3.62476 6.93812 3.62477 6.93812 3.62477C6.93812 3.62477 6.93812 3.62477 6.93812 3.62477C6.93812 3.62477 6.93812 3.62477 6.93812 3.62477C6.93812 3.62477 6.93812 3.62477 6.93812 3.62477C6.93812 3.62477 6.93812 3.62477 6.93812 3.62477C6.93812 3.62477 6.93812 3.62477 6.93812 3.62477C6.93812 3.62477 6.93812 3.62477 6.93812 3.62477C6.93812 3.62477 6.93812 3.62477 6.93812 3.62477C6.93812 3.62478 6.93812 3.62478 6.93812 3.62478C6.93812 3.62478 6.93812 3.62478 6.93812 3.62478C6.93812 3.62478 6.93812 3.62478 6.93812 3.62478C6.93812 3.62478 6.93812 3.62478 6.93812 3.62478C6.93812 3.62478 6.93812 3.62478 6.93812 3.62478C6.93812 3.62478 6.93812 3.62478 6.93812 3.62478C6.93812 3.62478 6.93812 3.62478 6.93812 3.62478C6.93812 3.62478 6.93812 3.62478 6.93812 3.62479C6.93812 3.62479 6.93812 3.62479 6.93812 3.62479C6.93812 3.62479 6.93812 3.62479 6.93812 3.62479C6.93812 3.62479 6.93812 3.62479 6.93812 3.62479C6.93812 3.62479 6.93812 3.62479 6.93812 3.62479C6.93812 3.62479 6.93812 3.62479 6.93812 3.62479C6.93812 3.62479 6.93812 3.62479 6.93812 3.62479C6.93812 3.62479 6.93812 3.62479 6.93812 3.62479C6.93812 3.62479 6.93812 3.6248 6.93812 3.6248C6.93812 3.6248 6.93812 3.6248 6.93812 3.6248C6.93812 3.6248 6.93812 3.6248 6.93812 3.6248C6.93812 3.6248 6.93812 3.6248 6.93812 3.6248C6.93812 3.6248 6.93812 3.6248 6.93812 3.6248C6.93812 3.6248 6.93812 3.6248 6.93812 3.6248C6.93812 3.6248 6.93812 3.6248 6.93812 3.6248C6.93812 3.6248 6.93812 3.6248 6.93812 3.6248C6.93812 3.62481 6.93812 3.62481 6.93812 3.62481C6.93812 3.62481 6.93812 3.62481 6.93812 3.62481C6.93812 3.62481 6.93812 3.62481 6.93812 3.62481C6.93812 3.62481 6.93812 3.62481 6.93812 3.62481C6.93812 3.62481 6.93812 3.62481 6.93812 3.62481C6.93812 3.62481 6.93812 3.62481 6.93812 3.62481C6.93812 3.62481 6.93812 3.62481 6.93812 3.62481C6.93812 3.62481 6.93812 3.62481 6.93812 3.62482C6.93812 3.62482 6.93812 3.62482 6.93812 3.62482C6.93812 3.62482 6.93812 3.62482 6.93812 3.62482C6.93812 3.62482 6.93812 3.62482 6.93812 3.62482C6.93812 3.62482 6.93812 3.62482 6.93812 3.62482C6.93812 3.62482 6.93812 3.62482 6.93812 3.62482C6.93812 3.62482 6.93812 3.62482 6.93812 3.62482C6.93812 3.62482 6.93812 3.62482 6.93812 3.62482C6.93812 3.62482 6.93812 3.62483 6.93812 3.62483C6.93812 3.62483 6.93812 3.62483 6.93812 3.62483C6.93812 3.62483 6.93812 3.62483 6.93812 3.62483C6.93812 3.62483 6.93812 3.62483 6.93812 3.62483C6.93812 3.62483 6.93812 3.62483 6.93812 3.62483C6.93812 3.62483 6.93812 3.62483 6.93812 3.62483C6.93812 3.62483 6.93812 3.62483 6.93812 3.62483C6.93812 3.62483 6.93812 3.62483 6.93812 3.62483C6.93812 3.62484 6.93812 3.62484 6.93812 3.62484C6.93812 3.62484 6.93812 3.62484 6.93812 3.62484C6.93812 3.62484 6.93812 3.62484 6.93812 3.62484C6.93812 3.62484 6.93812 3.62484 6.93812 3.62484C6.93812 3.62484 6.93812 3.62484 6.93812 3.62484C6.93812 3.62484 6.93812 3.62484 6.93812 3.62484C6.93812 3.62484 6.93812 3.62484 6.93812 3.62484C6.93812 3.62484 6.93812 3.62484 6.93812 3.62485C6.93812 3.62485 6.93812 3.62485 6.93812 3.62485C6.93812 3.62485 6.93812 3.62485 6.93812 3.62485C6.93812 3.62485 6.93812 3.62485 6.93812 3.62485C6.93812 3.62485 6.93812 3.62485 6.93812 3.62485C6.93812 3.62485 6.93812 3.62485 6.93812 3.62485C6.93812 3.62485 6.93812 3.62485 6.93812 3.62485C6.93812 3.62485 6.93812 3.62485 6.93812 3.62485C6.93812 3.62485 6.93812 3.62486 6.93812 3.62486C6.93812 3.62486 6.93812 3.62486 6.93812 3.62486C6.93812 3.62486 6.93812 3.62486 6.93812 3.62486C6.93812 3.62486 6.93812 3.62486 6.93812 3.62486C6.93812 3.62486 6.93812 3.62486 6.93812 3.62486C6.93812 3.62486 6.93812 3.62486 6.93812 3.62486C6.93812 3.62486 6.93812 3.62486 6.93812 3.62486C6.93812 3.62486 6.93812 3.62486 6.93812 3.62486C6.93812 3.62487 6.93812 3.62487 6.93812 3.62487C6.93812 3.62487 6.93812 3.62487 6.93812 3.62487C6.93812 3.62487 6.93812 3.62487 6.93812 3.62487C6.93812 3.62487 6.93812 3.62487 6.93812 3.62487C6.93812 3.62487 6.93812 3.62487 6.93812 3.62487C6.93812 3.62487 6.93812 3.62487 6.93812 3.62487C6.93812 3.62487 6.93812 3.62487 6.93812 3.62487C6.93812 3.62487 6.93812 3.62487 6.93812 3.62487C6.93812 3.62488 6.93812 3.62488 6.93812 3.62488C6.93812 3.62488 6.93812 3.62488 6.93812 3.62488C6.93812 3.62488 6.93812 3.62488 6.93812 3.62488C6.93812 3.62488 6.93812 3.62488 6.93812 3.62488C6.93812 3.62488 6.93812 3.62488 6.93812 3.62488C6.93812 3.62488 6.93812 3.62488 6.93812 3.62488C6.93812 3.62488 6.93812 3.62488 6.93812 3.62488C6.93812 3.62488 6.93812 3.62488 6.93812 3.62489C6.93812 3.62489 6.93812 3.62489 6.93812 3.62489C6.93812 3.62489 6.93812 3.62489 6.93812 3.62489C6.93812 3.62489 6.93812 3.62489 6.93812 3.62489C6.93812 3.62489 6.93812 3.62489 6.93812 3.62489C6.93812 3.62489 6.93812 3.62489 6.93812 3.62489C6.93812 3.62489 6.93812 3.62489 6.93812 3.62489C6.93812 3.62489 6.93812 3.62489 6.93812 3.62489C6.93812 3.62489 6.93812 3.6249 6.93812 3.6249C6.93812 3.6249 6.93812 3.6249 6.93812 3.6249C6.93812 3.6249 6.93812 3.6249 6.93812 3.6249C6.93812 3.6249 6.93812 3.6249 6.93812 3.6249C6.93812 3.6249 6.93812 3.6249 6.93812 3.6249C6.93812 3.6249 6.93812 3.6249 6.93812 3.6249C6.93812 3.6249 6.93812 3.6249 6.93812 3.6249C6.93812 3.6249 6.93812 3.6249 6.93812 3.6249C6.93812 3.62491 6.93812 3.62491 6.93812 3.62491C6.93812 3.62491 6.93812 3.62491 6.93812 3.62491C6.93812 3.62491 6.93812 3.62491 6.93812 3.62491C6.93812 3.62491 6.93812 3.62491 6.93812 3.62491C6.93812 3.62491 6.93812 3.62491 6.93812 3.62491C6.93812 3.62491 6.93812 3.62491 6.93812 3.62491C6.93812 3.62491 6.93812 3.62491 6.93812 3.62491C6.93812 3.62491 6.93812 3.62491 6.93812 3.62492C6.93812 3.62492 6.93812 3.62492 6.93812 3.62492C6.93812 3.62492 6.93812 3.62492 6.93812 3.62492C6.93812 3.62492 6.93812 3.62492 6.93812 3.62492C6.93812 3.62492 6.93812 3.62492 6.93812 3.62492C6.93812 3.62492 6.93812 3.62492 6.93812 3.62492C6.93812 3.62492 6.93812 3.62492 6.93812 3.62492C6.93812 3.62492 6.93812 3.62492 6.93812 3.62492C6.93812 3.62492 6.93812 3.62493 6.93812 3.62493C6.93812 3.62493 6.93812 3.62493 6.93812 3.62493C6.93812 3.62493 6.93812 3.62493 6.93812 3.62493C6.93812 3.62493 6.93812 3.62493 6.93812 3.62493C6.93812 3.62493 6.93812 3.62493 6.93812 3.62493C6.93812 3.62493 6.93812 3.62493 6.93812 3.62493C6.93812 3.62493 6.93812 3.62493 6.93812 3.62493C6.93812 3.62493 6.93812 3.62493 6.93812 3.62493C6.93812 3.62494 6.93812 3.62494 6.93812 3.62494C6.93812 3.62494 6.93812 3.62494 6.93812 3.62494C6.93812 3.62494 6.93812 3.62494 6.93812 3.62494C6.93812 3.62494 6.93812 3.62494 6.93812 3.62494C6.93812 3.62494 6.93812 3.62494 6.93812 3.62494C6.93812 3.62494 6.93812 3.62494 6.93812 3.62494C6.93812 3.62494 6.93812 3.62494 6.93812 3.62494C6.93812 3.62494 6.93812 3.62494 6.93812 3.62495C6.93812 3.62495 6.93812 3.62495 6.93812 3.62495C6.93812 3.62495 6.93812 3.62495 6.93812 3.62495C6.93812 3.62495 6.93812 3.62495 6.93812 3.62495C6.93812 3.62495 6.93812 3.62495 6.93812 3.62495C6.93812 3.62495 6.93812 3.62495 6.93812 3.62495C6.93812 3.62495 6.93812 3.62495 6.93812 3.62495C6.93812 3.62495 6.93812 3.62495 6.93812 3.62495C6.93812 3.62495 6.93812 3.62496 6.93812 3.62496C6.93812 3.62496 6.93812 3.62496 6.93812 3.62496C6.93812 3.62496 6.93812 3.62496 6.93812 3.62496C6.93812 3.62496 6.93812 3.62496 6.93812 3.62496C6.93812 3.62496 6.93812 3.62496 6.93812 3.62496C6.93812 3.62496 6.93812 3.62496 6.93812 3.62496C6.93812 3.62496 6.93812 3.62496 6.93812 3.62496C6.93812 3.62496 6.93812 3.62496 6.93812 3.62496C6.93812 3.62497 6.93812 3.62497 6.93812 3.62497C6.93812 3.62497 6.93812 3.62497 6.93812 3.62497C6.93812 3.62497 6.93812 3.62497 6.93812 3.62497C6.93812 3.62497 6.93812 3.62497 6.93812 3.62497C6.93812 3.62497 6.93812 3.62497 6.93812 3.62497C6.93812 3.62497 6.93812 3.62497 6.93812 3.62497C6.93812 3.62497 6.93812 3.62497 6.93812 3.62497C6.93812 3.62497 6.93812 3.62497 6.93812 3.62498C6.93812 3.62498 6.93812 3.62498 6.93812 3.62498C6.93812 3.62498 6.93812 3.62498 6.93812 3.62498C6.93812 3.62498 6.93812 3.62498 6.93812 3.62498C6.93812 3.62498 6.93812 3.62498 6.93812 3.62498C6.93812 3.62498 6.93812 3.62498 6.93812 3.62498C6.93812 3.62498 6.93812 3.62498 6.93812 3.62498C6.93812 3.62498 6.93812 3.62498 6.93812 3.62498C6.93812 3.62498 6.93812 3.62499 6.93812 3.62499C6.93812 3.62499 6.93812 3.62499 6.93812 3.62499C6.93812 3.62499 6.93812 3.62499 6.93812 3.62499C6.93812 3.62499 6.93812 3.62499 6.93812 3.62499C6.93812 3.62499 6.93812 3.62499 6.93812 3.62499C6.93812 3.62499 6.93812 3.62499 6.93812 3.62499C6.93812 3.62499 6.93812 3.62499 6.93812 3.62499C6.93812 3.62499 6.93812 3.62499 6.93812 3.62499C6.93812 3.625 6.93812 3.625 6.93812 3.625C6.93812 3.625 6.93812 3.625 6.93812 3.625C6.93812 3.625 6.93812 3.625 6.93812 3.625C6.93812 3.625 6.93812 3.625 6.93812 3.625H8.43812C8.43812 3.625 8.43812 3.625 8.43812 3.625C8.43812 3.625 8.43812 3.625 8.43812 3.625C8.43812 3.625 8.43812 3.625 8.43812 3.625C8.43812 3.625 8.43812 3.625 8.43812 3.62499C8.43812 3.62499 8.43812 3.62499 8.43812 3.62499C8.43812 3.62499 8.43812 3.62499 8.43812 3.62499C8.43812 3.62499 8.43812 3.62499 8.43812 3.62499C8.43812 3.62499 8.43812 3.62499 8.43812 3.62499C8.43812 3.62499 8.43812 3.62499 8.43812 3.62499C8.43812 3.62499 8.43812 3.62499 8.43812 3.62499C8.43812 3.62499 8.43812 3.62499 8.43812 3.62499C8.43812 3.62499 8.43812 3.62498 8.43812 3.62498C8.43812 3.62498 8.43812 3.62498 8.43812 3.62498C8.43812 3.62498 8.43812 3.62498 8.43812 3.62498C8.43812 3.62498 8.43812 3.62498 8.43812 3.62498C8.43812 3.62498 8.43812 3.62498 8.43812 3.62498C8.43812 3.62498 8.43812 3.62498 8.43812 3.62498C8.43812 3.62498 8.43812 3.62498 8.43812 3.62498C8.43812 3.62498 8.43812 3.62498 8.43812 3.62498C8.43812 3.62497 8.43812 3.62497 8.43812 3.62497C8.43812 3.62497 8.43812 3.62497 8.43812 3.62497C8.43812 3.62497 8.43812 3.62497 8.43812 3.62497C8.43812 3.62497 8.43812 3.62497 8.43812 3.62497C8.43812 3.62497 8.43812 3.62497 8.43812 3.62497C8.43812 3.62497 8.43812 3.62497 8.43812 3.62497C8.43812 3.62497 8.43812 3.62497 8.43812 3.62497C8.43812 3.62497 8.43812 3.62497 8.43812 3.62496C8.43812 3.62496 8.43812 3.62496 8.43812 3.62496C8.43812 3.62496 8.43812 3.62496 8.43812 3.62496C8.43812 3.62496 8.43812 3.62496 8.43812 3.62496C8.43812 3.62496 8.43812 3.62496 8.43812 3.62496C8.43812 3.62496 8.43812 3.62496 8.43812 3.62496C8.43812 3.62496 8.43812 3.62496 8.43812 3.62496C8.43812 3.62496 8.43812 3.62496 8.43812 3.62496C8.43812 3.62496 8.43812 3.62495 8.43812 3.62495C8.43812 3.62495 8.43812 3.62495 8.43812 3.62495C8.43812 3.62495 8.43812 3.62495 8.43812 3.62495C8.43812 3.62495 8.43812 3.62495 8.43812 3.62495C8.43812 3.62495 8.43812 3.62495 8.43812 3.62495C8.43812 3.62495 8.43812 3.62495 8.43812 3.62495C8.43812 3.62495 8.43812 3.62495 8.43812 3.62495C8.43812 3.62495 8.43812 3.62495 8.43812 3.62495C8.43812 3.62494 8.43812 3.62494 8.43812 3.62494C8.43812 3.62494 8.43812 3.62494 8.43812 3.62494C8.43812 3.62494 8.43812 3.62494 8.43812 3.62494C8.43812 3.62494 8.43812 3.62494 8.43812 3.62494C8.43812 3.62494 8.43812 3.62494 8.43812 3.62494C8.43812 3.62494 8.43812 3.62494 8.43812 3.62494C8.43812 3.62494 8.43812 3.62494 8.43812 3.62494C8.43812 3.62494 8.43812 3.62494 8.43812 3.62493C8.43812 3.62493 8.43812 3.62493 8.43812 3.62493C8.43812 3.62493 8.43812 3.62493 8.43812 3.62493C8.43812 3.62493 8.43812 3.62493 8.43812 3.62493C8.43812 3.62493 8.43812 3.62493 8.43812 3.62493C8.43812 3.62493 8.43812 3.62493 8.43812 3.62493C8.43812 3.62493 8.43812 3.62493 8.43812 3.62493C8.43812 3.62493 8.43812 3.62493 8.43812 3.62493C8.43812 3.62493 8.43812 3.62492 8.43812 3.62492C8.43812 3.62492 8.43812 3.62492 8.43812 3.62492C8.43812 3.62492 8.43812 3.62492 8.43812 3.62492C8.43812 3.62492 8.43812 3.62492 8.43812 3.62492C8.43812 3.62492 8.43812 3.62492 8.43812 3.62492C8.43812 3.62492 8.43812 3.62492 8.43812 3.62492C8.43812 3.62492 8.43812 3.62492 8.43812 3.62492C8.43812 3.62492 8.43812 3.62492 8.43812 3.62492C8.43812 3.62491 8.43812 3.62491 8.43812 3.62491C8.43812 3.62491 8.43812 3.62491 8.43812 3.62491C8.43812 3.62491 8.43812 3.62491 8.43812 3.62491C8.43812 3.62491 8.43812 3.62491 8.43812 3.62491C8.43812 3.62491 8.43812 3.62491 8.43812 3.62491C8.43812 3.62491 8.43812 3.62491 8.43812 3.62491C8.43812 3.62491 8.43812 3.62491 8.43812 3.62491C8.43812 3.62491 8.43812 3.62491 8.43812 3.6249C8.43812 3.6249 8.43812 3.6249 8.43812 3.6249C8.43812 3.6249 8.43812 3.6249 8.43812 3.6249C8.43812 3.6249 8.43812 3.6249 8.43812 3.6249C8.43812 3.6249 8.43812 3.6249 8.43812 3.6249C8.43812 3.6249 8.43812 3.6249 8.43812 3.6249C8.43812 3.6249 8.43812 3.6249 8.43812 3.6249C8.43812 3.6249 8.43812 3.6249 8.43812 3.6249C8.43812 3.6249 8.43812 3.62489 8.43812 3.62489C8.43812 3.62489 8.43812 3.62489 8.43812 3.62489C8.43812 3.62489 8.43812 3.62489 8.43812 3.62489C8.43812 3.62489 8.43812 3.62489 8.43812 3.62489C8.43812 3.62489 8.43812 3.62489 8.43812 3.62489C8.43812 3.62489 8.43812 3.62489 8.43812 3.62489C8.43812 3.62489 8.43812 3.62489 8.43812 3.62489C8.43812 3.62489 8.43812 3.62489 8.43812 3.62489C8.43812 3.62488 8.43812 3.62488 8.43812 3.62488C8.43812 3.62488 8.43812 3.62488 8.43812 3.62488C8.43812 3.62488 8.43812 3.62488 8.43812 3.62488C8.43812 3.62488 8.43812 3.62488 8.43812 3.62488C8.43812 3.62488 8.43812 3.62488 8.43812 3.62488C8.43812 3.62488 8.43812 3.62488 8.43812 3.62488C8.43812 3.62488 8.43812 3.62488 8.43812 3.62488C8.43812 3.62488 8.43812 3.62488 8.43812 3.62487C8.43812 3.62487 8.43812 3.62487 8.43812 3.62487C8.43812 3.62487 8.43812 3.62487 8.43812 3.62487C8.43812 3.62487 8.43812 3.62487 8.43812 3.62487C8.43812 3.62487 8.43812 3.62487 8.43812 3.62487C8.43812 3.62487 8.43812 3.62487 8.43812 3.62487C8.43812 3.62487 8.43812 3.62487 8.43812 3.62487C8.43812 3.62487 8.43812 3.62487 8.43812 3.62487C8.43812 3.62487 8.43812 3.62487 8.43812 3.62486C8.43812 3.62486 8.43812 3.62486 8.43812 3.62486C8.43812 3.62486 8.43812 3.62486 8.43812 3.62486C8.43812 3.62486 8.43812 3.62486 8.43812 3.62486C8.43812 3.62486 8.43812 3.62486 8.43812 3.62486C8.43812 3.62486 8.43812 3.62486 8.43812 3.62486C8.43812 3.62486 8.43812 3.62486 8.43812 3.62486C8.43812 3.62486 8.43812 3.62486 8.43812 3.62486C8.43812 3.62486 8.43812 3.62485 8.43812 3.62485C8.43812 3.62485 8.43812 3.62485 8.43812 3.62485C8.43812 3.62485 8.43812 3.62485 8.43812 3.62485C8.43812 3.62485 8.43812 3.62485 8.43812 3.62485C8.43812 3.62485 8.43812 3.62485 8.43812 3.62485C8.43812 3.62485 8.43812 3.62485 8.43812 3.62485C8.43812 3.62485 8.43812 3.62485 8.43812 3.62485C8.43812 3.62485 8.43812 3.62485 8.43812 3.62485C8.43812 3.62484 8.43812 3.62484 8.43812 3.62484C8.43812 3.62484 8.43812 3.62484 8.43812 3.62484C8.43812 3.62484 8.43812 3.62484 8.43812 3.62484C8.43812 3.62484 8.43812 3.62484 8.43812 3.62484C8.43812 3.62484 8.43812 3.62484 8.43812 3.62484C8.43812 3.62484 8.43812 3.62484 8.43812 3.62484C8.43812 3.62484 8.43812 3.62484 8.43812 3.62484C8.43812 3.62484 8.43812 3.62484 8.43812 3.62483C8.43812 3.62483 8.43812 3.62483 8.43812 3.62483C8.43812 3.62483 8.43812 3.62483 8.43812 3.62483C8.43812 3.62483 8.43812 3.62483 8.43812 3.62483C8.43812 3.62483 8.43812 3.62483 8.43812 3.62483C8.43812 3.62483 8.43812 3.62483 8.43812 3.62483C8.43812 3.62483 8.43812 3.62483 8.43812 3.62483C8.43812 3.62483 8.43812 3.62483 8.43812 3.62483C8.43812 3.62483 8.43812 3.62482 8.43812 3.62482C8.43812 3.62482 8.43812 3.62482 8.43812 3.62482C8.43812 3.62482 8.43812 3.62482 8.43812 3.62482C8.43812 3.62482 8.43812 3.62482 8.43812 3.62482C8.43812 3.62482 8.43812 3.62482 8.43812 3.62482C8.43812 3.62482 8.43812 3.62482 8.43812 3.62482C8.43812 3.62482 8.43812 3.62482 8.43812 3.62482C8.43812 3.62482 8.43812 3.62482 8.43812 3.62482C8.43812 3.62481 8.43812 3.62481 8.43812 3.62481C8.43812 3.62481 8.43812 3.62481 8.43812 3.62481C8.43812 3.62481 8.43812 3.62481 8.43812 3.62481C8.43812 3.62481 8.43812 3.62481 8.43812 3.62481C8.43812 3.62481 8.43812 3.62481 8.43812 3.62481C8.43812 3.62481 8.43812 3.62481 8.43812 3.62481C8.43812 3.62481 8.43812 3.62481 8.43812 3.62481C8.43812 3.62481 8.43812 3.62481 8.43812 3.6248C8.43812 3.6248 8.43812 3.6248 8.43812 3.6248C8.43812 3.6248 8.43812 3.6248 8.43812 3.6248C8.43812 3.6248 8.43812 3.6248 8.43812 3.6248C8.43812 3.6248 8.43812 3.6248 8.43812 3.6248C8.43812 3.6248 8.43812 3.6248 8.43812 3.6248C8.43812 3.6248 8.43812 3.6248 8.43812 3.6248C8.43812 3.6248 8.43812 3.6248 8.43812 3.6248C8.43812 3.6248 8.43812 3.62479 8.43812 3.62479C8.43812 3.62479 8.43812 3.62479 8.43812 3.62479C8.43812 3.62479 8.43812 3.62479 8.43812 3.62479C8.43812 3.62479 8.43812 3.62479 8.43812 3.62479C8.43812 3.62479 8.43812 3.62479 8.43812 3.62479C8.43812 3.62479 8.43812 3.62479 8.43812 3.62479C8.43812 3.62479 8.43812 3.62479 8.43812 3.62479C8.43812 3.62479 8.43812 3.62479 8.43812 3.62479C8.43812 3.62478 8.43812 3.62478 8.43812 3.62478C8.43812 3.62478 8.43812 3.62478 8.43812 3.62478C8.43812 3.62478 8.43812 3.62478 8.43812 3.62478C8.43812 3.62478 8.43812 3.62478 8.43812 3.62478C8.43812 3.62478 8.43812 3.62478 8.43812 3.62478C8.43812 3.62478 8.43812 3.62478 8.43812 3.62478C8.43812 3.62478 8.43812 3.62478 8.43812 3.62478C8.43812 3.62478 8.43812 3.62478 8.43812 3.62477C8.43812 3.62477 8.43812 3.62477 8.43812 3.62477C8.43812 3.62477 8.43812 3.62477 8.43812 3.62477C8.43812 3.62477 8.43812 3.62477 8.43812 3.62477C8.43812 3.62477 8.43812 3.62477 8.43812 3.62477C8.43812 3.62477 8.43812 3.62477 8.43812 3.62477C8.43812 3.62477 8.43812 3.62477 8.43812 3.62477C8.43812 3.62477 8.43812 3.62477 8.43812 3.62477C8.43812 3.62477 8.43812 3.62476 8.43812 3.62476C8.43812 3.62476 8.43812 3.62476 8.43812 3.62476C8.43812 3.62476 8.43812 3.62476 8.43812 3.62476C8.43812 3.62476 8.43812 3.62476 8.43812 3.62476C8.43812 3.62476 8.43812 3.62476 8.43812 3.62476C8.43812 3.62476 8.43812 3.62476 8.43812 3.62476C8.43812 3.62476 8.43812 3.62476 8.43812 3.62476C8.43812 3.62476 8.43812 3.62476 8.43812 3.62476C8.43812 3.62475 8.43812 3.62475 8.43812 3.62475C8.43812 3.62475 8.43812 3.62475 8.43812 3.62475C8.43812 3.62475 8.43812 3.62475 8.43812 3.62475C8.43812 3.62475 8.43812 3.62475 8.43812 3.62475C8.43812 3.62475 8.43812 3.62475 8.43812 3.62475C8.43812 3.62475 8.43812 3.62475 8.43812 3.62475C8.43812 3.62475 8.43812 3.62475 8.43812 3.62475C8.43812 3.62475 8.43812 3.62475 8.43812 3.62474C8.43812 3.62474 8.43812 3.62474 8.43812 3.62474C8.43812 3.62474 8.43812 3.62474 8.43812 3.62474C8.43812 3.62474 8.43812 3.62474 8.43812 3.62474C8.43812 3.62474 8.43812 3.62474 8.43812 3.62474C8.43812 3.62474 8.43812 3.62474 8.43812 3.62474C8.43812 3.62474 8.43812 3.62474 8.43812 3.62474C8.43812 3.62474 8.43812 3.62474 8.43812 3.62474C8.43812 3.62474 8.43812 3.62473 8.43812 3.62473C8.43812 3.62473 8.43812 3.62473 8.43812 3.62473C8.43812 3.62473 8.43812 3.62473 8.43812 3.62473C8.43812 3.62473 8.43812 3.62473 8.43812 3.62473C8.43812 3.62473 8.43812 3.62473 8.43812 3.62473C8.43812 3.62473 8.43812 3.62473 8.43812 3.62473C8.43812 3.62473 8.43812 3.62473 8.43812 3.62473C8.43812 3.62473 8.43812 3.62473 8.43812 3.62473C8.43812 3.62472 8.43812 3.62472 8.43812 3.62472C8.43812 3.62472 8.43812 3.62472 8.43812 3.62472C8.43812 3.62472 8.43812 3.62472 8.43812 3.62472C8.43812 3.62472 8.43812 3.62472 8.43812 3.62472C8.43812 3.62472 8.43812 3.62472 8.43812 3.62472C8.43812 3.62472 8.43812 3.62472 8.43812 3.62472C8.43812 3.62472 8.43812 3.62472 8.43812 3.62472C8.43812 3.62472 8.43812 3.62472 8.43812 3.62471C8.43812 3.62471 8.43812 3.62471 8.43812 3.62471C8.43812 3.62471 8.43812 3.62471 8.43812 3.62471C8.43812 3.62471 8.43812 3.62471 8.43812 3.62471C8.43812 3.62471 8.43812 3.62471 8.43812 3.62471C8.43812 3.62471 8.43812 3.62471 8.43812 3.62471C8.43812 3.62471 8.43812 3.62471 8.43812 3.62471C8.43812 3.62471 8.43812 3.62471 8.43812 3.62471C8.43812 3.62471 8.43812 3.6247 8.43812 3.6247C8.43812 3.6247 8.43812 3.6247 8.43812 3.6247C8.43812 3.6247 8.43812 3.6247 8.43812 3.6247C8.43812 3.6247 8.43812 3.6247 8.43812 3.6247C8.43812 3.6247 8.43812 3.6247 8.43812 3.6247C8.43812 3.6247 8.43812 3.6247 8.43812 3.6247C8.43812 3.6247 8.43812 3.6247 8.43812 3.6247C8.43812 3.6247 8.43812 3.6247 8.43812 3.6247C8.43812 3.62469 8.43812 3.62469 8.43812 3.62469C8.43812 3.62469 8.43812 3.62469 8.43812 3.62469C8.43812 3.62469 8.43812 3.62469 8.43812 3.62469C8.43812 3.62469 8.43812 3.62469 8.43812 3.62469C8.43812 3.62469 8.43812 3.62469 8.43812 3.62469C8.43812 3.62469 8.43812 3.62469 8.43812 3.62469C8.43812 3.62469 8.43812 3.62469 8.43812 3.62469C8.43812 3.62469 8.43812 3.62469 8.43812 3.62468C8.43812 3.62468 8.43812 3.62468 8.43812 3.62468C8.43812 3.62468 8.43812 3.62468 8.43812 3.62468C8.43812 3.62468 8.43812 3.62468 8.43812 3.62468C8.43812 3.62468 8.43812 3.62468 8.43812 3.62468C8.43812 3.62468 8.43812 3.62468 8.43812 3.62468C8.43812 3.62468 8.43812 3.62468 8.43812 3.62468C8.43812 3.62468 8.43812 3.62468 8.43812 3.62468C8.43812 3.62468 8.43812 3.62467 8.43812 3.62467C8.43812 3.62467 8.43812 3.62467 8.43812 3.62467C8.43812 3.62467 8.43812 3.62467 8.43812 3.62467C8.43812 3.62467 8.43812 3.62467 8.43812 3.62467C8.43812 3.62467 8.43812 3.62467 8.43812 3.62467C8.43812 3.62467 8.43812 3.62467 8.43812 3.62467C8.43812 3.62467 8.43812 3.62467 8.43812 3.62467C8.43812 3.62467 8.43812 3.62467 8.43812 3.62467C8.43812 3.62466 8.43812 3.62466 8.43812 3.62466C8.43812 3.62466 8.43812 3.62466 8.43812 3.62466C8.43812 3.62466 8.43812 3.62466 8.43812 3.62466C8.43812 3.62466 8.43812 3.62466 8.43812 3.62466C8.43812 3.62466 8.43812 3.62466 8.43812 3.62466C8.43812 3.62466 8.43812 3.62466 8.43812 3.62466C8.43812 3.62466 8.43812 3.62466 8.43812 3.62466C8.43812 3.62466 8.43812 3.62466 8.43812 3.62465C8.43812 3.62465 8.43812 3.62465 8.43812 3.62465C8.43812 3.62465 8.43812 3.62465 8.43812 3.62465C8.43812 3.62465 8.43812 3.62465 8.43812 3.62465C8.43812 3.62465 8.43812 3.62465 8.43812 3.62465C8.43812 3.62465 8.43812 3.62465 8.43812 3.62465C8.43812 3.62465 8.43812 3.62465 8.43812 3.62465C8.43812 3.62465 8.43812 3.62465 8.43812 3.62465C8.43812 3.62465 8.43812 3.62464 8.43812 3.62464C8.43812 3.62464 8.43812 3.62464 8.43812 3.62464C8.43812 3.62464 8.43812 3.62464 8.43812 3.62464C8.43812 3.62464 8.43812 3.62464 8.43812 3.62464C8.43812 3.62464 8.43812 3.62464 8.43812 3.62464C8.43812 3.62464 8.43812 3.62464 8.43812 3.62464C8.43812 3.62464 8.43812 3.62464 8.43812 3.62464C8.43812 3.62464 8.43812 3.62464 8.43812 3.62464C8.43812 3.62463 8.43812 3.62463 8.43812 3.62463C8.43812 3.62463 8.43812 3.62463 8.43812 3.62463C8.43812 3.62463 8.43812 3.62463 8.43812 3.62463C8.43812 3.62463 8.43812 3.62463 8.43812 3.62463C8.43812 3.62463 8.43812 3.62463 8.43812 3.62463C8.43812 3.62463 8.43812 3.62463 8.43812 3.62463C8.43812 3.62463 8.43812 3.62463 8.43812 3.62463C8.43812 3.62463 8.43812 3.62463 8.43812 3.62462C8.43812 3.62462 8.43812 3.62462 8.43812 3.62462C8.43812 3.62462 8.43812 3.62462 8.43812 3.62462C8.43812 3.62462 8.43812 3.62462 8.43812 3.62462C8.43812 3.62462 8.43812 3.62462 8.43812 3.62462C8.43812 3.62462 8.43812 3.62462 8.43812 3.62462C8.43812 3.62462 8.43812 3.62462 8.43812 3.62462C8.43812 3.62462 8.43812 3.62462 8.43812 3.62462C8.43812 3.62462 8.43812 3.62461 8.43812 3.62461C8.43812 3.62461 8.43812 3.62461 8.43812 3.62461C8.43812 3.62461 8.43812 3.62461 8.43812 3.62461C8.43812 3.62461 8.43812 3.62461 8.43812 3.62461C8.43812 3.62461 8.43812 3.62461 8.43812 3.62461C8.43812 3.62461 8.43812 3.62461 8.43812 3.62461C8.43812 3.62461 8.43812 3.62461 8.43812 3.62461C8.43812 3.62461 8.43812 3.62461 8.43812 3.62461C8.43812 3.6246 8.43812 3.6246 8.43812 3.6246C8.43812 3.6246 8.43812 3.6246 8.43812 3.6246C8.43812 3.6246 8.43812 3.6246 8.43812 3.6246C8.43812 3.6246 8.43812 3.6246 8.43812 3.6246C8.43812 3.6246 8.43812 3.6246 8.43812 3.6246C8.43812 3.6246 8.43812 3.6246 8.43812 3.6246C8.43812 3.6246 8.43812 3.6246 8.43812 3.6246C8.43812 3.6246 8.43812 3.6246 8.43812 3.62459C8.43812 3.62459 8.43812 3.62459 8.43812 3.62459C8.43812 3.62459 8.43812 3.62459 8.43812 3.62459C8.43812 3.62459 8.43812 3.62459 8.43812 3.62459C8.43812 3.62459 8.43812 3.62459 8.43812 3.62459C8.43812 3.62459 8.43812 3.62459 8.43812 3.62459C8.43812 3.62459 8.43812 3.62459 8.43812 3.62459C8.43812 3.62459 8.43812 3.62459 8.43812 3.62459C8.43812 3.62459 8.43812 3.62458 8.43812 3.62458C8.43812 3.62458 8.43812 3.62458 8.43812 3.62458C8.43812 3.62458 8.43812 3.62458 8.43812 3.62458C8.43812 3.62458 8.43812 3.62458 8.43812 3.62458C8.43812 3.62458 8.43812 3.62458 8.43812 3.62458C8.43812 3.62458 8.43812 3.62458 8.43812 3.62458C8.43812 3.62458 8.43812 3.62458 8.43812 3.62458C8.43812 3.62458 8.43812 3.62458 8.43812 3.62458C8.43812 3.62457 8.43812 3.62457 8.43812 3.62457C8.43812 3.62457 8.43812 3.62457 8.43812 3.62457C8.43812 3.62457 8.43812 3.62457 8.43812 3.62457C8.43812 3.62457 8.43812 3.62457 8.43812 3.62457C8.43812 3.62457 8.43812 3.62457 8.43812 3.62457C8.43812 3.62457 8.43812 3.62457 8.43812 3.62457C8.43812 3.62457 8.43812 3.62457 8.43812 3.62457C8.43812 3.62457 8.43812 3.62457 8.43812 3.62456C8.43812 3.62456 8.43812 3.62456 8.43812 3.62456C8.43812 3.62456 8.43812 3.62456 8.43812 3.62456C8.43812 3.62456 8.43812 3.62456 8.43812 3.62456C8.43812 3.62456 8.43812 3.62456 8.43812 3.62456C8.43812 3.62456 8.43812 3.62456 8.43812 3.62456C8.43812 3.62456 8.43812 3.62456 8.43812 3.62456C8.43812 3.62456 8.43812 3.62456 8.43812 3.62456C8.43812 3.62456 8.43812 3.62455 8.43812 3.62455C8.43812 3.62455 8.43812 3.62455 8.43812 3.62455C8.43812 3.62455 8.43812 3.62455 8.43812 3.62455C8.43812 3.62455 8.43812 3.62455 8.43812 3.62455C8.43812 3.62455 8.43812 3.62455 8.43812 3.62455C8.43812 3.62455 8.43812 3.62455 8.43812 3.62455C8.43812 3.62455 8.43812 3.62455 8.43812 3.62455C8.43812 3.62455 8.43812 3.62455 8.43812 3.62455C8.43812 3.62454 8.43812 3.62454 8.43812 3.62454C8.43812 3.62454 8.43812 3.62454 8.43812 3.62454C8.43812 3.62454 8.43812 3.62454 8.43812 3.62454C8.43812 3.62454 8.43812 3.62454 8.43812 3.62454C8.43812 3.62454 8.43812 3.62454 8.43812 3.62454C8.43812 3.62454 8.43812 3.62454 8.43812 3.62454C8.43812 3.62454 8.43812 3.62454 8.43812 3.62454C8.43812 3.62454 8.43812 3.62454 8.43812 3.62454C8.43812 3.62453 8.43812 3.62453 8.43812 3.62453C8.43812 3.62453 8.43812 3.62453 8.43812 3.62453C8.43812 3.62453 8.43812 3.62453 8.43812 3.62453C8.43812 3.62453 8.43812 3.62453 8.43812 3.62453C8.43812 3.62453 8.43812 3.62453 8.43812 3.62453C8.43812 3.62453 8.43812 3.62453 8.43812 3.62453C8.43812 3.62453 8.43812 3.62453 8.43812 3.62453C8.43812 3.62453 8.43812 3.62453 8.43812 3.62452C8.43812 3.62452 8.43812 3.62452 8.43812 3.62452C8.43812 3.62452 8.43812 3.62452 8.43812 3.62452C8.43812 3.62452 8.43812 3.62452 8.43812 3.62452C8.43812 3.62452 8.43812 3.62452 8.43812 3.62452C8.43812 3.62452 8.43812 3.62452 8.43812 3.62452C8.43812 3.62452 8.43812 3.62452 8.43812 3.62452C8.43812 3.62452 8.43812 3.62452 8.43812 3.62452C8.43812 3.62452 8.43812 3.62451 8.43812 3.62451C8.43812 3.62451 8.43812 3.62451 8.43812 3.62451C8.43812 3.62451 8.43812 3.62451 8.43812 3.62451C8.43812 3.62451 8.43812 3.62451 8.43812 3.62451C8.43812 3.62451 8.43812 3.62451 8.43812 3.62451C8.43812 3.62451 8.43812 3.62451 8.43812 3.62451C8.43812 3.62451 8.43812 3.62451 8.43812 3.62451C8.43812 3.62451 8.43812 3.62451 8.43812 3.62451C8.43812 3.6245 8.43812 3.6245 8.43812 3.6245C8.43812 3.6245 8.43812 3.6245 8.43812 3.6245C8.43812 3.6245 8.43812 3.6245 8.43812 3.6245C8.43812 3.6245 8.43812 3.6245 8.43812 3.6245C8.43812 3.6245 8.43812 3.6245 8.43812 3.6245C8.43812 3.6245 8.43812 3.6245 8.43812 3.6245C8.43812 3.6245 8.43812 3.6245 8.43812 3.6245C8.43812 3.6245 8.43812 3.6245 8.43812 3.62449C8.43812 3.62449 8.43812 3.62449 8.43812 3.62449C8.43812 3.62449 8.43812 3.62449 8.43812 3.62449C8.43812 3.62449 8.43812 3.62449 8.43812 3.62449C8.43812 3.62449 8.43812 3.62449 8.43812 3.62449C8.43812 3.62449 8.43812 3.62449 8.43812 3.62449C8.43812 3.62449 8.43812 3.62449 8.43812 3.62449C8.43812 3.62449 8.43812 3.62449 8.43812 3.62449C8.43812 3.62449 8.43812 3.62448 8.43812 3.62448C8.43812 3.62448 8.43812 3.62448 8.43812 3.62448C8.43812 3.62448 8.43812 3.62448 8.43812 3.62448C8.43812 3.62448 8.43812 3.62448 8.43812 3.62448C8.43812 3.62448 8.43812 3.62448 8.43812 3.62448C8.43812 3.62448 8.43812 3.62448 8.43812 3.62448C8.43812 3.62448 8.43812 3.62448 8.43812 3.62448C8.43812 3.62448 8.43812 3.62448 8.43812 3.62448C8.43812 3.62447 8.43812 3.62447 8.43812 3.62447C8.43812 3.62447 8.43812 3.62447 8.43812 3.62447C8.43812 3.62447 8.43812 3.62447 8.43812 3.62447C8.43812 3.62447 8.43812 3.62447 8.43812 3.62447C8.43812 3.62447 8.43812 3.62447 8.43812 3.62447C8.43812 3.62447 8.43812 3.62447 8.43812 3.62447C8.43812 3.62447 8.43812 3.62447 8.43812 3.62447C8.43812 3.62447 8.43812 3.62447 8.43812 3.62446C8.43812 3.62446 8.43812 3.62446 8.43812 3.62446C8.43812 3.62446 8.43812 3.62446 8.43812 3.62446C8.43812 3.62446 8.43812 3.62446 8.43812 3.62446C8.43812 3.62446 8.43812 3.62446 8.43812 3.62446C8.43812 3.62446 8.43812 3.62446 8.43812 3.62446C8.43812 3.62446 8.43812 3.62446 8.43812 3.62446C8.43812 3.62446 8.43812 3.62446 8.43812 3.62446C8.43812 3.62446 8.43812 3.62445 8.43812 3.62445C8.43812 3.62445 8.43812 3.62445 8.43812 3.62445C8.43812 3.62445 8.43812 3.62445 8.43812 3.62445C8.43812 3.62445 8.43812 3.62445 8.43812 3.62445C8.43812 3.62445 8.43812 3.62445 8.43812 3.62445C8.43812 3.62445 8.43812 3.62445 8.43812 3.62445C8.43812 3.62445 8.43812 3.62445 8.43812 3.62445C8.43812 3.62445 8.43812 3.62445 8.43812 3.62445C8.43812 3.62444 8.43812 3.62444 8.43812 3.62444C8.43812 3.62444 8.43812 3.62444 8.43812 3.62444C8.43812 3.62444 8.43812 3.62444 8.43812 3.62444C8.43812 3.62444 8.43812 3.62444 8.43812 3.62444C8.43812 3.62444 8.43812 3.62444 8.43812 3.62444C8.43812 3.62444 8.43812 3.62444 8.43812 3.62444C8.43812 3.62444 8.43812 3.62444 8.43812 3.62444C8.43812 3.62444 8.43812 3.62444 8.43812 3.62443C8.43812 3.62443 8.43812 3.62443 8.43812 3.62443C8.43812 3.62443 8.43812 3.62443 8.43812 3.62443C8.43812 3.62443 8.43812 3.62443 8.43812 3.62443C8.43812 3.62443 8.43812 3.62443 8.43812 3.62443C8.43812 3.62443 8.43812 3.62443 8.43812 3.62443C8.43812 3.62443 8.43812 3.62443 8.43812 3.62443C8.43812 3.62443 8.43812 3.62443 8.43812 3.62443C8.43812 3.62443 8.43812 3.62442 8.43812 3.62442C8.43812 3.62442 8.43812 3.62442 8.43812 3.62442C8.43812 3.62442 8.43812 3.62442 8.43812 3.62442C8.43812 3.62442 8.43812 3.62442 8.43812 3.62442C8.43812 3.62442 8.43812 3.62442 8.43812 3.62442C8.43812 3.62442 8.43812 3.62442 8.43812 3.62442C8.43812 3.62442 8.43812 3.62442 8.43812 3.62442C8.43812 3.62442 8.43812 3.62442 8.43812 3.62442C8.43812 3.62441 8.43812 3.62441 8.43812 3.62441C8.43812 3.62441 8.43812 3.62441 8.43812 3.62441C8.43812 3.62441 8.43812 3.62441 8.43812 3.62441C8.43812 3.62441 8.43812 3.62441 8.43812 3.62441C8.43812 3.62441 8.43812 3.62441 8.43812 3.62441C8.43812 3.62441 8.43812 3.62441 8.43812 3.62441C8.43812 3.62441 8.43812 3.62441 8.43812 3.62441C8.43812 3.62441 8.43812 3.62441 8.43812 3.6244C8.43812 3.6244 8.43812 3.6244 8.43812 3.6244C8.43812 3.6244 8.43812 3.6244 8.43812 3.6244C8.43812 3.6244 8.43812 3.6244 8.43812 3.6244C8.43812 3.6244 8.43812 3.6244 8.43812 3.6244C8.43812 3.6244 8.43812 3.6244 8.43812 3.6244C8.43812 3.6244 8.43812 3.6244 8.43812 3.6244C8.43812 3.6244 8.43812 3.6244 8.43812 3.6244C8.43812 3.6244 8.43812 3.62439 8.43812 3.62439C8.43812 3.62439 8.43812 3.62439 8.43812 3.62439C8.43812 3.62439 8.43812 3.62439 8.43812 3.62439C8.43812 3.62439 8.43812 3.62439 8.43812 3.62439C8.43812 3.62439 8.43812 3.62439 8.43812 3.62439C8.43812 3.62439 8.43812 3.62439 8.43812 3.62439C8.43812 3.62439 8.43812 3.62439 8.43812 3.62439C8.43812 3.62439 8.43812 3.62439 8.43812 3.62439C8.43812 3.62438 8.43812 3.62438 8.43812 3.62438C8.43812 3.62438 8.43812 3.62438 8.43812 3.62438C8.43812 3.62438 8.43812 3.62438 8.43812 3.62438C8.43812 3.62438 8.43812 3.62438 8.43812 3.62438C8.43812 3.62438 8.43812 3.62438 8.43812 3.62438C8.43812 3.62438 8.43812 3.62438 8.43812 3.62438C8.43812 3.62438 8.43812 3.62438 8.43812 3.62438C8.43812 3.62438 8.43812 3.62438 8.43812 3.62437C8.43812 3.62437 8.43812 3.62437 8.43812 3.62437C8.43812 3.62437 8.43812 3.62437 8.43812 3.62437C8.43812 3.62437 8.43812 3.62437 8.43812 3.62437C8.43812 3.62437 8.43812 3.62437 8.43812 3.62437C8.43812 3.62437 8.43812 3.62437 8.43812 3.62437C8.43812 3.62437 8.43812 3.62437 8.43812 3.62437C8.43812 3.62437 8.43812 3.62437 8.43812 3.62437C8.43812 3.62437 8.43812 3.62436 8.43812 3.62436C8.43812 3.62436 8.43812 3.62436 8.43812 3.62436C8.43812 3.62436 8.43812 3.62436 8.43812 3.62436C8.43812 3.62436 8.43812 3.62436 8.43812 3.62436C8.43812 3.62436 8.43812 3.62436 8.43812 3.62436C8.43812 3.62436 8.43812 3.62436 8.43812 3.62436C8.43812 3.62436 8.43812 3.62436 8.43812 3.62436C8.43812 3.62436 8.43812 3.62436 8.43812 3.62436C8.43812 3.62435 8.43812 3.62435 8.43812 3.62435C8.43812 3.62435 8.43812 3.62435 8.43812 3.62435C8.43812 3.62435 8.43812 3.62435 8.43812 3.62435C8.43812 3.62435 8.43812 3.62435 8.43812 3.62435C8.43812 3.62435 8.43812 3.62435 8.43812 3.62435C8.43812 3.62435 8.43812 3.62435 8.43812 3.62435C8.43812 3.62435 8.43812 3.62435 8.43812 3.62435C8.43812 3.62435 8.43812 3.62435 8.43812 3.62434C8.43812 3.62434 8.43812 3.62434 8.43812 3.62434C8.43812 3.62434 8.43812 3.62434 8.43812 3.62434C8.43812 3.62434 8.43812 3.62434 8.43812 3.62434C8.43812 3.62434 8.43812 3.62434 8.43812 3.62434C8.43812 3.62434 8.43812 3.62434 8.43812 3.62434C8.43812 3.62434 8.43812 3.62434 8.43812 3.62434C8.43812 3.62434 8.43812 3.62434 8.43812 3.62434C8.43812 3.62434 8.43812 3.62433 8.43812 3.62433C8.43812 3.62433 8.43812 3.62433 8.43812 3.62433H6.93812ZM5.06379 1.75C6.09895 1.75 6.93812 2.58917 6.93812 3.62433H8.43812C8.43812 1.76074 6.92738 0.25 5.06379 0.25V1.75ZM3.18945 3.62433C3.18945 2.58917 4.02862 1.75 5.06379 1.75V0.25C3.20019 0.25 1.68945 1.76074 1.68945 3.62433H3.18945ZM3.18945 3.625C3.18945 3.625 3.18945 3.625 3.18945 3.625C3.18945 3.625 3.18945 3.625 3.18945 3.625C3.18945 3.625 3.18945 3.625 3.18945 3.625C3.18945 3.625 3.18945 3.625 3.18945 3.62499C3.18945 3.62499 3.18945 3.62499 3.18945 3.62499C3.18945 3.62499 3.18945 3.62499 3.18945 3.62499C3.18945 3.62499 3.18945 3.62499 3.18945 3.62499C3.18945 3.62499 3.18945 3.62499 3.18945 3.62499C3.18945 3.62499 3.18945 3.62499 3.18945 3.62499C3.18945 3.62499 3.18945 3.62499 3.18945 3.62499C3.18945 3.62499 3.18945 3.62499 3.18945 3.62499C3.18945 3.62499 3.18945 3.62498 3.18945 3.62498C3.18945 3.62498 3.18945 3.62498 3.18945 3.62498C3.18945 3.62498 3.18945 3.62498 3.18945 3.62498C3.18945 3.62498 3.18945 3.62498 3.18945 3.62498C3.18945 3.62498 3.18945 3.62498 3.18945 3.62498C3.18945 3.62498 3.18945 3.62498 3.18945 3.62498C3.18945 3.62498 3.18945 3.62498 3.18945 3.62498C3.18945 3.62498 3.18945 3.62498 3.18945 3.62498C3.18945 3.62497 3.18945 3.62497 3.18945 3.62497C3.18945 3.62497 3.18945 3.62497 3.18945 3.62497C3.18945 3.62497 3.18945 3.62497 3.18945 3.62497C3.18945 3.62497 3.18945 3.62497 3.18945 3.62497C3.18945 3.62497 3.18945 3.62497 3.18945 3.62497C3.18945 3.62497 3.18945 3.62497 3.18945 3.62497C3.18945 3.62497 3.18945 3.62497 3.18945 3.62497C3.18945 3.62497 3.18945 3.62497 3.18945 3.62496C3.18945 3.62496 3.18945 3.62496 3.18945 3.62496C3.18945 3.62496 3.18945 3.62496 3.18945 3.62496C3.18945 3.62496 3.18945 3.62496 3.18945 3.62496C3.18945 3.62496 3.18945 3.62496 3.18945 3.62496C3.18945 3.62496 3.18945 3.62496 3.18945 3.62496C3.18945 3.62496 3.18945 3.62496 3.18945 3.62496C3.18945 3.62496 3.18945 3.62496 3.18945 3.62496C3.18945 3.62496 3.18945 3.62495 3.18945 3.62495C3.18945 3.62495 3.18945 3.62495 3.18945 3.62495C3.18945 3.62495 3.18945 3.62495 3.18945 3.62495C3.18945 3.62495 3.18945 3.62495 3.18945 3.62495C3.18945 3.62495 3.18945 3.62495 3.18945 3.62495C3.18945 3.62495 3.18945 3.62495 3.18945 3.62495C3.18945 3.62495 3.18945 3.62495 3.18945 3.62495C3.18945 3.62495 3.18945 3.62495 3.18945 3.62495C3.18945 3.62494 3.18945 3.62494 3.18945 3.62494C3.18945 3.62494 3.18945 3.62494 3.18945 3.62494C3.18945 3.62494 3.18945 3.62494 3.18945 3.62494C3.18945 3.62494 3.18945 3.62494 3.18945 3.62494C3.18945 3.62494 3.18945 3.62494 3.18945 3.62494C3.18945 3.62494 3.18945 3.62494 3.18945 3.62494C3.18945 3.62494 3.18945 3.62494 3.18945 3.62494C3.18945 3.62494 3.18945 3.62494 3.18945 3.62493C3.18945 3.62493 3.18945 3.62493 3.18945 3.62493C3.18945 3.62493 3.18945 3.62493 3.18945 3.62493C3.18945 3.62493 3.18945 3.62493 3.18945 3.62493C3.18945 3.62493 3.18945 3.62493 3.18945 3.62493C3.18945 3.62493 3.18945 3.62493 3.18945 3.62493C3.18945 3.62493 3.18945 3.62493 3.18945 3.62493C3.18945 3.62493 3.18945 3.62493 3.18945 3.62493C3.18945 3.62493 3.18945 3.62492 3.18945 3.62492C3.18945 3.62492 3.18945 3.62492 3.18945 3.62492C3.18945 3.62492 3.18945 3.62492 3.18945 3.62492C3.18945 3.62492 3.18945 3.62492 3.18945 3.62492C3.18945 3.62492 3.18945 3.62492 3.18945 3.62492C3.18945 3.62492 3.18945 3.62492 3.18945 3.62492C3.18945 3.62492 3.18945 3.62492 3.18945 3.62492C3.18945 3.62492 3.18945 3.62492 3.18945 3.62492C3.18945 3.62491 3.18945 3.62491 3.18945 3.62491C3.18945 3.62491 3.18945 3.62491 3.18945 3.62491C3.18945 3.62491 3.18945 3.62491 3.18945 3.62491C3.18945 3.62491 3.18945 3.62491 3.18945 3.62491C3.18945 3.62491 3.18945 3.62491 3.18945 3.62491C3.18945 3.62491 3.18945 3.62491 3.18945 3.62491C3.18945 3.62491 3.18945 3.62491 3.18945 3.62491C3.18945 3.62491 3.18945 3.62491 3.18945 3.6249C3.18945 3.6249 3.18945 3.6249 3.18945 3.6249C3.18945 3.6249 3.18945 3.6249 3.18945 3.6249C3.18945 3.6249 3.18945 3.6249 3.18945 3.6249C3.18945 3.6249 3.18945 3.6249 3.18945 3.6249C3.18945 3.6249 3.18945 3.6249 3.18945 3.6249C3.18945 3.6249 3.18945 3.6249 3.18945 3.6249C3.18945 3.6249 3.18945 3.6249 3.18945 3.6249C3.18945 3.6249 3.18945 3.62489 3.18945 3.62489C3.18945 3.62489 3.18945 3.62489 3.18945 3.62489C3.18945 3.62489 3.18945 3.62489 3.18945 3.62489C3.18945 3.62489 3.18945 3.62489 3.18945 3.62489C3.18945 3.62489 3.18945 3.62489 3.18945 3.62489C3.18945 3.62489 3.18945 3.62489 3.18945 3.62489C3.18945 3.62489 3.18945 3.62489 3.18945 3.62489C3.18945 3.62489 3.18945 3.62489 3.18945 3.62489C3.18945 3.62488 3.18945 3.62488 3.18945 3.62488C3.18945 3.62488 3.18945 3.62488 3.18945 3.62488C3.18945 3.62488 3.18945 3.62488 3.18945 3.62488C3.18945 3.62488 3.18945 3.62488 3.18945 3.62488C3.18945 3.62488 3.18945 3.62488 3.18945 3.62488C3.18945 3.62488 3.18945 3.62488 3.18945 3.62488C3.18945 3.62488 3.18945 3.62488 3.18945 3.62488C3.18945 3.62488 3.18945 3.62488 3.18945 3.62487C3.18945 3.62487 3.18945 3.62487 3.18945 3.62487C3.18945 3.62487 3.18945 3.62487 3.18945 3.62487C3.18945 3.62487 3.18945 3.62487 3.18945 3.62487C3.18945 3.62487 3.18945 3.62487 3.18945 3.62487C3.18945 3.62487 3.18945 3.62487 3.18945 3.62487C3.18945 3.62487 3.18945 3.62487 3.18945 3.62487C3.18945 3.62487 3.18945 3.62487 3.18945 3.62487C3.18945 3.62487 3.18945 3.62487 3.18945 3.62486C3.18945 3.62486 3.18945 3.62486 3.18945 3.62486C3.18945 3.62486 3.18945 3.62486 3.18945 3.62486C3.18945 3.62486 3.18945 3.62486 3.18945 3.62486C3.18945 3.62486 3.18945 3.62486 3.18945 3.62486C3.18945 3.62486 3.18945 3.62486 3.18945 3.62486C3.18945 3.62486 3.18945 3.62486 3.18945 3.62486C3.18945 3.62486 3.18945 3.62486 3.18945 3.62486C3.18945 3.62486 3.18945 3.62485 3.18945 3.62485C3.18945 3.62485 3.18945 3.62485 3.18945 3.62485C3.18945 3.62485 3.18945 3.62485 3.18945 3.62485C3.18945 3.62485 3.18945 3.62485 3.18945 3.62485C3.18945 3.62485 3.18945 3.62485 3.18945 3.62485C3.18945 3.62485 3.18945 3.62485 3.18945 3.62485C3.18945 3.62485 3.18945 3.62485 3.18945 3.62485C3.18945 3.62485 3.18945 3.62485 3.18945 3.62485C3.18945 3.62484 3.18945 3.62484 3.18945 3.62484C3.18945 3.62484 3.18945 3.62484 3.18945 3.62484C3.18945 3.62484 3.18945 3.62484 3.18945 3.62484C3.18945 3.62484 3.18945 3.62484 3.18945 3.62484C3.18945 3.62484 3.18945 3.62484 3.18945 3.62484C3.18945 3.62484 3.18945 3.62484 3.18945 3.62484C3.18945 3.62484 3.18945 3.62484 3.18945 3.62484C3.18945 3.62484 3.18945 3.62484 3.18945 3.62483C3.18945 3.62483 3.18945 3.62483 3.18945 3.62483C3.18945 3.62483 3.18945 3.62483 3.18945 3.62483C3.18945 3.62483 3.18945 3.62483 3.18945 3.62483C3.18945 3.62483 3.18945 3.62483 3.18945 3.62483C3.18945 3.62483 3.18945 3.62483 3.18945 3.62483C3.18945 3.62483 3.18945 3.62483 3.18945 3.62483C3.18945 3.62483 3.18945 3.62483 3.18945 3.62483C3.18945 3.62483 3.18945 3.62482 3.18945 3.62482C3.18945 3.62482 3.18945 3.62482 3.18945 3.62482C3.18945 3.62482 3.18945 3.62482 3.18945 3.62482C3.18945 3.62482 3.18945 3.62482 3.18945 3.62482C3.18945 3.62482 3.18945 3.62482 3.18945 3.62482C3.18945 3.62482 3.18945 3.62482 3.18945 3.62482C3.18945 3.62482 3.18945 3.62482 3.18945 3.62482C3.18945 3.62482 3.18945 3.62482 3.18945 3.62482C3.18945 3.62481 3.18945 3.62481 3.18945 3.62481C3.18945 3.62481 3.18945 3.62481 3.18945 3.62481C3.18945 3.62481 3.18945 3.62481 3.18945 3.62481C3.18945 3.62481 3.18945 3.62481 3.18945 3.62481C3.18945 3.62481 3.18945 3.62481 3.18945 3.62481C3.18945 3.62481 3.18945 3.62481 3.18945 3.62481C3.18945 3.62481 3.18945 3.62481 3.18945 3.62481C3.18945 3.62481 3.18945 3.62481 3.18945 3.6248C3.18945 3.6248 3.18945 3.6248 3.18945 3.6248C3.18945 3.6248 3.18945 3.6248 3.18945 3.6248C3.18945 3.6248 3.18945 3.6248 3.18945 3.6248C3.18945 3.6248 3.18945 3.6248 3.18945 3.6248C3.18945 3.6248 3.18945 3.6248 3.18945 3.6248C3.18945 3.6248 3.18945 3.6248 3.18945 3.6248C3.18945 3.6248 3.18945 3.6248 3.18945 3.6248C3.18945 3.6248 3.18945 3.62479 3.18945 3.62479C3.18945 3.62479 3.18945 3.62479 3.18945 3.62479C3.18945 3.62479 3.18945 3.62479 3.18945 3.62479C3.18945 3.62479 3.18945 3.62479 3.18945 3.62479C3.18945 3.62479 3.18945 3.62479 3.18945 3.62479C3.18945 3.62479 3.18945 3.62479 3.18945 3.62479C3.18945 3.62479 3.18945 3.62479 3.18945 3.62479C3.18945 3.62479 3.18945 3.62479 3.18945 3.62479C3.18945 3.62478 3.18945 3.62478 3.18945 3.62478C3.18945 3.62478 3.18945 3.62478 3.18945 3.62478C3.18945 3.62478 3.18945 3.62478 3.18945 3.62478C3.18945 3.62478 3.18945 3.62478 3.18945 3.62478C3.18945 3.62478 3.18945 3.62478 3.18945 3.62478C3.18945 3.62478 3.18945 3.62478 3.18945 3.62478C3.18945 3.62478 3.18945 3.62478 3.18945 3.62478C3.18945 3.62478 3.18945 3.62478 3.18945 3.62477C3.18945 3.62477 3.18945 3.62477 3.18945 3.62477C3.18945 3.62477 3.18945 3.62477 3.18945 3.62477C3.18945 3.62477 3.18945 3.62477 3.18945 3.62477C3.18945 3.62477 3.18945 3.62477 3.18945 3.62477C3.18945 3.62477 3.18945 3.62477 3.18945 3.62477C3.18945 3.62477 3.18945 3.62477 3.18945 3.62477C3.18945 3.62477 3.18945 3.62477 3.18945 3.62477C3.18945 3.62477 3.18945 3.62476 3.18945 3.62476C3.18945 3.62476 3.18945 3.62476 3.18945 3.62476C3.18945 3.62476 3.18945 3.62476 3.18945 3.62476C3.18945 3.62476 3.18945 3.62476 3.18945 3.62476C3.18945 3.62476 3.18945 3.62476 3.18945 3.62476C3.18945 3.62476 3.18945 3.62476 3.18945 3.62476C3.18945 3.62476 3.18945 3.62476 3.18945 3.62476C3.18945 3.62476 3.18945 3.62476 3.18945 3.62476C3.18945 3.62475 3.18945 3.62475 3.18945 3.62475C3.18945 3.62475 3.18945 3.62475 3.18945 3.62475C3.18945 3.62475 3.18945 3.62475 3.18945 3.62475C3.18945 3.62475 3.18945 3.62475 3.18945 3.62475C3.18945 3.62475 3.18945 3.62475 3.18945 3.62475C3.18945 3.62475 3.18945 3.62475 3.18945 3.62475C3.18945 3.62475 3.18945 3.62475 3.18945 3.62475C3.18945 3.62475 3.18945 3.62475 3.18945 3.62474C3.18945 3.62474 3.18945 3.62474 3.18945 3.62474C3.18945 3.62474 3.18945 3.62474 3.18945 3.62474C3.18945 3.62474 3.18945 3.62474 3.18945 3.62474C3.18945 3.62474 3.18945 3.62474 3.18945 3.62474C3.18945 3.62474 3.18945 3.62474 3.18945 3.62474C3.18945 3.62474 3.18945 3.62474 3.18945 3.62474C3.18945 3.62474 3.18945 3.62474 3.18945 3.62474C3.18945 3.62474 3.18945 3.62473 3.18945 3.62473C3.18945 3.62473 3.18945 3.62473 3.18945 3.62473C3.18945 3.62473 3.18945 3.62473 3.18945 3.62473C3.18945 3.62473 3.18945 3.62473 3.18945 3.62473C3.18945 3.62473 3.18945 3.62473 3.18945 3.62473C3.18945 3.62473 3.18945 3.62473 3.18945 3.62473C3.18945 3.62473 3.18945 3.62473 3.18945 3.62473C3.18945 3.62473 3.18945 3.62473 3.18945 3.62473C3.18945 3.62472 3.18945 3.62472 3.18945 3.62472C3.18945 3.62472 3.18945 3.62472 3.18945 3.62472C3.18945 3.62472 3.18945 3.62472 3.18945 3.62472C3.18945 3.62472 3.18945 3.62472 3.18945 3.62472C3.18945 3.62472 3.18945 3.62472 3.18945 3.62472C3.18945 3.62472 3.18945 3.62472 3.18945 3.62472C3.18945 3.62472 3.18945 3.62472 3.18945 3.62472C3.18945 3.62472 3.18945 3.62472 3.18945 3.62471C3.18945 3.62471 3.18945 3.62471 3.18945 3.62471C3.18945 3.62471 3.18945 3.62471 3.18945 3.62471C3.18945 3.62471 3.18945 3.62471 3.18945 3.62471C3.18945 3.62471 3.18945 3.62471 3.18945 3.62471C3.18945 3.62471 3.18945 3.62471 3.18945 3.62471C3.18945 3.62471 3.18945 3.62471 3.18945 3.62471C3.18945 3.62471 3.18945 3.62471 3.18945 3.62471C3.18945 3.62471 3.18945 3.6247 3.18945 3.6247C3.18945 3.6247 3.18945 3.6247 3.18945 3.6247C3.18945 3.6247 3.18945 3.6247 3.18945 3.6247C3.18945 3.6247 3.18945 3.6247 3.18945 3.6247C3.18945 3.6247 3.18945 3.6247 3.18945 3.6247C3.18945 3.6247 3.18945 3.6247 3.18945 3.6247C3.18945 3.6247 3.18945 3.6247 3.18945 3.6247C3.18945 3.6247 3.18945 3.6247 3.18945 3.6247C3.18945 3.62469 3.18945 3.62469 3.18945 3.62469C3.18945 3.62469 3.18945 3.62469 3.18945 3.62469C3.18945 3.62469 3.18945 3.62469 3.18945 3.62469C3.18945 3.62469 3.18945 3.62469 3.18945 3.62469C3.18945 3.62469 3.18945 3.62469 3.18945 3.62469C3.18945 3.62469 3.18945 3.62469 3.18945 3.62469C3.18945 3.62469 3.18945 3.62469 3.18945 3.62469C3.18945 3.62469 3.18945 3.62469 3.18945 3.62468C3.18945 3.62468 3.18945 3.62468 3.18945 3.62468C3.18945 3.62468 3.18945 3.62468 3.18945 3.62468C3.18945 3.62468 3.18945 3.62468 3.18945 3.62468C3.18945 3.62468 3.18945 3.62468 3.18945 3.62468C3.18945 3.62468 3.18945 3.62468 3.18945 3.62468C3.18945 3.62468 3.18945 3.62468 3.18945 3.62468C3.18945 3.62468 3.18945 3.62468 3.18945 3.62468C3.18945 3.62468 3.18945 3.62467 3.18945 3.62467C3.18945 3.62467 3.18945 3.62467 3.18945 3.62467C3.18945 3.62467 3.18945 3.62467 3.18945 3.62467C3.18945 3.62467 3.18945 3.62467 3.18945 3.62467C3.18945 3.62467 3.18945 3.62467 3.18945 3.62467C3.18945 3.62467 3.18945 3.62467 3.18945 3.62467C3.18945 3.62467 3.18945 3.62467 3.18945 3.62467C3.18945 3.62467 3.18945 3.62467 3.18945 3.62467C3.18945 3.62466 3.18945 3.62466 3.18945 3.62466C3.18945 3.62466 3.18945 3.62466 3.18945 3.62466C3.18945 3.62466 3.18945 3.62466 3.18945 3.62466C3.18945 3.62466 3.18945 3.62466 3.18945 3.62466C3.18945 3.62466 3.18945 3.62466 3.18945 3.62466C3.18945 3.62466 3.18945 3.62466 3.18945 3.62466C3.18945 3.62466 3.18945 3.62466 3.18945 3.62466C3.18945 3.62466 3.18945 3.62466 3.18945 3.62465C3.18945 3.62465 3.18945 3.62465 3.18945 3.62465C3.18945 3.62465 3.18945 3.62465 3.18945 3.62465C3.18945 3.62465 3.18945 3.62465 3.18945 3.62465C3.18945 3.62465 3.18945 3.62465 3.18945 3.62465C3.18945 3.62465 3.18945 3.62465 3.18945 3.62465C3.18945 3.62465 3.18945 3.62465 3.18945 3.62465C3.18945 3.62465 3.18945 3.62465 3.18945 3.62465C3.18945 3.62465 3.18945 3.62464 3.18945 3.62464C3.18945 3.62464 3.18945 3.62464 3.18945 3.62464C3.18945 3.62464 3.18945 3.62464 3.18945 3.62464C3.18945 3.62464 3.18945 3.62464 3.18945 3.62464C3.18945 3.62464 3.18945 3.62464 3.18945 3.62464C3.18945 3.62464 3.18945 3.62464 3.18945 3.62464C3.18945 3.62464 3.18945 3.62464 3.18945 3.62464C3.18945 3.62464 3.18945 3.62464 3.18945 3.62464C3.18945 3.62463 3.18945 3.62463 3.18945 3.62463C3.18945 3.62463 3.18945 3.62463 3.18945 3.62463C3.18945 3.62463 3.18945 3.62463 3.18945 3.62463C3.18945 3.62463 3.18945 3.62463 3.18945 3.62463C3.18945 3.62463 3.18945 3.62463 3.18945 3.62463C3.18945 3.62463 3.18945 3.62463 3.18945 3.62463C3.18945 3.62463 3.18945 3.62463 3.18945 3.62463C3.18945 3.62463 3.18945 3.62463 3.18945 3.62462C3.18945 3.62462 3.18945 3.62462 3.18945 3.62462C3.18945 3.62462 3.18945 3.62462 3.18945 3.62462C3.18945 3.62462 3.18945 3.62462 3.18945 3.62462C3.18945 3.62462 3.18945 3.62462 3.18945 3.62462C3.18945 3.62462 3.18945 3.62462 3.18945 3.62462C3.18945 3.62462 3.18945 3.62462 3.18945 3.62462C3.18945 3.62462 3.18945 3.62462 3.18945 3.62462C3.18945 3.62462 3.18945 3.62461 3.18945 3.62461C3.18945 3.62461 3.18945 3.62461 3.18945 3.62461C3.18945 3.62461 3.18945 3.62461 3.18945 3.62461C3.18945 3.62461 3.18945 3.62461 3.18945 3.62461C3.18945 3.62461 3.18945 3.62461 3.18945 3.62461C3.18945 3.62461 3.18945 3.62461 3.18945 3.62461C3.18945 3.62461 3.18945 3.62461 3.18945 3.62461C3.18945 3.62461 3.18945 3.62461 3.18945 3.62461C3.18945 3.6246 3.18945 3.6246 3.18945 3.6246C3.18945 3.6246 3.18945 3.6246 3.18945 3.6246C3.18945 3.6246 3.18945 3.6246 3.18945 3.6246C3.18945 3.6246 3.18945 3.6246 3.18945 3.6246C3.18945 3.6246 3.18945 3.6246 3.18945 3.6246C3.18945 3.6246 3.18945 3.6246 3.18945 3.6246C3.18945 3.6246 3.18945 3.6246 3.18945 3.6246C3.18945 3.6246 3.18945 3.6246 3.18945 3.62459C3.18945 3.62459 3.18945 3.62459 3.18945 3.62459C3.18945 3.62459 3.18945 3.62459 3.18945 3.62459C3.18945 3.62459 3.18945 3.62459 3.18945 3.62459C3.18945 3.62459 3.18945 3.62459 3.18945 3.62459C3.18945 3.62459 3.18945 3.62459 3.18945 3.62459C3.18945 3.62459 3.18945 3.62459 3.18945 3.62459C3.18945 3.62459 3.18945 3.62459 3.18945 3.62459C3.18945 3.62459 3.18945 3.62458 3.18945 3.62458C3.18945 3.62458 3.18945 3.62458 3.18945 3.62458C3.18945 3.62458 3.18945 3.62458 3.18945 3.62458C3.18945 3.62458 3.18945 3.62458 3.18945 3.62458C3.18945 3.62458 3.18945 3.62458 3.18945 3.62458C3.18945 3.62458 3.18945 3.62458 3.18945 3.62458C3.18945 3.62458 3.18945 3.62458 3.18945 3.62458C3.18945 3.62458 3.18945 3.62458 3.18945 3.62458C3.18945 3.62457 3.18945 3.62457 3.18945 3.62457C3.18945 3.62457 3.18945 3.62457 3.18945 3.62457C3.18945 3.62457 3.18945 3.62457 3.18945 3.62457C3.18945 3.62457 3.18945 3.62457 3.18945 3.62457C3.18945 3.62457 3.18945 3.62457 3.18945 3.62457C3.18945 3.62457 3.18945 3.62457 3.18945 3.62457C3.18945 3.62457 3.18945 3.62457 3.18945 3.62457C3.18945 3.62457 3.18945 3.62457 3.18945 3.62456C3.18945 3.62456 3.18945 3.62456 3.18945 3.62456C3.18945 3.62456 3.18945 3.62456 3.18945 3.62456C3.18945 3.62456 3.18945 3.62456 3.18945 3.62456C3.18945 3.62456 3.18945 3.62456 3.18945 3.62456C3.18945 3.62456 3.18945 3.62456 3.18945 3.62456C3.18945 3.62456 3.18945 3.62456 3.18945 3.62456C3.18945 3.62456 3.18945 3.62456 3.18945 3.62456C3.18945 3.62456 3.18945 3.62455 3.18945 3.62455C3.18945 3.62455 3.18945 3.62455 3.18945 3.62455C3.18945 3.62455 3.18945 3.62455 3.18945 3.62455C3.18945 3.62455 3.18945 3.62455 3.18945 3.62455C3.18945 3.62455 3.18945 3.62455 3.18945 3.62455C3.18945 3.62455 3.18945 3.62455 3.18945 3.62455C3.18945 3.62455 3.18945 3.62455 3.18945 3.62455C3.18945 3.62455 3.18945 3.62455 3.18945 3.62455C3.18945 3.62454 3.18945 3.62454 3.18945 3.62454C3.18945 3.62454 3.18945 3.62454 3.18945 3.62454C3.18945 3.62454 3.18945 3.62454 3.18945 3.62454C3.18945 3.62454 3.18945 3.62454 3.18945 3.62454C3.18945 3.62454 3.18945 3.62454 3.18945 3.62454C3.18945 3.62454 3.18945 3.62454 3.18945 3.62454C3.18945 3.62454 3.18945 3.62454 3.18945 3.62454C3.18945 3.62454 3.18945 3.62454 3.18945 3.62454C3.18945 3.62453 3.18945 3.62453 3.18945 3.62453C3.18945 3.62453 3.18945 3.62453 3.18945 3.62453C3.18945 3.62453 3.18945 3.62453 3.18945 3.62453C3.18945 3.62453 3.18945 3.62453 3.18945 3.62453C3.18945 3.62453 3.18945 3.62453 3.18945 3.62453C3.18945 3.62453 3.18945 3.62453 3.18945 3.62453C3.18945 3.62453 3.18945 3.62453 3.18945 3.62453C3.18945 3.62453 3.18945 3.62453 3.18945 3.62452C3.18945 3.62452 3.18945 3.62452 3.18945 3.62452C3.18945 3.62452 3.18945 3.62452 3.18945 3.62452C3.18945 3.62452 3.18945 3.62452 3.18945 3.62452C3.18945 3.62452 3.18945 3.62452 3.18945 3.62452C3.18945 3.62452 3.18945 3.62452 3.18945 3.62452C3.18945 3.62452 3.18945 3.62452 3.18945 3.62452C3.18945 3.62452 3.18945 3.62452 3.18945 3.62452C3.18945 3.62452 3.18945 3.62451 3.18945 3.62451C3.18945 3.62451 3.18945 3.62451 3.18945 3.62451C3.18945 3.62451 3.18945 3.62451 3.18945 3.62451C3.18945 3.62451 3.18945 3.62451 3.18945 3.62451C3.18945 3.62451 3.18945 3.62451 3.18945 3.62451C3.18945 3.62451 3.18945 3.62451 3.18945 3.62451C3.18945 3.62451 3.18945 3.62451 3.18945 3.62451C3.18945 3.62451 3.18945 3.62451 3.18945 3.62451C3.18945 3.6245 3.18945 3.6245 3.18945 3.6245C3.18945 3.6245 3.18945 3.6245 3.18945 3.6245C3.18945 3.6245 3.18945 3.6245 3.18945 3.6245C3.18945 3.6245 3.18945 3.6245 3.18945 3.6245C3.18945 3.6245 3.18945 3.6245 3.18945 3.6245C3.18945 3.6245 3.18945 3.6245 3.18945 3.6245C3.18945 3.6245 3.18945 3.6245 3.18945 3.6245C3.18945 3.6245 3.18945 3.6245 3.18945 3.62449C3.18945 3.62449 3.18945 3.62449 3.18945 3.62449C3.18945 3.62449 3.18945 3.62449 3.18945 3.62449C3.18945 3.62449 3.18945 3.62449 3.18945 3.62449C3.18945 3.62449 3.18945 3.62449 3.18945 3.62449C3.18945 3.62449 3.18945 3.62449 3.18945 3.62449C3.18945 3.62449 3.18945 3.62449 3.18945 3.62449C3.18945 3.62449 3.18945 3.62449 3.18945 3.62449C3.18945 3.62449 3.18945 3.62448 3.18945 3.62448C3.18945 3.62448 3.18945 3.62448 3.18945 3.62448C3.18945 3.62448 3.18945 3.62448 3.18945 3.62448C3.18945 3.62448 3.18945 3.62448 3.18945 3.62448C3.18945 3.62448 3.18945 3.62448 3.18945 3.62448C3.18945 3.62448 3.18945 3.62448 3.18945 3.62448C3.18945 3.62448 3.18945 3.62448 3.18945 3.62448C3.18945 3.62448 3.18945 3.62448 3.18945 3.62448C3.18945 3.62447 3.18945 3.62447 3.18945 3.62447C3.18945 3.62447 3.18945 3.62447 3.18945 3.62447C3.18945 3.62447 3.18945 3.62447 3.18945 3.62447C3.18945 3.62447 3.18945 3.62447 3.18945 3.62447C3.18945 3.62447 3.18945 3.62447 3.18945 3.62447C3.18945 3.62447 3.18945 3.62447 3.18945 3.62447C3.18945 3.62447 3.18945 3.62447 3.18945 3.62447C3.18945 3.62447 3.18945 3.62447 3.18945 3.62446C3.18945 3.62446 3.18945 3.62446 3.18945 3.62446C3.18945 3.62446 3.18945 3.62446 3.18945 3.62446C3.18945 3.62446 3.18945 3.62446 3.18945 3.62446C3.18945 3.62446 3.18945 3.62446 3.18945 3.62446C3.18945 3.62446 3.18945 3.62446 3.18945 3.62446C3.18945 3.62446 3.18945 3.62446 3.18945 3.62446C3.18945 3.62446 3.18945 3.62446 3.18945 3.62446C3.18945 3.62446 3.18945 3.62445 3.18945 3.62445C3.18945 3.62445 3.18945 3.62445 3.18945 3.62445C3.18945 3.62445 3.18945 3.62445 3.18945 3.62445C3.18945 3.62445 3.18945 3.62445 3.18945 3.62445C3.18945 3.62445 3.18945 3.62445 3.18945 3.62445C3.18945 3.62445 3.18945 3.62445 3.18945 3.62445C3.18945 3.62445 3.18945 3.62445 3.18945 3.62445C3.18945 3.62445 3.18945 3.62445 3.18945 3.62445C3.18945 3.62444 3.18945 3.62444 3.18945 3.62444C3.18945 3.62444 3.18945 3.62444 3.18945 3.62444C3.18945 3.62444 3.18945 3.62444 3.18945 3.62444C3.18945 3.62444 3.18945 3.62444 3.18945 3.62444C3.18945 3.62444 3.18945 3.62444 3.18945 3.62444C3.18945 3.62444 3.18945 3.62444 3.18945 3.62444C3.18945 3.62444 3.18945 3.62444 3.18945 3.62444C3.18945 3.62444 3.18945 3.62444 3.18945 3.62443C3.18945 3.62443 3.18945 3.62443 3.18945 3.62443C3.18945 3.62443 3.18945 3.62443 3.18945 3.62443C3.18945 3.62443 3.18945 3.62443 3.18945 3.62443C3.18945 3.62443 3.18945 3.62443 3.18945 3.62443C3.18945 3.62443 3.18945 3.62443 3.18945 3.62443C3.18945 3.62443 3.18945 3.62443 3.18945 3.62443C3.18945 3.62443 3.18945 3.62443 3.18945 3.62443C3.18945 3.62443 3.18945 3.62442 3.18945 3.62442C3.18945 3.62442 3.18945 3.62442 3.18945 3.62442C3.18945 3.62442 3.18945 3.62442 3.18945 3.62442C3.18945 3.62442 3.18945 3.62442 3.18945 3.62442C3.18945 3.62442 3.18945 3.62442 3.18945 3.62442C3.18945 3.62442 3.18945 3.62442 3.18945 3.62442C3.18945 3.62442 3.18945 3.62442 3.18945 3.62442C3.18945 3.62442 3.18945 3.62442 3.18945 3.62442C3.18945 3.62441 3.18945 3.62441 3.18945 3.62441C3.18945 3.62441 3.18945 3.62441 3.18945 3.62441C3.18945 3.62441 3.18945 3.62441 3.18945 3.62441C3.18945 3.62441 3.18945 3.62441 3.18945 3.62441C3.18945 3.62441 3.18945 3.62441 3.18945 3.62441C3.18945 3.62441 3.18945 3.62441 3.18945 3.62441C3.18945 3.62441 3.18945 3.62441 3.18945 3.62441C3.18945 3.62441 3.18945 3.62441 3.18945 3.6244C3.18945 3.6244 3.18945 3.6244 3.18945 3.6244C3.18945 3.6244 3.18945 3.6244 3.18945 3.6244C3.18945 3.6244 3.18945 3.6244 3.18945 3.6244C3.18945 3.6244 3.18945 3.6244 3.18945 3.6244C3.18945 3.6244 3.18945 3.6244 3.18945 3.6244C3.18945 3.6244 3.18945 3.6244 3.18945 3.6244C3.18945 3.6244 3.18945 3.6244 3.18945 3.6244C3.18945 3.6244 3.18945 3.62439 3.18945 3.62439C3.18945 3.62439 3.18945 3.62439 3.18945 3.62439C3.18945 3.62439 3.18945 3.62439 3.18945 3.62439C3.18945 3.62439 3.18945 3.62439 3.18945 3.62439C3.18945 3.62439 3.18945 3.62439 3.18945 3.62439C3.18945 3.62439 3.18945 3.62439 3.18945 3.62439C3.18945 3.62439 3.18945 3.62439 3.18945 3.62439C3.18945 3.62439 3.18945 3.62439 3.18945 3.62439C3.18945 3.62438 3.18945 3.62438 3.18945 3.62438C3.18945 3.62438 3.18945 3.62438 3.18945 3.62438C3.18945 3.62438 3.18945 3.62438 3.18945 3.62438C3.18945 3.62438 3.18945 3.62438 3.18945 3.62438C3.18945 3.62438 3.18945 3.62438 3.18945 3.62438C3.18945 3.62438 3.18945 3.62438 3.18945 3.62438C3.18945 3.62438 3.18945 3.62438 3.18945 3.62438C3.18945 3.62438 3.18945 3.62438 3.18945 3.62437C3.18945 3.62437 3.18945 3.62437 3.18945 3.62437C3.18945 3.62437 3.18945 3.62437 3.18945 3.62437C3.18945 3.62437 3.18945 3.62437 3.18945 3.62437C3.18945 3.62437 3.18945 3.62437 3.18945 3.62437C3.18945 3.62437 3.18945 3.62437 3.18945 3.62437C3.18945 3.62437 3.18945 3.62437 3.18945 3.62437C3.18945 3.62437 3.18945 3.62437 3.18945 3.62437C3.18945 3.62437 3.18945 3.62436 3.18945 3.62436C3.18945 3.62436 3.18945 3.62436 3.18945 3.62436C3.18945 3.62436 3.18945 3.62436 3.18945 3.62436C3.18945 3.62436 3.18945 3.62436 3.18945 3.62436C3.18945 3.62436 3.18945 3.62436 3.18945 3.62436C3.18945 3.62436 3.18945 3.62436 3.18945 3.62436C3.18945 3.62436 3.18945 3.62436 3.18945 3.62436C3.18945 3.62436 3.18945 3.62436 3.18945 3.62436C3.18945 3.62435 3.18945 3.62435 3.18945 3.62435C3.18945 3.62435 3.18945 3.62435 3.18945 3.62435C3.18945 3.62435 3.18945 3.62435 3.18945 3.62435C3.18945 3.62435 3.18945 3.62435 3.18945 3.62435C3.18945 3.62435 3.18945 3.62435 3.18945 3.62435C3.18945 3.62435 3.18945 3.62435 3.18945 3.62435C3.18945 3.62435 3.18945 3.62435 3.18945 3.62435C3.18945 3.62435 3.18945 3.62435 3.18945 3.62434C3.18945 3.62434 3.18945 3.62434 3.18945 3.62434C3.18945 3.62434 3.18945 3.62434 3.18945 3.62434C3.18945 3.62434 3.18945 3.62434 3.18945 3.62434C3.18945 3.62434 3.18945 3.62434 3.18945 3.62434C3.18945 3.62434 3.18945 3.62434 3.18945 3.62434C3.18945 3.62434 3.18945 3.62434 3.18945 3.62434C3.18945 3.62434 3.18945 3.62434 3.18945 3.62434C3.18945 3.62434 3.18945 3.62433 3.18945 3.62433C3.18945 3.62433 3.18945 3.62433 3.18945 3.62433H1.68945C1.68945 3.62433 1.68945 3.62433 1.68945 3.62433C1.68945 3.62433 1.68945 3.62434 1.68945 3.62434C1.68945 3.62434 1.68945 3.62434 1.68945 3.62434C1.68945 3.62434 1.68945 3.62434 1.68945 3.62434C1.68945 3.62434 1.68945 3.62434 1.68945 3.62434C1.68945 3.62434 1.68945 3.62434 1.68945 3.62434C1.68945 3.62434 1.68945 3.62434 1.68945 3.62434C1.68945 3.62434 1.68945 3.62434 1.68945 3.62434C1.68945 3.62434 1.68945 3.62434 1.68945 3.62434C1.68945 3.62435 1.68945 3.62435 1.68945 3.62435C1.68945 3.62435 1.68945 3.62435 1.68945 3.62435C1.68945 3.62435 1.68945 3.62435 1.68945 3.62435C1.68945 3.62435 1.68945 3.62435 1.68945 3.62435C1.68945 3.62435 1.68945 3.62435 1.68945 3.62435C1.68945 3.62435 1.68945 3.62435 1.68945 3.62435C1.68945 3.62435 1.68945 3.62435 1.68945 3.62435C1.68945 3.62435 1.68945 3.62435 1.68945 3.62436C1.68945 3.62436 1.68945 3.62436 1.68945 3.62436C1.68945 3.62436 1.68945 3.62436 1.68945 3.62436C1.68945 3.62436 1.68945 3.62436 1.68945 3.62436C1.68945 3.62436 1.68945 3.62436 1.68945 3.62436C1.68945 3.62436 1.68945 3.62436 1.68945 3.62436C1.68945 3.62436 1.68945 3.62436 1.68945 3.62436C1.68945 3.62436 1.68945 3.62436 1.68945 3.62436C1.68945 3.62436 1.68945 3.62437 1.68945 3.62437C1.68945 3.62437 1.68945 3.62437 1.68945 3.62437C1.68945 3.62437 1.68945 3.62437 1.68945 3.62437C1.68945 3.62437 1.68945 3.62437 1.68945 3.62437C1.68945 3.62437 1.68945 3.62437 1.68945 3.62437C1.68945 3.62437 1.68945 3.62437 1.68945 3.62437C1.68945 3.62437 1.68945 3.62437 1.68945 3.62437C1.68945 3.62437 1.68945 3.62437 1.68945 3.62437C1.68945 3.62438 1.68945 3.62438 1.68945 3.62438C1.68945 3.62438 1.68945 3.62438 1.68945 3.62438C1.68945 3.62438 1.68945 3.62438 1.68945 3.62438C1.68945 3.62438 1.68945 3.62438 1.68945 3.62438C1.68945 3.62438 1.68945 3.62438 1.68945 3.62438C1.68945 3.62438 1.68945 3.62438 1.68945 3.62438C1.68945 3.62438 1.68945 3.62438 1.68945 3.62438C1.68945 3.62438 1.68945 3.62438 1.68945 3.62439C1.68945 3.62439 1.68945 3.62439 1.68945 3.62439C1.68945 3.62439 1.68945 3.62439 1.68945 3.62439C1.68945 3.62439 1.68945 3.62439 1.68945 3.62439C1.68945 3.62439 1.68945 3.62439 1.68945 3.62439C1.68945 3.62439 1.68945 3.62439 1.68945 3.62439C1.68945 3.62439 1.68945 3.62439 1.68945 3.62439C1.68945 3.62439 1.68945 3.62439 1.68945 3.62439C1.68945 3.62439 1.68945 3.6244 1.68945 3.6244C1.68945 3.6244 1.68945 3.6244 1.68945 3.6244C1.68945 3.6244 1.68945 3.6244 1.68945 3.6244C1.68945 3.6244 1.68945 3.6244 1.68945 3.6244C1.68945 3.6244 1.68945 3.6244 1.68945 3.6244C1.68945 3.6244 1.68945 3.6244 1.68945 3.6244C1.68945 3.6244 1.68945 3.6244 1.68945 3.6244C1.68945 3.6244 1.68945 3.6244 1.68945 3.6244C1.68945 3.62441 1.68945 3.62441 1.68945 3.62441C1.68945 3.62441 1.68945 3.62441 1.68945 3.62441C1.68945 3.62441 1.68945 3.62441 1.68945 3.62441C1.68945 3.62441 1.68945 3.62441 1.68945 3.62441C1.68945 3.62441 1.68945 3.62441 1.68945 3.62441C1.68945 3.62441 1.68945 3.62441 1.68945 3.62441C1.68945 3.62441 1.68945 3.62441 1.68945 3.62441C1.68945 3.62441 1.68945 3.62441 1.68945 3.62442C1.68945 3.62442 1.68945 3.62442 1.68945 3.62442C1.68945 3.62442 1.68945 3.62442 1.68945 3.62442C1.68945 3.62442 1.68945 3.62442 1.68945 3.62442C1.68945 3.62442 1.68945 3.62442 1.68945 3.62442C1.68945 3.62442 1.68945 3.62442 1.68945 3.62442C1.68945 3.62442 1.68945 3.62442 1.68945 3.62442C1.68945 3.62442 1.68945 3.62442 1.68945 3.62442C1.68945 3.62442 1.68945 3.62443 1.68945 3.62443C1.68945 3.62443 1.68945 3.62443 1.68945 3.62443C1.68945 3.62443 1.68945 3.62443 1.68945 3.62443C1.68945 3.62443 1.68945 3.62443 1.68945 3.62443C1.68945 3.62443 1.68945 3.62443 1.68945 3.62443C1.68945 3.62443 1.68945 3.62443 1.68945 3.62443C1.68945 3.62443 1.68945 3.62443 1.68945 3.62443C1.68945 3.62443 1.68945 3.62443 1.68945 3.62443C1.68945 3.62444 1.68945 3.62444 1.68945 3.62444C1.68945 3.62444 1.68945 3.62444 1.68945 3.62444C1.68945 3.62444 1.68945 3.62444 1.68945 3.62444C1.68945 3.62444 1.68945 3.62444 1.68945 3.62444C1.68945 3.62444 1.68945 3.62444 1.68945 3.62444C1.68945 3.62444 1.68945 3.62444 1.68945 3.62444C1.68945 3.62444 1.68945 3.62444 1.68945 3.62444C1.68945 3.62444 1.68945 3.62444 1.68945 3.62445C1.68945 3.62445 1.68945 3.62445 1.68945 3.62445C1.68945 3.62445 1.68945 3.62445 1.68945 3.62445C1.68945 3.62445 1.68945 3.62445 1.68945 3.62445C1.68945 3.62445 1.68945 3.62445 1.68945 3.62445C1.68945 3.62445 1.68945 3.62445 1.68945 3.62445C1.68945 3.62445 1.68945 3.62445 1.68945 3.62445C1.68945 3.62445 1.68945 3.62445 1.68945 3.62445C1.68945 3.62445 1.68945 3.62446 1.68945 3.62446C1.68945 3.62446 1.68945 3.62446 1.68945 3.62446C1.68945 3.62446 1.68945 3.62446 1.68945 3.62446C1.68945 3.62446 1.68945 3.62446 1.68945 3.62446C1.68945 3.62446 1.68945 3.62446 1.68945 3.62446C1.68945 3.62446 1.68945 3.62446 1.68945 3.62446C1.68945 3.62446 1.68945 3.62446 1.68945 3.62446C1.68945 3.62446 1.68945 3.62446 1.68945 3.62446C1.68945 3.62447 1.68945 3.62447 1.68945 3.62447C1.68945 3.62447 1.68945 3.62447 1.68945 3.62447C1.68945 3.62447 1.68945 3.62447 1.68945 3.62447C1.68945 3.62447 1.68945 3.62447 1.68945 3.62447C1.68945 3.62447 1.68945 3.62447 1.68945 3.62447C1.68945 3.62447 1.68945 3.62447 1.68945 3.62447C1.68945 3.62447 1.68945 3.62447 1.68945 3.62447C1.68945 3.62447 1.68945 3.62447 1.68945 3.62448C1.68945 3.62448 1.68945 3.62448 1.68945 3.62448C1.68945 3.62448 1.68945 3.62448 1.68945 3.62448C1.68945 3.62448 1.68945 3.62448 1.68945 3.62448C1.68945 3.62448 1.68945 3.62448 1.68945 3.62448C1.68945 3.62448 1.68945 3.62448 1.68945 3.62448C1.68945 3.62448 1.68945 3.62448 1.68945 3.62448C1.68945 3.62448 1.68945 3.62448 1.68945 3.62448C1.68945 3.62448 1.68945 3.62449 1.68945 3.62449C1.68945 3.62449 1.68945 3.62449 1.68945 3.62449C1.68945 3.62449 1.68945 3.62449 1.68945 3.62449C1.68945 3.62449 1.68945 3.62449 1.68945 3.62449C1.68945 3.62449 1.68945 3.62449 1.68945 3.62449C1.68945 3.62449 1.68945 3.62449 1.68945 3.62449C1.68945 3.62449 1.68945 3.62449 1.68945 3.62449C1.68945 3.62449 1.68945 3.62449 1.68945 3.62449C1.68945 3.6245 1.68945 3.6245 1.68945 3.6245C1.68945 3.6245 1.68945 3.6245 1.68945 3.6245C1.68945 3.6245 1.68945 3.6245 1.68945 3.6245C1.68945 3.6245 1.68945 3.6245 1.68945 3.6245C1.68945 3.6245 1.68945 3.6245 1.68945 3.6245C1.68945 3.6245 1.68945 3.6245 1.68945 3.6245C1.68945 3.6245 1.68945 3.6245 1.68945 3.6245C1.68945 3.6245 1.68945 3.6245 1.68945 3.62451C1.68945 3.62451 1.68945 3.62451 1.68945 3.62451C1.68945 3.62451 1.68945 3.62451 1.68945 3.62451C1.68945 3.62451 1.68945 3.62451 1.68945 3.62451C1.68945 3.62451 1.68945 3.62451 1.68945 3.62451C1.68945 3.62451 1.68945 3.62451 1.68945 3.62451C1.68945 3.62451 1.68945 3.62451 1.68945 3.62451C1.68945 3.62451 1.68945 3.62451 1.68945 3.62451C1.68945 3.62451 1.68945 3.62452 1.68945 3.62452C1.68945 3.62452 1.68945 3.62452 1.68945 3.62452C1.68945 3.62452 1.68945 3.62452 1.68945 3.62452C1.68945 3.62452 1.68945 3.62452 1.68945 3.62452C1.68945 3.62452 1.68945 3.62452 1.68945 3.62452C1.68945 3.62452 1.68945 3.62452 1.68945 3.62452C1.68945 3.62452 1.68945 3.62452 1.68945 3.62452C1.68945 3.62452 1.68945 3.62452 1.68945 3.62452C1.68945 3.62453 1.68945 3.62453 1.68945 3.62453C1.68945 3.62453 1.68945 3.62453 1.68945 3.62453C1.68945 3.62453 1.68945 3.62453 1.68945 3.62453C1.68945 3.62453 1.68945 3.62453 1.68945 3.62453C1.68945 3.62453 1.68945 3.62453 1.68945 3.62453C1.68945 3.62453 1.68945 3.62453 1.68945 3.62453C1.68945 3.62453 1.68945 3.62453 1.68945 3.62453C1.68945 3.62453 1.68945 3.62453 1.68945 3.62454C1.68945 3.62454 1.68945 3.62454 1.68945 3.62454C1.68945 3.62454 1.68945 3.62454 1.68945 3.62454C1.68945 3.62454 1.68945 3.62454 1.68945 3.62454C1.68945 3.62454 1.68945 3.62454 1.68945 3.62454C1.68945 3.62454 1.68945 3.62454 1.68945 3.62454C1.68945 3.62454 1.68945 3.62454 1.68945 3.62454C1.68945 3.62454 1.68945 3.62454 1.68945 3.62454C1.68945 3.62454 1.68945 3.62454 1.68945 3.62455C1.68945 3.62455 1.68945 3.62455 1.68945 3.62455C1.68945 3.62455 1.68945 3.62455 1.68945 3.62455C1.68945 3.62455 1.68945 3.62455 1.68945 3.62455C1.68945 3.62455 1.68945 3.62455 1.68945 3.62455C1.68945 3.62455 1.68945 3.62455 1.68945 3.62455C1.68945 3.62455 1.68945 3.62455 1.68945 3.62455C1.68945 3.62455 1.68945 3.62455 1.68945 3.62455C1.68945 3.62455 1.68945 3.62456 1.68945 3.62456C1.68945 3.62456 1.68945 3.62456 1.68945 3.62456C1.68945 3.62456 1.68945 3.62456 1.68945 3.62456C1.68945 3.62456 1.68945 3.62456 1.68945 3.62456C1.68945 3.62456 1.68945 3.62456 1.68945 3.62456C1.68945 3.62456 1.68945 3.62456 1.68945 3.62456C1.68945 3.62456 1.68945 3.62456 1.68945 3.62456C1.68945 3.62456 1.68945 3.62456 1.68945 3.62456C1.68945 3.62457 1.68945 3.62457 1.68945 3.62457C1.68945 3.62457 1.68945 3.62457 1.68945 3.62457C1.68945 3.62457 1.68945 3.62457 1.68945 3.62457C1.68945 3.62457 1.68945 3.62457 1.68945 3.62457C1.68945 3.62457 1.68945 3.62457 1.68945 3.62457C1.68945 3.62457 1.68945 3.62457 1.68945 3.62457C1.68945 3.62457 1.68945 3.62457 1.68945 3.62457C1.68945 3.62457 1.68945 3.62457 1.68945 3.62458C1.68945 3.62458 1.68945 3.62458 1.68945 3.62458C1.68945 3.62458 1.68945 3.62458 1.68945 3.62458C1.68945 3.62458 1.68945 3.62458 1.68945 3.62458C1.68945 3.62458 1.68945 3.62458 1.68945 3.62458C1.68945 3.62458 1.68945 3.62458 1.68945 3.62458C1.68945 3.62458 1.68945 3.62458 1.68945 3.62458C1.68945 3.62458 1.68945 3.62458 1.68945 3.62458C1.68945 3.62458 1.68945 3.62459 1.68945 3.62459C1.68945 3.62459 1.68945 3.62459 1.68945 3.62459C1.68945 3.62459 1.68945 3.62459 1.68945 3.62459C1.68945 3.62459 1.68945 3.62459 1.68945 3.62459C1.68945 3.62459 1.68945 3.62459 1.68945 3.62459C1.68945 3.62459 1.68945 3.62459 1.68945 3.62459C1.68945 3.62459 1.68945 3.62459 1.68945 3.62459C1.68945 3.62459 1.68945 3.62459 1.68945 3.62459C1.68945 3.6246 1.68945 3.6246 1.68945 3.6246C1.68945 3.6246 1.68945 3.6246 1.68945 3.6246C1.68945 3.6246 1.68945 3.6246 1.68945 3.6246C1.68945 3.6246 1.68945 3.6246 1.68945 3.6246C1.68945 3.6246 1.68945 3.6246 1.68945 3.6246C1.68945 3.6246 1.68945 3.6246 1.68945 3.6246C1.68945 3.6246 1.68945 3.6246 1.68945 3.6246C1.68945 3.6246 1.68945 3.6246 1.68945 3.62461C1.68945 3.62461 1.68945 3.62461 1.68945 3.62461C1.68945 3.62461 1.68945 3.62461 1.68945 3.62461C1.68945 3.62461 1.68945 3.62461 1.68945 3.62461C1.68945 3.62461 1.68945 3.62461 1.68945 3.62461C1.68945 3.62461 1.68945 3.62461 1.68945 3.62461C1.68945 3.62461 1.68945 3.62461 1.68945 3.62461C1.68945 3.62461 1.68945 3.62461 1.68945 3.62461C1.68945 3.62461 1.68945 3.62462 1.68945 3.62462C1.68945 3.62462 1.68945 3.62462 1.68945 3.62462C1.68945 3.62462 1.68945 3.62462 1.68945 3.62462C1.68945 3.62462 1.68945 3.62462 1.68945 3.62462C1.68945 3.62462 1.68945 3.62462 1.68945 3.62462C1.68945 3.62462 1.68945 3.62462 1.68945 3.62462C1.68945 3.62462 1.68945 3.62462 1.68945 3.62462C1.68945 3.62462 1.68945 3.62462 1.68945 3.62462C1.68945 3.62463 1.68945 3.62463 1.68945 3.62463C1.68945 3.62463 1.68945 3.62463 1.68945 3.62463C1.68945 3.62463 1.68945 3.62463 1.68945 3.62463C1.68945 3.62463 1.68945 3.62463 1.68945 3.62463C1.68945 3.62463 1.68945 3.62463 1.68945 3.62463C1.68945 3.62463 1.68945 3.62463 1.68945 3.62463C1.68945 3.62463 1.68945 3.62463 1.68945 3.62463C1.68945 3.62463 1.68945 3.62463 1.68945 3.62464C1.68945 3.62464 1.68945 3.62464 1.68945 3.62464C1.68945 3.62464 1.68945 3.62464 1.68945 3.62464C1.68945 3.62464 1.68945 3.62464 1.68945 3.62464C1.68945 3.62464 1.68945 3.62464 1.68945 3.62464C1.68945 3.62464 1.68945 3.62464 1.68945 3.62464C1.68945 3.62464 1.68945 3.62464 1.68945 3.62464C1.68945 3.62464 1.68945 3.62464 1.68945 3.62464C1.68945 3.62464 1.68945 3.62465 1.68945 3.62465C1.68945 3.62465 1.68945 3.62465 1.68945 3.62465C1.68945 3.62465 1.68945 3.62465 1.68945 3.62465C1.68945 3.62465 1.68945 3.62465 1.68945 3.62465C1.68945 3.62465 1.68945 3.62465 1.68945 3.62465C1.68945 3.62465 1.68945 3.62465 1.68945 3.62465C1.68945 3.62465 1.68945 3.62465 1.68945 3.62465C1.68945 3.62465 1.68945 3.62465 1.68945 3.62465C1.68945 3.62466 1.68945 3.62466 1.68945 3.62466C1.68945 3.62466 1.68945 3.62466 1.68945 3.62466C1.68945 3.62466 1.68945 3.62466 1.68945 3.62466C1.68945 3.62466 1.68945 3.62466 1.68945 3.62466C1.68945 3.62466 1.68945 3.62466 1.68945 3.62466C1.68945 3.62466 1.68945 3.62466 1.68945 3.62466C1.68945 3.62466 1.68945 3.62466 1.68945 3.62466C1.68945 3.62466 1.68945 3.62466 1.68945 3.62467C1.68945 3.62467 1.68945 3.62467 1.68945 3.62467C1.68945 3.62467 1.68945 3.62467 1.68945 3.62467C1.68945 3.62467 1.68945 3.62467 1.68945 3.62467C1.68945 3.62467 1.68945 3.62467 1.68945 3.62467C1.68945 3.62467 1.68945 3.62467 1.68945 3.62467C1.68945 3.62467 1.68945 3.62467 1.68945 3.62467C1.68945 3.62467 1.68945 3.62467 1.68945 3.62467C1.68945 3.62467 1.68945 3.62468 1.68945 3.62468C1.68945 3.62468 1.68945 3.62468 1.68945 3.62468C1.68945 3.62468 1.68945 3.62468 1.68945 3.62468C1.68945 3.62468 1.68945 3.62468 1.68945 3.62468C1.68945 3.62468 1.68945 3.62468 1.68945 3.62468C1.68945 3.62468 1.68945 3.62468 1.68945 3.62468C1.68945 3.62468 1.68945 3.62468 1.68945 3.62468C1.68945 3.62468 1.68945 3.62468 1.68945 3.62468C1.68945 3.62469 1.68945 3.62469 1.68945 3.62469C1.68945 3.62469 1.68945 3.62469 1.68945 3.62469C1.68945 3.62469 1.68945 3.62469 1.68945 3.62469C1.68945 3.62469 1.68945 3.62469 1.68945 3.62469C1.68945 3.62469 1.68945 3.62469 1.68945 3.62469C1.68945 3.62469 1.68945 3.62469 1.68945 3.62469C1.68945 3.62469 1.68945 3.62469 1.68945 3.62469C1.68945 3.62469 1.68945 3.62469 1.68945 3.6247C1.68945 3.6247 1.68945 3.6247 1.68945 3.6247C1.68945 3.6247 1.68945 3.6247 1.68945 3.6247C1.68945 3.6247 1.68945 3.6247 1.68945 3.6247C1.68945 3.6247 1.68945 3.6247 1.68945 3.6247C1.68945 3.6247 1.68945 3.6247 1.68945 3.6247C1.68945 3.6247 1.68945 3.6247 1.68945 3.6247C1.68945 3.6247 1.68945 3.6247 1.68945 3.6247C1.68945 3.6247 1.68945 3.62471 1.68945 3.62471C1.68945 3.62471 1.68945 3.62471 1.68945 3.62471C1.68945 3.62471 1.68945 3.62471 1.68945 3.62471C1.68945 3.62471 1.68945 3.62471 1.68945 3.62471C1.68945 3.62471 1.68945 3.62471 1.68945 3.62471C1.68945 3.62471 1.68945 3.62471 1.68945 3.62471C1.68945 3.62471 1.68945 3.62471 1.68945 3.62471C1.68945 3.62471 1.68945 3.62471 1.68945 3.62471C1.68945 3.62472 1.68945 3.62472 1.68945 3.62472C1.68945 3.62472 1.68945 3.62472 1.68945 3.62472C1.68945 3.62472 1.68945 3.62472 1.68945 3.62472C1.68945 3.62472 1.68945 3.62472 1.68945 3.62472C1.68945 3.62472 1.68945 3.62472 1.68945 3.62472C1.68945 3.62472 1.68945 3.62472 1.68945 3.62472C1.68945 3.62472 1.68945 3.62472 1.68945 3.62472C1.68945 3.62472 1.68945 3.62472 1.68945 3.62473C1.68945 3.62473 1.68945 3.62473 1.68945 3.62473C1.68945 3.62473 1.68945 3.62473 1.68945 3.62473C1.68945 3.62473 1.68945 3.62473 1.68945 3.62473C1.68945 3.62473 1.68945 3.62473 1.68945 3.62473C1.68945 3.62473 1.68945 3.62473 1.68945 3.62473C1.68945 3.62473 1.68945 3.62473 1.68945 3.62473C1.68945 3.62473 1.68945 3.62473 1.68945 3.62473C1.68945 3.62473 1.68945 3.62474 1.68945 3.62474C1.68945 3.62474 1.68945 3.62474 1.68945 3.62474C1.68945 3.62474 1.68945 3.62474 1.68945 3.62474C1.68945 3.62474 1.68945 3.62474 1.68945 3.62474C1.68945 3.62474 1.68945 3.62474 1.68945 3.62474C1.68945 3.62474 1.68945 3.62474 1.68945 3.62474C1.68945 3.62474 1.68945 3.62474 1.68945 3.62474C1.68945 3.62474 1.68945 3.62474 1.68945 3.62474C1.68945 3.62475 1.68945 3.62475 1.68945 3.62475C1.68945 3.62475 1.68945 3.62475 1.68945 3.62475C1.68945 3.62475 1.68945 3.62475 1.68945 3.62475C1.68945 3.62475 1.68945 3.62475 1.68945 3.62475C1.68945 3.62475 1.68945 3.62475 1.68945 3.62475C1.68945 3.62475 1.68945 3.62475 1.68945 3.62475C1.68945 3.62475 1.68945 3.62475 1.68945 3.62475C1.68945 3.62475 1.68945 3.62475 1.68945 3.62476C1.68945 3.62476 1.68945 3.62476 1.68945 3.62476C1.68945 3.62476 1.68945 3.62476 1.68945 3.62476C1.68945 3.62476 1.68945 3.62476 1.68945 3.62476C1.68945 3.62476 1.68945 3.62476 1.68945 3.62476C1.68945 3.62476 1.68945 3.62476 1.68945 3.62476C1.68945 3.62476 1.68945 3.62476 1.68945 3.62476C1.68945 3.62476 1.68945 3.62476 1.68945 3.62476C1.68945 3.62476 1.68945 3.62477 1.68945 3.62477C1.68945 3.62477 1.68945 3.62477 1.68945 3.62477C1.68945 3.62477 1.68945 3.62477 1.68945 3.62477C1.68945 3.62477 1.68945 3.62477 1.68945 3.62477C1.68945 3.62477 1.68945 3.62477 1.68945 3.62477C1.68945 3.62477 1.68945 3.62477 1.68945 3.62477C1.68945 3.62477 1.68945 3.62477 1.68945 3.62477C1.68945 3.62477 1.68945 3.62477 1.68945 3.62477C1.68945 3.62478 1.68945 3.62478 1.68945 3.62478C1.68945 3.62478 1.68945 3.62478 1.68945 3.62478C1.68945 3.62478 1.68945 3.62478 1.68945 3.62478C1.68945 3.62478 1.68945 3.62478 1.68945 3.62478C1.68945 3.62478 1.68945 3.62478 1.68945 3.62478C1.68945 3.62478 1.68945 3.62478 1.68945 3.62478C1.68945 3.62478 1.68945 3.62478 1.68945 3.62478C1.68945 3.62478 1.68945 3.62478 1.68945 3.62479C1.68945 3.62479 1.68945 3.62479 1.68945 3.62479C1.68945 3.62479 1.68945 3.62479 1.68945 3.62479C1.68945 3.62479 1.68945 3.62479 1.68945 3.62479C1.68945 3.62479 1.68945 3.62479 1.68945 3.62479C1.68945 3.62479 1.68945 3.62479 1.68945 3.62479C1.68945 3.62479 1.68945 3.62479 1.68945 3.62479C1.68945 3.62479 1.68945 3.62479 1.68945 3.62479C1.68945 3.62479 1.68945 3.6248 1.68945 3.6248C1.68945 3.6248 1.68945 3.6248 1.68945 3.6248C1.68945 3.6248 1.68945 3.6248 1.68945 3.6248C1.68945 3.6248 1.68945 3.6248 1.68945 3.6248C1.68945 3.6248 1.68945 3.6248 1.68945 3.6248C1.68945 3.6248 1.68945 3.6248 1.68945 3.6248C1.68945 3.6248 1.68945 3.6248 1.68945 3.6248C1.68945 3.6248 1.68945 3.6248 1.68945 3.6248C1.68945 3.62481 1.68945 3.62481 1.68945 3.62481C1.68945 3.62481 1.68945 3.62481 1.68945 3.62481C1.68945 3.62481 1.68945 3.62481 1.68945 3.62481C1.68945 3.62481 1.68945 3.62481 1.68945 3.62481C1.68945 3.62481 1.68945 3.62481 1.68945 3.62481C1.68945 3.62481 1.68945 3.62481 1.68945 3.62481C1.68945 3.62481 1.68945 3.62481 1.68945 3.62481C1.68945 3.62481 1.68945 3.62481 1.68945 3.62482C1.68945 3.62482 1.68945 3.62482 1.68945 3.62482C1.68945 3.62482 1.68945 3.62482 1.68945 3.62482C1.68945 3.62482 1.68945 3.62482 1.68945 3.62482C1.68945 3.62482 1.68945 3.62482 1.68945 3.62482C1.68945 3.62482 1.68945 3.62482 1.68945 3.62482C1.68945 3.62482 1.68945 3.62482 1.68945 3.62482C1.68945 3.62482 1.68945 3.62482 1.68945 3.62482C1.68945 3.62482 1.68945 3.62483 1.68945 3.62483C1.68945 3.62483 1.68945 3.62483 1.68945 3.62483C1.68945 3.62483 1.68945 3.62483 1.68945 3.62483C1.68945 3.62483 1.68945 3.62483 1.68945 3.62483C1.68945 3.62483 1.68945 3.62483 1.68945 3.62483C1.68945 3.62483 1.68945 3.62483 1.68945 3.62483C1.68945 3.62483 1.68945 3.62483 1.68945 3.62483C1.68945 3.62483 1.68945 3.62483 1.68945 3.62483C1.68945 3.62484 1.68945 3.62484 1.68945 3.62484C1.68945 3.62484 1.68945 3.62484 1.68945 3.62484C1.68945 3.62484 1.68945 3.62484 1.68945 3.62484C1.68945 3.62484 1.68945 3.62484 1.68945 3.62484C1.68945 3.62484 1.68945 3.62484 1.68945 3.62484C1.68945 3.62484 1.68945 3.62484 1.68945 3.62484C1.68945 3.62484 1.68945 3.62484 1.68945 3.62484C1.68945 3.62484 1.68945 3.62484 1.68945 3.62485C1.68945 3.62485 1.68945 3.62485 1.68945 3.62485C1.68945 3.62485 1.68945 3.62485 1.68945 3.62485C1.68945 3.62485 1.68945 3.62485 1.68945 3.62485C1.68945 3.62485 1.68945 3.62485 1.68945 3.62485C1.68945 3.62485 1.68945 3.62485 1.68945 3.62485C1.68945 3.62485 1.68945 3.62485 1.68945 3.62485C1.68945 3.62485 1.68945 3.62485 1.68945 3.62485C1.68945 3.62485 1.68945 3.62486 1.68945 3.62486C1.68945 3.62486 1.68945 3.62486 1.68945 3.62486C1.68945 3.62486 1.68945 3.62486 1.68945 3.62486C1.68945 3.62486 1.68945 3.62486 1.68945 3.62486C1.68945 3.62486 1.68945 3.62486 1.68945 3.62486C1.68945 3.62486 1.68945 3.62486 1.68945 3.62486C1.68945 3.62486 1.68945 3.62486 1.68945 3.62486C1.68945 3.62486 1.68945 3.62486 1.68945 3.62486C1.68945 3.62487 1.68945 3.62487 1.68945 3.62487C1.68945 3.62487 1.68945 3.62487 1.68945 3.62487C1.68945 3.62487 1.68945 3.62487 1.68945 3.62487C1.68945 3.62487 1.68945 3.62487 1.68945 3.62487C1.68945 3.62487 1.68945 3.62487 1.68945 3.62487C1.68945 3.62487 1.68945 3.62487 1.68945 3.62487C1.68945 3.62487 1.68945 3.62487 1.68945 3.62487C1.68945 3.62487 1.68945 3.62487 1.68945 3.62487C1.68945 3.62488 1.68945 3.62488 1.68945 3.62488C1.68945 3.62488 1.68945 3.62488 1.68945 3.62488C1.68945 3.62488 1.68945 3.62488 1.68945 3.62488C1.68945 3.62488 1.68945 3.62488 1.68945 3.62488C1.68945 3.62488 1.68945 3.62488 1.68945 3.62488C1.68945 3.62488 1.68945 3.62488 1.68945 3.62488C1.68945 3.62488 1.68945 3.62488 1.68945 3.62488C1.68945 3.62488 1.68945 3.62488 1.68945 3.62489C1.68945 3.62489 1.68945 3.62489 1.68945 3.62489C1.68945 3.62489 1.68945 3.62489 1.68945 3.62489C1.68945 3.62489 1.68945 3.62489 1.68945 3.62489C1.68945 3.62489 1.68945 3.62489 1.68945 3.62489C1.68945 3.62489 1.68945 3.62489 1.68945 3.62489C1.68945 3.62489 1.68945 3.62489 1.68945 3.62489C1.68945 3.62489 1.68945 3.62489 1.68945 3.62489C1.68945 3.62489 1.68945 3.6249 1.68945 3.6249C1.68945 3.6249 1.68945 3.6249 1.68945 3.6249C1.68945 3.6249 1.68945 3.6249 1.68945 3.6249C1.68945 3.6249 1.68945 3.6249 1.68945 3.6249C1.68945 3.6249 1.68945 3.6249 1.68945 3.6249C1.68945 3.6249 1.68945 3.6249 1.68945 3.6249C1.68945 3.6249 1.68945 3.6249 1.68945 3.6249C1.68945 3.6249 1.68945 3.6249 1.68945 3.6249C1.68945 3.62491 1.68945 3.62491 1.68945 3.62491C1.68945 3.62491 1.68945 3.62491 1.68945 3.62491C1.68945 3.62491 1.68945 3.62491 1.68945 3.62491C1.68945 3.62491 1.68945 3.62491 1.68945 3.62491C1.68945 3.62491 1.68945 3.62491 1.68945 3.62491C1.68945 3.62491 1.68945 3.62491 1.68945 3.62491C1.68945 3.62491 1.68945 3.62491 1.68945 3.62491C1.68945 3.62491 1.68945 3.62491 1.68945 3.62492C1.68945 3.62492 1.68945 3.62492 1.68945 3.62492C1.68945 3.62492 1.68945 3.62492 1.68945 3.62492C1.68945 3.62492 1.68945 3.62492 1.68945 3.62492C1.68945 3.62492 1.68945 3.62492 1.68945 3.62492C1.68945 3.62492 1.68945 3.62492 1.68945 3.62492C1.68945 3.62492 1.68945 3.62492 1.68945 3.62492C1.68945 3.62492 1.68945 3.62492 1.68945 3.62492C1.68945 3.62492 1.68945 3.62493 1.68945 3.62493C1.68945 3.62493 1.68945 3.62493 1.68945 3.62493C1.68945 3.62493 1.68945 3.62493 1.68945 3.62493C1.68945 3.62493 1.68945 3.62493 1.68945 3.62493C1.68945 3.62493 1.68945 3.62493 1.68945 3.62493C1.68945 3.62493 1.68945 3.62493 1.68945 3.62493C1.68945 3.62493 1.68945 3.62493 1.68945 3.62493C1.68945 3.62493 1.68945 3.62493 1.68945 3.62493C1.68945 3.62494 1.68945 3.62494 1.68945 3.62494C1.68945 3.62494 1.68945 3.62494 1.68945 3.62494C1.68945 3.62494 1.68945 3.62494 1.68945 3.62494C1.68945 3.62494 1.68945 3.62494 1.68945 3.62494C1.68945 3.62494 1.68945 3.62494 1.68945 3.62494C1.68945 3.62494 1.68945 3.62494 1.68945 3.62494C1.68945 3.62494 1.68945 3.62494 1.68945 3.62494C1.68945 3.62494 1.68945 3.62494 1.68945 3.62495C1.68945 3.62495 1.68945 3.62495 1.68945 3.62495C1.68945 3.62495 1.68945 3.62495 1.68945 3.62495C1.68945 3.62495 1.68945 3.62495 1.68945 3.62495C1.68945 3.62495 1.68945 3.62495 1.68945 3.62495C1.68945 3.62495 1.68945 3.62495 1.68945 3.62495C1.68945 3.62495 1.68945 3.62495 1.68945 3.62495C1.68945 3.62495 1.68945 3.62495 1.68945 3.62495C1.68945 3.62495 1.68945 3.62496 1.68945 3.62496C1.68945 3.62496 1.68945 3.62496 1.68945 3.62496C1.68945 3.62496 1.68945 3.62496 1.68945 3.62496C1.68945 3.62496 1.68945 3.62496 1.68945 3.62496C1.68945 3.62496 1.68945 3.62496 1.68945 3.62496C1.68945 3.62496 1.68945 3.62496 1.68945 3.62496C1.68945 3.62496 1.68945 3.62496 1.68945 3.62496C1.68945 3.62496 1.68945 3.62496 1.68945 3.62496C1.68945 3.62497 1.68945 3.62497 1.68945 3.62497C1.68945 3.62497 1.68945 3.62497 1.68945 3.62497C1.68945 3.62497 1.68945 3.62497 1.68945 3.62497C1.68945 3.62497 1.68945 3.62497 1.68945 3.62497C1.68945 3.62497 1.68945 3.62497 1.68945 3.62497C1.68945 3.62497 1.68945 3.62497 1.68945 3.62497C1.68945 3.62497 1.68945 3.62497 1.68945 3.62497C1.68945 3.62497 1.68945 3.62497 1.68945 3.62498C1.68945 3.62498 1.68945 3.62498 1.68945 3.62498C1.68945 3.62498 1.68945 3.62498 1.68945 3.62498C1.68945 3.62498 1.68945 3.62498 1.68945 3.62498C1.68945 3.62498 1.68945 3.62498 1.68945 3.62498C1.68945 3.62498 1.68945 3.62498 1.68945 3.62498C1.68945 3.62498 1.68945 3.62498 1.68945 3.62498C1.68945 3.62498 1.68945 3.62498 1.68945 3.62498C1.68945 3.62498 1.68945 3.62499 1.68945 3.62499C1.68945 3.62499 1.68945 3.62499 1.68945 3.62499C1.68945 3.62499 1.68945 3.62499 1.68945 3.62499C1.68945 3.62499 1.68945 3.62499 1.68945 3.62499C1.68945 3.62499 1.68945 3.62499 1.68945 3.62499C1.68945 3.62499 1.68945 3.62499 1.68945 3.62499C1.68945 3.62499 1.68945 3.62499 1.68945 3.62499C1.68945 3.62499 1.68945 3.62499 1.68945 3.62499C1.68945 3.625 1.68945 3.625 1.68945 3.625C1.68945 3.625 1.68945 3.625 1.68945 3.625C1.68945 3.625 1.68945 3.625 1.68945 3.625C1.68945 3.625 1.68945 3.625 1.68945 3.625H3.18945ZM1.68945 3.625V9.89513H3.18945V3.625H1.68945ZM1.95764 9.32036C0.914974 10.1944 0.25 11.509 0.25 12.9782H1.75C1.75 11.9713 2.20403 11.0711 2.92126 10.4699L1.95764 9.32036ZM0.25 12.9782C0.25 15.6132 2.38612 17.7493 5.02116 17.7493V16.2493C3.21455 16.2493 1.75 14.7848 1.75 12.9782H0.25ZM5.02116 17.7493C7.65619 17.7493 9.79231 15.6132 9.79231 12.9782H8.29231C8.29231 14.7848 6.82777 16.2493 5.02116 16.2493V17.7493ZM9.79231 12.9782C9.79231 11.5571 9.17012 10.2805 8.18574 9.40751L7.19049 10.5298C7.86746 11.1301 8.29231 12.0041 8.29231 12.9782H9.79231ZM8.43812 9.96864V3.625H6.93812V9.96864H8.43812Z" fill="#B7A878"/>
<path fill-rule="evenodd" clip-rule="evenodd" d="M5.61884 6.67578C5.62266 6.6486 5.62464 6.62083 5.62464 6.59259C5.62464 6.26531 5.35932 6 5.03204 6C4.70477 6 4.43945 6.26531 4.43945 6.59259C4.43945 6.62083 4.44143 6.6486 4.44525 6.67578H4.43945V11.1658C3.60627 11.4193 3 12.1938 3 13.1099C3 14.232 3.90964 15.1416 5.03174 15.1416C6.15384 15.1416 7.06348 14.232 7.06348 13.1099C7.06348 12.194 6.45751 11.4197 5.62464 11.166V6.67578H5.61884Z" fill="#B7A878"/>
</svg>
