<svg width="22" height="22" viewBox="0 0 22 22" fill="none" xmlns="http://www.w3.org/2000/svg">
<path d="M3.07076 11.7405C3.16654 11.285 3.32687 10.8712 3.68814 10.5769C4.2545 10.1172 5.204 9.96333 5.89633 9.73039C6.80731 9.41843 6.95827 8.62915 7.89527 8.41077C8.96865 8.16016 9.96708 8.54804 10.8937 9.00767C12.2471 9.67736 12.9155 10.6143 13.4964 12.0556C13.7786 12.7565 13.7047 13.7735 13.3143 14.4224C12.9748 14.9881 12.4543 15.4768 12.1492 16.0623C11.8931 16.5531 11.9108 17.3185 11.6547 17.8083C11.205 18.6662 10.0171 19.1144 9.05923 18.9729C8.10141 18.8315 7.44967 17.9466 6.97701 17.1011C6.72298 16.6553 6.43477 16.2297 6.11497 15.8283C5.4903 15.0578 4.54497 14.9912 3.83389 14.2966C2.90835 13.3991 2.93333 12.3936 3.07076 11.7405Z" fill="white" stroke="#BBBBBB" stroke-width="1.25" stroke-miterlimit="10"/>
<path d="M7.22491 3.31131C6.52274 2.73894 5.36574 2.99753 4.61961 3.74672C3.71915 4.64309 3.69156 6.09752 4.31299 6.61368C4.98654 7.17481 6.28561 7.32914 7.35574 6.04131C8.00477 5.26146 7.90358 3.86426 7.22491 3.31131Z" fill="white" stroke="#BBBBBB" stroke-width="1.25" stroke-miterlimit="10"/>
<path d="M14.5265 3.31083C13.8243 2.73846 12.6673 2.99909 11.9181 3.74522C11.0187 4.64261 10.99 6.09602 11.6115 6.6132C12.284 7.17432 13.5841 7.32866 14.6532 6.04083C15.3063 5.26098 15.2051 3.86276 14.5265 3.31083Z" fill="white" stroke="#BBBBBB" stroke-width="1.25" stroke-miterlimit="10"/>
<path d="M18.4325 7.20398C17.7313 6.63161 16.5733 6.89735 15.8251 7.63939C14.9247 8.53576 14.896 9.99019 15.5185 10.5063C16.191 11.0675 17.4911 11.2218 18.5612 9.93398C19.2133 9.15412 19.1121 7.75795 18.4325 7.20398Z" fill="white" stroke="#BBBBBB" stroke-width="1.25" stroke-miterlimit="10"/>
<path d="M18.0985 13.8798C17.3963 13.3074 16.2393 13.5731 15.4911 14.3152C14.5907 15.2115 14.562 16.666 15.1845 17.177C15.857 17.7381 17.1571 17.8925 18.2273 16.6046C18.8793 15.8309 18.7782 14.4348 18.0985 13.8798Z" fill="white" stroke="#BBBBBB" stroke-width="1.25" stroke-miterlimit="10"/>
</svg>
