<svg width="22" height="22" viewBox="0 0 22 22" fill="none" xmlns="http://www.w3.org/2000/svg">
<path fill-rule="evenodd" clip-rule="evenodd" d="M13.6881 5.625C13.6881 5.62478 13.6881 5.62456 13.6881 5.62433C13.6881 4.17495 12.5132 3 11.0638 3C9.61441 3 8.43945 4.17495 8.43945 5.62433C8.43945 5.62456 8.43945 5.62478 8.43945 5.625V11.8951C7.5595 12.6328 7 13.7401 7 14.9782C7 17.199 8.80033 18.9993 11.0212 18.9993C13.242 18.9993 15.0423 17.199 15.0423 14.9782C15.0423 13.7806 14.5188 12.7053 13.6881 11.9686V5.625Z" fill="#FCFAF7"/>
<path d="M8.43945 11.8951L8.92126 12.4699C9.09126 12.3274 9.18945 12.1169 9.18945 11.8951H8.43945ZM13.6881 11.9686H12.9381C12.9381 12.1832 13.03 12.3874 13.1905 12.5298L13.6881 11.9686ZM12.9381 5.62433C12.9381 5.62433 12.9381 5.62433 12.9381 5.62433C12.9381 5.62433 12.9381 5.62434 12.9381 5.62434C12.9381 5.62434 12.9381 5.62434 12.9381 5.62434C12.9381 5.62434 12.9381 5.62434 12.9381 5.62434C12.9381 5.62434 12.9381 5.62434 12.9381 5.62434C12.9381 5.62434 12.9381 5.62434 12.9381 5.62434C12.9381 5.62434 12.9381 5.62434 12.9381 5.62434C12.9381 5.62434 12.9381 5.62434 12.9381 5.62434C12.9381 5.62434 12.9381 5.62434 12.9381 5.62434C12.9381 5.62435 12.9381 5.62435 12.9381 5.62435C12.9381 5.62435 12.9381 5.62435 12.9381 5.62435C12.9381 5.62435 12.9381 5.62435 12.9381 5.62435C12.9381 5.62435 12.9381 5.62435 12.9381 5.62435C12.9381 5.62435 12.9381 5.62435 12.9381 5.62435C12.9381 5.62435 12.9381 5.62435 12.9381 5.62435C12.9381 5.62435 12.9381 5.62435 12.9381 5.62435C12.9381 5.62435 12.9381 5.62435 12.9381 5.62436C12.9381 5.62436 12.9381 5.62436 12.9381 5.62436C12.9381 5.62436 12.9381 5.62436 12.9381 5.62436C12.9381 5.62436 12.9381 5.62436 12.9381 5.62436C12.9381 5.62436 12.9381 5.62436 12.9381 5.62436C12.9381 5.62436 12.9381 5.62436 12.9381 5.62436C12.9381 5.62436 12.9381 5.62436 12.9381 5.62436C12.9381 5.62436 12.9381 5.62436 12.9381 5.62436C12.9381 5.62436 12.9381 5.62437 12.9381 5.62437C12.9381 5.62437 12.9381 5.62437 12.9381 5.62437C12.9381 5.62437 12.9381 5.62437 12.9381 5.62437C12.9381 5.62437 12.9381 5.62437 12.9381 5.62437C12.9381 5.62437 12.9381 5.62437 12.9381 5.62437C12.9381 5.62437 12.9381 5.62437 12.9381 5.62437C12.9381 5.62437 12.9381 5.62437 12.9381 5.62437C12.9381 5.62437 12.9381 5.62437 12.9381 5.62437C12.9381 5.62438 12.9381 5.62438 12.9381 5.62438C12.9381 5.62438 12.9381 5.62438 12.9381 5.62438C12.9381 5.62438 12.9381 5.62438 12.9381 5.62438C12.9381 5.62438 12.9381 5.62438 12.9381 5.62438C12.9381 5.62438 12.9381 5.62438 12.9381 5.62438C12.9381 5.62438 12.9381 5.62438 12.9381 5.62438C12.9381 5.62438 12.9381 5.62438 12.9381 5.62438C12.9381 5.62438 12.9381 5.62438 12.9381 5.62439C12.9381 5.62439 12.9381 5.62439 12.9381 5.62439C12.9381 5.62439 12.9381 5.62439 12.9381 5.62439C12.9381 5.62439 12.9381 5.62439 12.9381 5.62439C12.9381 5.62439 12.9381 5.62439 12.9381 5.62439C12.9381 5.62439 12.9381 5.62439 12.9381 5.62439C12.9381 5.62439 12.9381 5.62439 12.9381 5.62439C12.9381 5.62439 12.9381 5.62439 12.9381 5.62439C12.9381 5.62439 12.9381 5.6244 12.9381 5.6244C12.9381 5.6244 12.9381 5.6244 12.9381 5.6244C12.9381 5.6244 12.9381 5.6244 12.9381 5.6244C12.9381 5.6244 12.9381 5.6244 12.9381 5.6244C12.9381 5.6244 12.9381 5.6244 12.9381 5.6244C12.9381 5.6244 12.9381 5.6244 12.9381 5.6244C12.9381 5.6244 12.9381 5.6244 12.9381 5.6244C12.9381 5.6244 12.9381 5.6244 12.9381 5.6244C12.9381 5.62441 12.9381 5.62441 12.9381 5.62441C12.9381 5.62441 12.9381 5.62441 12.9381 5.62441C12.9381 5.62441 12.9381 5.62441 12.9381 5.62441C12.9381 5.62441 12.9381 5.62441 12.9381 5.62441C12.9381 5.62441 12.9381 5.62441 12.9381 5.62441C12.9381 5.62441 12.9381 5.62441 12.9381 5.62441C12.9381 5.62441 12.9381 5.62441 12.9381 5.62441C12.9381 5.62441 12.9381 5.62441 12.9381 5.62442C12.9381 5.62442 12.9381 5.62442 12.9381 5.62442C12.9381 5.62442 12.9381 5.62442 12.9381 5.62442C12.9381 5.62442 12.9381 5.62442 12.9381 5.62442C12.9381 5.62442 12.9381 5.62442 12.9381 5.62442C12.9381 5.62442 12.9381 5.62442 12.9381 5.62442C12.9381 5.62442 12.9381 5.62442 12.9381 5.62442C12.9381 5.62442 12.9381 5.62442 12.9381 5.62442C12.9381 5.62442 12.9381 5.62443 12.9381 5.62443C12.9381 5.62443 12.9381 5.62443 12.9381 5.62443C12.9381 5.62443 12.9381 5.62443 12.9381 5.62443C12.9381 5.62443 12.9381 5.62443 12.9381 5.62443C12.9381 5.62443 12.9381 5.62443 12.9381 5.62443C12.9381 5.62443 12.9381 5.62443 12.9381 5.62443C12.9381 5.62443 12.9381 5.62443 12.9381 5.62443C12.9381 5.62443 12.9381 5.62443 12.9381 5.62443C12.9381 5.62444 12.9381 5.62444 12.9381 5.62444C12.9381 5.62444 12.9381 5.62444 12.9381 5.62444C12.9381 5.62444 12.9381 5.62444 12.9381 5.62444C12.9381 5.62444 12.9381 5.62444 12.9381 5.62444C12.9381 5.62444 12.9381 5.62444 12.9381 5.62444C12.9381 5.62444 12.9381 5.62444 12.9381 5.62444C12.9381 5.62444 12.9381 5.62444 12.9381 5.62444C12.9381 5.62444 12.9381 5.62444 12.9381 5.62445C12.9381 5.62445 12.9381 5.62445 12.9381 5.62445C12.9381 5.62445 12.9381 5.62445 12.9381 5.62445C12.9381 5.62445 12.9381 5.62445 12.9381 5.62445C12.9381 5.62445 12.9381 5.62445 12.9381 5.62445C12.9381 5.62445 12.9381 5.62445 12.9381 5.62445C12.9381 5.62445 12.9381 5.62445 12.9381 5.62445C12.9381 5.62445 12.9381 5.62445 12.9381 5.62445C12.9381 5.62445 12.9381 5.62446 12.9381 5.62446C12.9381 5.62446 12.9381 5.62446 12.9381 5.62446C12.9381 5.62446 12.9381 5.62446 12.9381 5.62446C12.9381 5.62446 12.9381 5.62446 12.9381 5.62446C12.9381 5.62446 12.9381 5.62446 12.9381 5.62446C12.9381 5.62446 12.9381 5.62446 12.9381 5.62446C12.9381 5.62446 12.9381 5.62446 12.9381 5.62446C12.9381 5.62446 12.9381 5.62446 12.9381 5.62446C12.9381 5.62446 12.9381 5.62447 12.9381 5.62447C12.9381 5.62447 12.9381 5.62447 12.9381 5.62447C12.9381 5.62447 12.9381 5.62447 12.9381 5.62447C12.9381 5.62447 12.9381 5.62447 12.9381 5.62447C12.9381 5.62447 12.9381 5.62447 12.9381 5.62447C12.9381 5.62447 12.9381 5.62447 12.9381 5.62447C12.9381 5.62447 12.9381 5.62447 12.9381 5.62447C12.9381 5.62447 12.9381 5.62447 12.9381 5.62448C12.9381 5.62448 12.9381 5.62448 12.9381 5.62448C12.9381 5.62448 12.9381 5.62448 12.9381 5.62448C12.9381 5.62448 12.9381 5.62448 12.9381 5.62448C12.9381 5.62448 12.9381 5.62448 12.9381 5.62448C12.9381 5.62448 12.9381 5.62448 12.9381 5.62448C12.9381 5.62448 12.9381 5.62448 12.9381 5.62448C12.9381 5.62448 12.9381 5.62448 12.9381 5.62448C12.9381 5.62448 12.9381 5.62449 12.9381 5.62449C12.9381 5.62449 12.9381 5.62449 12.9381 5.62449C12.9381 5.62449 12.9381 5.62449 12.9381 5.62449C12.9381 5.62449 12.9381 5.62449 12.9381 5.62449C12.9381 5.62449 12.9381 5.62449 12.9381 5.62449C12.9381 5.62449 12.9381 5.62449 12.9381 5.62449C12.9381 5.62449 12.9381 5.62449 12.9381 5.62449C12.9381 5.62449 12.9381 5.62449 12.9381 5.62449C12.9381 5.6245 12.9381 5.6245 12.9381 5.6245C12.9381 5.6245 12.9381 5.6245 12.9381 5.6245C12.9381 5.6245 12.9381 5.6245 12.9381 5.6245C12.9381 5.6245 12.9381 5.6245 12.9381 5.6245C12.9381 5.6245 12.9381 5.6245 12.9381 5.6245C12.9381 5.6245 12.9381 5.6245 12.9381 5.6245C12.9381 5.6245 12.9381 5.6245 12.9381 5.6245C12.9381 5.6245 12.9381 5.6245 12.9381 5.62451C12.9381 5.62451 12.9381 5.62451 12.9381 5.62451C12.9381 5.62451 12.9381 5.62451 12.9381 5.62451C12.9381 5.62451 12.9381 5.62451 12.9381 5.62451C12.9381 5.62451 12.9381 5.62451 12.9381 5.62451C12.9381 5.62451 12.9381 5.62451 12.9381 5.62451C12.9381 5.62451 12.9381 5.62451 12.9381 5.62451C12.9381 5.62451 12.9381 5.62451 12.9381 5.62451C12.9381 5.62451 12.9381 5.62452 12.9381 5.62452C12.9381 5.62452 12.9381 5.62452 12.9381 5.62452C12.9381 5.62452 12.9381 5.62452 12.9381 5.62452C12.9381 5.62452 12.9381 5.62452 12.9381 5.62452C12.9381 5.62452 12.9381 5.62452 12.9381 5.62452C12.9381 5.62452 12.9381 5.62452 12.9381 5.62452C12.9381 5.62452 12.9381 5.62452 12.9381 5.62452C12.9381 5.62452 12.9381 5.62452 12.9381 5.62452C12.9381 5.62453 12.9381 5.62453 12.9381 5.62453C12.9381 5.62453 12.9381 5.62453 12.9381 5.62453C12.9381 5.62453 12.9381 5.62453 12.9381 5.62453C12.9381 5.62453 12.9381 5.62453 12.9381 5.62453C12.9381 5.62453 12.9381 5.62453 12.9381 5.62453C12.9381 5.62453 12.9381 5.62453 12.9381 5.62453C12.9381 5.62453 12.9381 5.62453 12.9381 5.62453C12.9381 5.62453 12.9381 5.62453 12.9381 5.62454C12.9381 5.62454 12.9381 5.62454 12.9381 5.62454C12.9381 5.62454 12.9381 5.62454 12.9381 5.62454C12.9381 5.62454 12.9381 5.62454 12.9381 5.62454C12.9381 5.62454 12.9381 5.62454 12.9381 5.62454C12.9381 5.62454 12.9381 5.62454 12.9381 5.62454C12.9381 5.62454 12.9381 5.62454 12.9381 5.62454C12.9381 5.62454 12.9381 5.62454 12.9381 5.62454C12.9381 5.62454 12.9381 5.62455 12.9381 5.62455C12.9381 5.62455 12.9381 5.62455 12.9381 5.62455C12.9381 5.62455 12.9381 5.62455 12.9381 5.62455C12.9381 5.62455 12.9381 5.62455 12.9381 5.62455C12.9381 5.62455 12.9381 5.62455 12.9381 5.62455C12.9381 5.62455 12.9381 5.62455 12.9381 5.62455C12.9381 5.62455 12.9381 5.62455 12.9381 5.62455C12.9381 5.62455 12.9381 5.62455 12.9381 5.62455C12.9381 5.62455 12.9381 5.62456 12.9381 5.62456C12.9381 5.62456 12.9381 5.62456 12.9381 5.62456C12.9381 5.62456 12.9381 5.62456 12.9381 5.62456C12.9381 5.62456 12.9381 5.62456 12.9381 5.62456C12.9381 5.62456 12.9381 5.62456 12.9381 5.62456C12.9381 5.62456 12.9381 5.62456 12.9381 5.62456C12.9381 5.62456 12.9381 5.62456 12.9381 5.62456C12.9381 5.62456 12.9381 5.62456 12.9381 5.62456C12.9381 5.62457 12.9381 5.62457 12.9381 5.62457C12.9381 5.62457 12.9381 5.62457 12.9381 5.62457C12.9381 5.62457 12.9381 5.62457 12.9381 5.62457C12.9381 5.62457 12.9381 5.62457 12.9381 5.62457C12.9381 5.62457 12.9381 5.62457 12.9381 5.62457C12.9381 5.62457 12.9381 5.62457 12.9381 5.62457C12.9381 5.62457 12.9381 5.62457 12.9381 5.62457C12.9381 5.62457 12.9381 5.62457 12.9381 5.62458C12.9381 5.62458 12.9381 5.62458 12.9381 5.62458C12.9381 5.62458 12.9381 5.62458 12.9381 5.62458C12.9381 5.62458 12.9381 5.62458 12.9381 5.62458C12.9381 5.62458 12.9381 5.62458 12.9381 5.62458C12.9381 5.62458 12.9381 5.62458 12.9381 5.62458C12.9381 5.62458 12.9381 5.62458 12.9381 5.62458C12.9381 5.62458 12.9381 5.62458 12.9381 5.62458C12.9381 5.62458 12.9381 5.62459 12.9381 5.62459C12.9381 5.62459 12.9381 5.62459 12.9381 5.62459C12.9381 5.62459 12.9381 5.62459 12.9381 5.62459C12.9381 5.62459 12.9381 5.62459 12.9381 5.62459C12.9381 5.62459 12.9381 5.62459 12.9381 5.62459C12.9381 5.62459 12.9381 5.62459 12.9381 5.62459C12.9381 5.62459 12.9381 5.62459 12.9381 5.62459C12.9381 5.62459 12.9381 5.62459 12.9381 5.62459C12.9381 5.6246 12.9381 5.6246 12.9381 5.6246C12.9381 5.6246 12.9381 5.6246 12.9381 5.6246C12.9381 5.6246 12.9381 5.6246 12.9381 5.6246C12.9381 5.6246 12.9381 5.6246 12.9381 5.6246C12.9381 5.6246 12.9381 5.6246 12.9381 5.6246C12.9381 5.6246 12.9381 5.6246 12.9381 5.6246C12.9381 5.6246 12.9381 5.6246 12.9381 5.6246C12.9381 5.6246 12.9381 5.6246 12.9381 5.62461C12.9381 5.62461 12.9381 5.62461 12.9381 5.62461C12.9381 5.62461 12.9381 5.62461 12.9381 5.62461C12.9381 5.62461 12.9381 5.62461 12.9381 5.62461C12.9381 5.62461 12.9381 5.62461 12.9381 5.62461C12.9381 5.62461 12.9381 5.62461 12.9381 5.62461C12.9381 5.62461 12.9381 5.62461 12.9381 5.62461C12.9381 5.62461 12.9381 5.62461 12.9381 5.62461C12.9381 5.62461 12.9381 5.62462 12.9381 5.62462C12.9381 5.62462 12.9381 5.62462 12.9381 5.62462C12.9381 5.62462 12.9381 5.62462 12.9381 5.62462C12.9381 5.62462 12.9381 5.62462 12.9381 5.62462C12.9381 5.62462 12.9381 5.62462 12.9381 5.62462C12.9381 5.62462 12.9381 5.62462 12.9381 5.62462C12.9381 5.62462 12.9381 5.62462 12.9381 5.62462C12.9381 5.62462 12.9381 5.62462 12.9381 5.62462C12.9381 5.62463 12.9381 5.62463 12.9381 5.62463C12.9381 5.62463 12.9381 5.62463 12.9381 5.62463C12.9381 5.62463 12.9381 5.62463 12.9381 5.62463C12.9381 5.62463 12.9381 5.62463 12.9381 5.62463C12.9381 5.62463 12.9381 5.62463 12.9381 5.62463C12.9381 5.62463 12.9381 5.62463 12.9381 5.62463C12.9381 5.62463 12.9381 5.62463 12.9381 5.62463C12.9381 5.62463 12.9381 5.62463 12.9381 5.62464C12.9381 5.62464 12.9381 5.62464 12.9381 5.62464C12.9381 5.62464 12.9381 5.62464 12.9381 5.62464C12.9381 5.62464 12.9381 5.62464 12.9381 5.62464C12.9381 5.62464 12.9381 5.62464 12.9381 5.62464C12.9381 5.62464 12.9381 5.62464 12.9381 5.62464C12.9381 5.62464 12.9381 5.62464 12.9381 5.62464C12.9381 5.62464 12.9381 5.62464 12.9381 5.62464C12.9381 5.62464 12.9381 5.62465 12.9381 5.62465C12.9381 5.62465 12.9381 5.62465 12.9381 5.62465C12.9381 5.62465 12.9381 5.62465 12.9381 5.62465C12.9381 5.62465 12.9381 5.62465 12.9381 5.62465C12.9381 5.62465 12.9381 5.62465 12.9381 5.62465C12.9381 5.62465 12.9381 5.62465 12.9381 5.62465C12.9381 5.62465 12.9381 5.62465 12.9381 5.62465C12.9381 5.62465 12.9381 5.62465 12.9381 5.62465C12.9381 5.62466 12.9381 5.62466 12.9381 5.62466C12.9381 5.62466 12.9381 5.62466 12.9381 5.62466C12.9381 5.62466 12.9381 5.62466 12.9381 5.62466C12.9381 5.62466 12.9381 5.62466 12.9381 5.62466C12.9381 5.62466 12.9381 5.62466 12.9381 5.62466C12.9381 5.62466 12.9381 5.62466 12.9381 5.62466C12.9381 5.62466 12.9381 5.62466 12.9381 5.62466C12.9381 5.62466 12.9381 5.62466 12.9381 5.62467C12.9381 5.62467 12.9381 5.62467 12.9381 5.62467C12.9381 5.62467 12.9381 5.62467 12.9381 5.62467C12.9381 5.62467 12.9381 5.62467 12.9381 5.62467C12.9381 5.62467 12.9381 5.62467 12.9381 5.62467C12.9381 5.62467 12.9381 5.62467 12.9381 5.62467C12.9381 5.62467 12.9381 5.62467 12.9381 5.62467C12.9381 5.62467 12.9381 5.62467 12.9381 5.62467C12.9381 5.62467 12.9381 5.62468 12.9381 5.62468C12.9381 5.62468 12.9381 5.62468 12.9381 5.62468C12.9381 5.62468 12.9381 5.62468 12.9381 5.62468C12.9381 5.62468 12.9381 5.62468 12.9381 5.62468C12.9381 5.62468 12.9381 5.62468 12.9381 5.62468C12.9381 5.62468 12.9381 5.62468 12.9381 5.62468C12.9381 5.62468 12.9381 5.62468 12.9381 5.62468C12.9381 5.62468 12.9381 5.62468 12.9381 5.62468C12.9381 5.62469 12.9381 5.62469 12.9381 5.62469C12.9381 5.62469 12.9381 5.62469 12.9381 5.62469C12.9381 5.62469 12.9381 5.62469 12.9381 5.62469C12.9381 5.62469 12.9381 5.62469 12.9381 5.62469C12.9381 5.62469 12.9381 5.62469 12.9381 5.62469C12.9381 5.62469 12.9381 5.62469 12.9381 5.62469C12.9381 5.62469 12.9381 5.62469 12.9381 5.62469C12.9381 5.62469 12.9381 5.62469 12.9381 5.6247C12.9381 5.6247 12.9381 5.6247 12.9381 5.6247C12.9381 5.6247 12.9381 5.6247 12.9381 5.6247C12.9381 5.6247 12.9381 5.6247 12.9381 5.6247C12.9381 5.6247 12.9381 5.6247 12.9381 5.6247C12.9381 5.6247 12.9381 5.6247 12.9381 5.6247C12.9381 5.6247 12.9381 5.6247 12.9381 5.6247C12.9381 5.6247 12.9381 5.6247 12.9381 5.6247C12.9381 5.6247 12.9381 5.62471 12.9381 5.62471C12.9381 5.62471 12.9381 5.62471 12.9381 5.62471C12.9381 5.62471 12.9381 5.62471 12.9381 5.62471C12.9381 5.62471 12.9381 5.62471 12.9381 5.62471C12.9381 5.62471 12.9381 5.62471 12.9381 5.62471C12.9381 5.62471 12.9381 5.62471 12.9381 5.62471C12.9381 5.62471 12.9381 5.62471 12.9381 5.62471C12.9381 5.62471 12.9381 5.62471 12.9381 5.62471C12.9381 5.62472 12.9381 5.62472 12.9381 5.62472C12.9381 5.62472 12.9381 5.62472 12.9381 5.62472C12.9381 5.62472 12.9381 5.62472 12.9381 5.62472C12.9381 5.62472 12.9381 5.62472 12.9381 5.62472C12.9381 5.62472 12.9381 5.62472 12.9381 5.62472C12.9381 5.62472 12.9381 5.62472 12.9381 5.62472C12.9381 5.62472 12.9381 5.62472 12.9381 5.62472C12.9381 5.62472 12.9381 5.62472 12.9381 5.62473C12.9381 5.62473 12.9381 5.62473 12.9381 5.62473C12.9381 5.62473 12.9381 5.62473 12.9381 5.62473C12.9381 5.62473 12.9381 5.62473 12.9381 5.62473C12.9381 5.62473 12.9381 5.62473 12.9381 5.62473C12.9381 5.62473 12.9381 5.62473 12.9381 5.62473C12.9381 5.62473 12.9381 5.62473 12.9381 5.62473C12.9381 5.62473 12.9381 5.62473 12.9381 5.62473C12.9381 5.62473 12.9381 5.62474 12.9381 5.62474C12.9381 5.62474 12.9381 5.62474 12.9381 5.62474C12.9381 5.62474 12.9381 5.62474 12.9381 5.62474C12.9381 5.62474 12.9381 5.62474 12.9381 5.62474C12.9381 5.62474 12.9381 5.62474 12.9381 5.62474C12.9381 5.62474 12.9381 5.62474 12.9381 5.62474C12.9381 5.62474 12.9381 5.62474 12.9381 5.62474C12.9381 5.62474 12.9381 5.62474 12.9381 5.62474C12.9381 5.62475 12.9381 5.62475 12.9381 5.62475C12.9381 5.62475 12.9381 5.62475 12.9381 5.62475C12.9381 5.62475 12.9381 5.62475 12.9381 5.62475C12.9381 5.62475 12.9381 5.62475 12.9381 5.62475C12.9381 5.62475 12.9381 5.62475 12.9381 5.62475C12.9381 5.62475 12.9381 5.62475 12.9381 5.62475C12.9381 5.62475 12.9381 5.62475 12.9381 5.62475C12.9381 5.62475 12.9381 5.62475 12.9381 5.62476C12.9381 5.62476 12.9381 5.62476 12.9381 5.62476C12.9381 5.62476 12.9381 5.62476 12.9381 5.62476C12.9381 5.62476 12.9381 5.62476 12.9381 5.62476C12.9381 5.62476 12.9381 5.62476 12.9381 5.62476C12.9381 5.62476 12.9381 5.62476 12.9381 5.62476C12.9381 5.62476 12.9381 5.62476 12.9381 5.62476C12.9381 5.62476 12.9381 5.62476 12.9381 5.62476C12.9381 5.62476 12.9381 5.62477 12.9381 5.62477C12.9381 5.62477 12.9381 5.62477 12.9381 5.62477C12.9381 5.62477 12.9381 5.62477 12.9381 5.62477C12.9381 5.62477 12.9381 5.62477 12.9381 5.62477C12.9381 5.62477 12.9381 5.62477 12.9381 5.62477C12.9381 5.62477 12.9381 5.62477 12.9381 5.62477C12.9381 5.62477 12.9381 5.62477 12.9381 5.62477C12.9381 5.62477 12.9381 5.62477 12.9381 5.62477C12.9381 5.62478 12.9381 5.62478 12.9381 5.62478C12.9381 5.62478 12.9381 5.62478 12.9381 5.62478C12.9381 5.62478 12.9381 5.62478 12.9381 5.62478C12.9381 5.62478 12.9381 5.62478 12.9381 5.62478C12.9381 5.62478 12.9381 5.62478 12.9381 5.62478C12.9381 5.62478 12.9381 5.62478 12.9381 5.62478C12.9381 5.62478 12.9381 5.62478 12.9381 5.62478C12.9381 5.62478 12.9381 5.62478 12.9381 5.62479C12.9381 5.62479 12.9381 5.62479 12.9381 5.62479C12.9381 5.62479 12.9381 5.62479 12.9381 5.62479C12.9381 5.62479 12.9381 5.62479 12.9381 5.62479C12.9381 5.62479 12.9381 5.62479 12.9381 5.62479C12.9381 5.62479 12.9381 5.62479 12.9381 5.62479C12.9381 5.62479 12.9381 5.62479 12.9381 5.62479C12.9381 5.62479 12.9381 5.62479 12.9381 5.62479C12.9381 5.62479 12.9381 5.6248 12.9381 5.6248C12.9381 5.6248 12.9381 5.6248 12.9381 5.6248C12.9381 5.6248 12.9381 5.6248 12.9381 5.6248C12.9381 5.6248 12.9381 5.6248 12.9381 5.6248C12.9381 5.6248 12.9381 5.6248 12.9381 5.6248C12.9381 5.6248 12.9381 5.6248 12.9381 5.6248C12.9381 5.6248 12.9381 5.6248 12.9381 5.6248C12.9381 5.6248 12.9381 5.6248 12.9381 5.6248C12.9381 5.6248 12.9381 5.62481 12.9381 5.62481C12.9381 5.62481 12.9381 5.62481 12.9381 5.62481C12.9381 5.62481 12.9381 5.62481 12.9381 5.62481C12.9381 5.62481 12.9381 5.62481 12.9381 5.62481C12.9381 5.62481 12.9381 5.62481 12.9381 5.62481C12.9381 5.62481 12.9381 5.62481 12.9381 5.62481C12.9381 5.62481 12.9381 5.62481 12.9381 5.62481C12.9381 5.62481 12.9381 5.62481 12.9381 5.62481C12.9381 5.62482 12.9381 5.62482 12.9381 5.62482C12.9381 5.62482 12.9381 5.62482 12.9381 5.62482C12.9381 5.62482 12.9381 5.62482 12.9381 5.62482C12.9381 5.62482 12.9381 5.62482 12.9381 5.62482C12.9381 5.62482 12.9381 5.62482 12.9381 5.62482C12.9381 5.62482 12.9381 5.62482 12.9381 5.62482C12.9381 5.62482 12.9381 5.62482 12.9381 5.62482C12.9381 5.62482 12.9381 5.62483 12.9381 5.62483C12.9381 5.62483 12.9381 5.62483 12.9381 5.62483C12.9381 5.62483 12.9381 5.62483 12.9381 5.62483C12.9381 5.62483 12.9381 5.62483 12.9381 5.62483C12.9381 5.62483 12.9381 5.62483 12.9381 5.62483C12.9381 5.62483 12.9381 5.62483 12.9381 5.62483C12.9381 5.62483 12.9381 5.62483 12.9381 5.62483C12.9381 5.62483 12.9381 5.62483 12.9381 5.62483C12.9381 5.62484 12.9381 5.62484 12.9381 5.62484C12.9381 5.62484 12.9381 5.62484 12.9381 5.62484C12.9381 5.62484 12.9381 5.62484 12.9381 5.62484C12.9381 5.62484 12.9381 5.62484 12.9381 5.62484C12.9381 5.62484 12.9381 5.62484 12.9381 5.62484C12.9381 5.62484 12.9381 5.62484 12.9381 5.62484C12.9381 5.62484 12.9381 5.62484 12.9381 5.62484C12.9381 5.62484 12.9381 5.62484 12.9381 5.62485C12.9381 5.62485 12.9381 5.62485 12.9381 5.62485C12.9381 5.62485 12.9381 5.62485 12.9381 5.62485C12.9381 5.62485 12.9381 5.62485 12.9381 5.62485C12.9381 5.62485 12.9381 5.62485 12.9381 5.62485C12.9381 5.62485 12.9381 5.62485 12.9381 5.62485C12.9381 5.62485 12.9381 5.62485 12.9381 5.62485C12.9381 5.62485 12.9381 5.62485 12.9381 5.62485C12.9381 5.62485 12.9381 5.62486 12.9381 5.62486C12.9381 5.62486 12.9381 5.62486 12.9381 5.62486C12.9381 5.62486 12.9381 5.62486 12.9381 5.62486C12.9381 5.62486 12.9381 5.62486 12.9381 5.62486C12.9381 5.62486 12.9381 5.62486 12.9381 5.62486C12.9381 5.62486 12.9381 5.62486 12.9381 5.62486C12.9381 5.62486 12.9381 5.62486 12.9381 5.62486C12.9381 5.62486 12.9381 5.62486 12.9381 5.62486C12.9381 5.62487 12.9381 5.62487 12.9381 5.62487C12.9381 5.62487 12.9381 5.62487 12.9381 5.62487C12.9381 5.62487 12.9381 5.62487 12.9381 5.62487C12.9381 5.62487 12.9381 5.62487 12.9381 5.62487C12.9381 5.62487 12.9381 5.62487 12.9381 5.62487C12.9381 5.62487 12.9381 5.62487 12.9381 5.62487C12.9381 5.62487 12.9381 5.62487 12.9381 5.62487C12.9381 5.62487 12.9381 5.62487 12.9381 5.62488C12.9381 5.62488 12.9381 5.62488 12.9381 5.62488C12.9381 5.62488 12.9381 5.62488 12.9381 5.62488C12.9381 5.62488 12.9381 5.62488 12.9381 5.62488C12.9381 5.62488 12.9381 5.62488 12.9381 5.62488C12.9381 5.62488 12.9381 5.62488 12.9381 5.62488C12.9381 5.62488 12.9381 5.62488 12.9381 5.62488C12.9381 5.62488 12.9381 5.62488 12.9381 5.62488C12.9381 5.62488 12.9381 5.62489 12.9381 5.62489C12.9381 5.62489 12.9381 5.62489 12.9381 5.62489C12.9381 5.62489 12.9381 5.62489 12.9381 5.62489C12.9381 5.62489 12.9381 5.62489 12.9381 5.62489C12.9381 5.62489 12.9381 5.62489 12.9381 5.62489C12.9381 5.62489 12.9381 5.62489 12.9381 5.62489C12.9381 5.62489 12.9381 5.62489 12.9381 5.62489C12.9381 5.62489 12.9381 5.62489 12.9381 5.62489C12.9381 5.62489 12.9381 5.6249 12.9381 5.6249C12.9381 5.6249 12.9381 5.6249 12.9381 5.6249C12.9381 5.6249 12.9381 5.6249 12.9381 5.6249C12.9381 5.6249 12.9381 5.6249 12.9381 5.6249C12.9381 5.6249 12.9381 5.6249 12.9381 5.6249C12.9381 5.6249 12.9381 5.6249 12.9381 5.6249C12.9381 5.6249 12.9381 5.6249 12.9381 5.6249C12.9381 5.6249 12.9381 5.6249 12.9381 5.6249C12.9381 5.62491 12.9381 5.62491 12.9381 5.62491C12.9381 5.62491 12.9381 5.62491 12.9381 5.62491C12.9381 5.62491 12.9381 5.62491 12.9381 5.62491C12.9381 5.62491 12.9381 5.62491 12.9381 5.62491C12.9381 5.62491 12.9381 5.62491 12.9381 5.62491C12.9381 5.62491 12.9381 5.62491 12.9381 5.62491C12.9381 5.62491 12.9381 5.62491 12.9381 5.62491C12.9381 5.62491 12.9381 5.62491 12.9381 5.62492C12.9381 5.62492 12.9381 5.62492 12.9381 5.62492C12.9381 5.62492 12.9381 5.62492 12.9381 5.62492C12.9381 5.62492 12.9381 5.62492 12.9381 5.62492C12.9381 5.62492 12.9381 5.62492 12.9381 5.62492C12.9381 5.62492 12.9381 5.62492 12.9381 5.62492C12.9381 5.62492 12.9381 5.62492 12.9381 5.62492C12.9381 5.62492 12.9381 5.62492 12.9381 5.62492C12.9381 5.62492 12.9381 5.62493 12.9381 5.62493C12.9381 5.62493 12.9381 5.62493 12.9381 5.62493C12.9381 5.62493 12.9381 5.62493 12.9381 5.62493C12.9381 5.62493 12.9381 5.62493 12.9381 5.62493C12.9381 5.62493 12.9381 5.62493 12.9381 5.62493C12.9381 5.62493 12.9381 5.62493 12.9381 5.62493C12.9381 5.62493 12.9381 5.62493 12.9381 5.62493C12.9381 5.62493 12.9381 5.62493 12.9381 5.62493C12.9381 5.62494 12.9381 5.62494 12.9381 5.62494C12.9381 5.62494 12.9381 5.62494 12.9381 5.62494C12.9381 5.62494 12.9381 5.62494 12.9381 5.62494C12.9381 5.62494 12.9381 5.62494 12.9381 5.62494C12.9381 5.62494 12.9381 5.62494 12.9381 5.62494C12.9381 5.62494 12.9381 5.62494 12.9381 5.62494C12.9381 5.62494 12.9381 5.62494 12.9381 5.62494C12.9381 5.62494 12.9381 5.62494 12.9381 5.62495C12.9381 5.62495 12.9381 5.62495 12.9381 5.62495C12.9381 5.62495 12.9381 5.62495 12.9381 5.62495C12.9381 5.62495 12.9381 5.62495 12.9381 5.62495C12.9381 5.62495 12.9381 5.62495 12.9381 5.62495C12.9381 5.62495 12.9381 5.62495 12.9381 5.62495C12.9381 5.62495 12.9381 5.62495 12.9381 5.62495C12.9381 5.62495 12.9381 5.62495 12.9381 5.62495C12.9381 5.62495 12.9381 5.62496 12.9381 5.62496C12.9381 5.62496 12.9381 5.62496 12.9381 5.62496C12.9381 5.62496 12.9381 5.62496 12.9381 5.62496C12.9381 5.62496 12.9381 5.62496 12.9381 5.62496C12.9381 5.62496 12.9381 5.62496 12.9381 5.62496C12.9381 5.62496 12.9381 5.62496 12.9381 5.62496C12.9381 5.62496 12.9381 5.62496 12.9381 5.62496C12.9381 5.62496 12.9381 5.62496 12.9381 5.62496C12.9381 5.62497 12.9381 5.62497 12.9381 5.62497C12.9381 5.62497 12.9381 5.62497 12.9381 5.62497C12.9381 5.62497 12.9381 5.62497 12.9381 5.62497C12.9381 5.62497 12.9381 5.62497 12.9381 5.62497C12.9381 5.62497 12.9381 5.62497 12.9381 5.62497C12.9381 5.62497 12.9381 5.62497 12.9381 5.62497C12.9381 5.62497 12.9381 5.62497 12.9381 5.62497C12.9381 5.62497 12.9381 5.62497 12.9381 5.62498C12.9381 5.62498 12.9381 5.62498 12.9381 5.62498C12.9381 5.62498 12.9381 5.62498 12.9381 5.62498C12.9381 5.62498 12.9381 5.62498 12.9381 5.62498C12.9381 5.62498 12.9381 5.62498 12.9381 5.62498C12.9381 5.62498 12.9381 5.62498 12.9381 5.62498C12.9381 5.62498 12.9381 5.62498 12.9381 5.62498C12.9381 5.62498 12.9381 5.62498 12.9381 5.62498C12.9381 5.62498 12.9381 5.62499 12.9381 5.62499C12.9381 5.62499 12.9381 5.62499 12.9381 5.62499C12.9381 5.62499 12.9381 5.62499 12.9381 5.62499C12.9381 5.62499 12.9381 5.62499 12.9381 5.62499C12.9381 5.62499 12.9381 5.62499 12.9381 5.62499C12.9381 5.62499 12.9381 5.62499 12.9381 5.62499C12.9381 5.62499 12.9381 5.62499 12.9381 5.62499C12.9381 5.62499 12.9381 5.62499 12.9381 5.62499C12.9381 5.625 12.9381 5.625 12.9381 5.625C12.9381 5.625 12.9381 5.625 12.9381 5.625C12.9381 5.625 12.9381 5.625 12.9381 5.625C12.9381 5.625 12.9381 5.625 12.9381 5.625H14.4381C14.4381 5.625 14.4381 5.625 14.4381 5.625C14.4381 5.625 14.4381 5.625 14.4381 5.625C14.4381 5.625 14.4381 5.625 14.4381 5.625C14.4381 5.625 14.4381 5.625 14.4381 5.62499C14.4381 5.62499 14.4381 5.62499 14.4381 5.62499C14.4381 5.62499 14.4381 5.62499 14.4381 5.62499C14.4381 5.62499 14.4381 5.62499 14.4381 5.62499C14.4381 5.62499 14.4381 5.62499 14.4381 5.62499C14.4381 5.62499 14.4381 5.62499 14.4381 5.62499C14.4381 5.62499 14.4381 5.62499 14.4381 5.62499C14.4381 5.62499 14.4381 5.62499 14.4381 5.62499C14.4381 5.62499 14.4381 5.62498 14.4381 5.62498C14.4381 5.62498 14.4381 5.62498 14.4381 5.62498C14.4381 5.62498 14.4381 5.62498 14.4381 5.62498C14.4381 5.62498 14.4381 5.62498 14.4381 5.62498C14.4381 5.62498 14.4381 5.62498 14.4381 5.62498C14.4381 5.62498 14.4381 5.62498 14.4381 5.62498C14.4381 5.62498 14.4381 5.62498 14.4381 5.62498C14.4381 5.62498 14.4381 5.62498 14.4381 5.62498C14.4381 5.62497 14.4381 5.62497 14.4381 5.62497C14.4381 5.62497 14.4381 5.62497 14.4381 5.62497C14.4381 5.62497 14.4381 5.62497 14.4381 5.62497C14.4381 5.62497 14.4381 5.62497 14.4381 5.62497C14.4381 5.62497 14.4381 5.62497 14.4381 5.62497C14.4381 5.62497 14.4381 5.62497 14.4381 5.62497C14.4381 5.62497 14.4381 5.62497 14.4381 5.62497C14.4381 5.62497 14.4381 5.62497 14.4381 5.62496C14.4381 5.62496 14.4381 5.62496 14.4381 5.62496C14.4381 5.62496 14.4381 5.62496 14.4381 5.62496C14.4381 5.62496 14.4381 5.62496 14.4381 5.62496C14.4381 5.62496 14.4381 5.62496 14.4381 5.62496C14.4381 5.62496 14.4381 5.62496 14.4381 5.62496C14.4381 5.62496 14.4381 5.62496 14.4381 5.62496C14.4381 5.62496 14.4381 5.62496 14.4381 5.62496C14.4381 5.62496 14.4381 5.62495 14.4381 5.62495C14.4381 5.62495 14.4381 5.62495 14.4381 5.62495C14.4381 5.62495 14.4381 5.62495 14.4381 5.62495C14.4381 5.62495 14.4381 5.62495 14.4381 5.62495C14.4381 5.62495 14.4381 5.62495 14.4381 5.62495C14.4381 5.62495 14.4381 5.62495 14.4381 5.62495C14.4381 5.62495 14.4381 5.62495 14.4381 5.62495C14.4381 5.62495 14.4381 5.62495 14.4381 5.62495C14.4381 5.62494 14.4381 5.62494 14.4381 5.62494C14.4381 5.62494 14.4381 5.62494 14.4381 5.62494C14.4381 5.62494 14.4381 5.62494 14.4381 5.62494C14.4381 5.62494 14.4381 5.62494 14.4381 5.62494C14.4381 5.62494 14.4381 5.62494 14.4381 5.62494C14.4381 5.62494 14.4381 5.62494 14.4381 5.62494C14.4381 5.62494 14.4381 5.62494 14.4381 5.62494C14.4381 5.62494 14.4381 5.62494 14.4381 5.62493C14.4381 5.62493 14.4381 5.62493 14.4381 5.62493C14.4381 5.62493 14.4381 5.62493 14.4381 5.62493C14.4381 5.62493 14.4381 5.62493 14.4381 5.62493C14.4381 5.62493 14.4381 5.62493 14.4381 5.62493C14.4381 5.62493 14.4381 5.62493 14.4381 5.62493C14.4381 5.62493 14.4381 5.62493 14.4381 5.62493C14.4381 5.62493 14.4381 5.62493 14.4381 5.62493C14.4381 5.62493 14.4381 5.62492 14.4381 5.62492C14.4381 5.62492 14.4381 5.62492 14.4381 5.62492C14.4381 5.62492 14.4381 5.62492 14.4381 5.62492C14.4381 5.62492 14.4381 5.62492 14.4381 5.62492C14.4381 5.62492 14.4381 5.62492 14.4381 5.62492C14.4381 5.62492 14.4381 5.62492 14.4381 5.62492C14.4381 5.62492 14.4381 5.62492 14.4381 5.62492C14.4381 5.62492 14.4381 5.62492 14.4381 5.62492C14.4381 5.62491 14.4381 5.62491 14.4381 5.62491C14.4381 5.62491 14.4381 5.62491 14.4381 5.62491C14.4381 5.62491 14.4381 5.62491 14.4381 5.62491C14.4381 5.62491 14.4381 5.62491 14.4381 5.62491C14.4381 5.62491 14.4381 5.62491 14.4381 5.62491C14.4381 5.62491 14.4381 5.62491 14.4381 5.62491C14.4381 5.62491 14.4381 5.62491 14.4381 5.62491C14.4381 5.62491 14.4381 5.62491 14.4381 5.6249C14.4381 5.6249 14.4381 5.6249 14.4381 5.6249C14.4381 5.6249 14.4381 5.6249 14.4381 5.6249C14.4381 5.6249 14.4381 5.6249 14.4381 5.6249C14.4381 5.6249 14.4381 5.6249 14.4381 5.6249C14.4381 5.6249 14.4381 5.6249 14.4381 5.6249C14.4381 5.6249 14.4381 5.6249 14.4381 5.6249C14.4381 5.6249 14.4381 5.6249 14.4381 5.6249C14.4381 5.6249 14.4381 5.62489 14.4381 5.62489C14.4381 5.62489 14.4381 5.62489 14.4381 5.62489C14.4381 5.62489 14.4381 5.62489 14.4381 5.62489C14.4381 5.62489 14.4381 5.62489 14.4381 5.62489C14.4381 5.62489 14.4381 5.62489 14.4381 5.62489C14.4381 5.62489 14.4381 5.62489 14.4381 5.62489C14.4381 5.62489 14.4381 5.62489 14.4381 5.62489C14.4381 5.62489 14.4381 5.62489 14.4381 5.62489C14.4381 5.62489 14.4381 5.62488 14.4381 5.62488C14.4381 5.62488 14.4381 5.62488 14.4381 5.62488C14.4381 5.62488 14.4381 5.62488 14.4381 5.62488C14.4381 5.62488 14.4381 5.62488 14.4381 5.62488C14.4381 5.62488 14.4381 5.62488 14.4381 5.62488C14.4381 5.62488 14.4381 5.62488 14.4381 5.62488C14.4381 5.62488 14.4381 5.62488 14.4381 5.62488C14.4381 5.62488 14.4381 5.62488 14.4381 5.62488C14.4381 5.62487 14.4381 5.62487 14.4381 5.62487C14.4381 5.62487 14.4381 5.62487 14.4381 5.62487C14.4381 5.62487 14.4381 5.62487 14.4381 5.62487C14.4381 5.62487 14.4381 5.62487 14.4381 5.62487C14.4381 5.62487 14.4381 5.62487 14.4381 5.62487C14.4381 5.62487 14.4381 5.62487 14.4381 5.62487C14.4381 5.62487 14.4381 5.62487 14.4381 5.62487C14.4381 5.62487 14.4381 5.62487 14.4381 5.62486C14.4381 5.62486 14.4381 5.62486 14.4381 5.62486C14.4381 5.62486 14.4381 5.62486 14.4381 5.62486C14.4381 5.62486 14.4381 5.62486 14.4381 5.62486C14.4381 5.62486 14.4381 5.62486 14.4381 5.62486C14.4381 5.62486 14.4381 5.62486 14.4381 5.62486C14.4381 5.62486 14.4381 5.62486 14.4381 5.62486C14.4381 5.62486 14.4381 5.62486 14.4381 5.62486C14.4381 5.62486 14.4381 5.62485 14.4381 5.62485C14.4381 5.62485 14.4381 5.62485 14.4381 5.62485C14.4381 5.62485 14.4381 5.62485 14.4381 5.62485C14.4381 5.62485 14.4381 5.62485 14.4381 5.62485C14.4381 5.62485 14.4381 5.62485 14.4381 5.62485C14.4381 5.62485 14.4381 5.62485 14.4381 5.62485C14.4381 5.62485 14.4381 5.62485 14.4381 5.62485C14.4381 5.62485 14.4381 5.62485 14.4381 5.62485C14.4381 5.62484 14.4381 5.62484 14.4381 5.62484C14.4381 5.62484 14.4381 5.62484 14.4381 5.62484C14.4381 5.62484 14.4381 5.62484 14.4381 5.62484C14.4381 5.62484 14.4381 5.62484 14.4381 5.62484C14.4381 5.62484 14.4381 5.62484 14.4381 5.62484C14.4381 5.62484 14.4381 5.62484 14.4381 5.62484C14.4381 5.62484 14.4381 5.62484 14.4381 5.62484C14.4381 5.62484 14.4381 5.62484 14.4381 5.62483C14.4381 5.62483 14.4381 5.62483 14.4381 5.62483C14.4381 5.62483 14.4381 5.62483 14.4381 5.62483C14.4381 5.62483 14.4381 5.62483 14.4381 5.62483C14.4381 5.62483 14.4381 5.62483 14.4381 5.62483C14.4381 5.62483 14.4381 5.62483 14.4381 5.62483C14.4381 5.62483 14.4381 5.62483 14.4381 5.62483C14.4381 5.62483 14.4381 5.62483 14.4381 5.62483C14.4381 5.62483 14.4381 5.62482 14.4381 5.62482C14.4381 5.62482 14.4381 5.62482 14.4381 5.62482C14.4381 5.62482 14.4381 5.62482 14.4381 5.62482C14.4381 5.62482 14.4381 5.62482 14.4381 5.62482C14.4381 5.62482 14.4381 5.62482 14.4381 5.62482C14.4381 5.62482 14.4381 5.62482 14.4381 5.62482C14.4381 5.62482 14.4381 5.62482 14.4381 5.62482C14.4381 5.62482 14.4381 5.62482 14.4381 5.62481C14.4381 5.62481 14.4381 5.62481 14.4381 5.62481C14.4381 5.62481 14.4381 5.62481 14.4381 5.62481C14.4381 5.62481 14.4381 5.62481 14.4381 5.62481C14.4381 5.62481 14.4381 5.62481 14.4381 5.62481C14.4381 5.62481 14.4381 5.62481 14.4381 5.62481C14.4381 5.62481 14.4381 5.62481 14.4381 5.62481C14.4381 5.62481 14.4381 5.62481 14.4381 5.62481C14.4381 5.62481 14.4381 5.6248 14.4381 5.6248C14.4381 5.6248 14.4381 5.6248 14.4381 5.6248C14.4381 5.6248 14.4381 5.6248 14.4381 5.6248C14.4381 5.6248 14.4381 5.6248 14.4381 5.6248C14.4381 5.6248 14.4381 5.6248 14.4381 5.6248C14.4381 5.6248 14.4381 5.6248 14.4381 5.6248C14.4381 5.6248 14.4381 5.6248 14.4381 5.6248C14.4381 5.6248 14.4381 5.6248 14.4381 5.6248C14.4381 5.6248 14.4381 5.62479 14.4381 5.62479C14.4381 5.62479 14.4381 5.62479 14.4381 5.62479C14.4381 5.62479 14.4381 5.62479 14.4381 5.62479C14.4381 5.62479 14.4381 5.62479 14.4381 5.62479C14.4381 5.62479 14.4381 5.62479 14.4381 5.62479C14.4381 5.62479 14.4381 5.62479 14.4381 5.62479C14.4381 5.62479 14.4381 5.62479 14.4381 5.62479C14.4381 5.62479 14.4381 5.62479 14.4381 5.62479C14.4381 5.62478 14.4381 5.62478 14.4381 5.62478C14.4381 5.62478 14.4381 5.62478 14.4381 5.62478C14.4381 5.62478 14.4381 5.62478 14.4381 5.62478C14.4381 5.62478 14.4381 5.62478 14.4381 5.62478C14.4381 5.62478 14.4381 5.62478 14.4381 5.62478C14.4381 5.62478 14.4381 5.62478 14.4381 5.62478C14.4381 5.62478 14.4381 5.62478 14.4381 5.62478C14.4381 5.62478 14.4381 5.62478 14.4381 5.62477C14.4381 5.62477 14.4381 5.62477 14.4381 5.62477C14.4381 5.62477 14.4381 5.62477 14.4381 5.62477C14.4381 5.62477 14.4381 5.62477 14.4381 5.62477C14.4381 5.62477 14.4381 5.62477 14.4381 5.62477C14.4381 5.62477 14.4381 5.62477 14.4381 5.62477C14.4381 5.62477 14.4381 5.62477 14.4381 5.62477C14.4381 5.62477 14.4381 5.62477 14.4381 5.62477C14.4381 5.62477 14.4381 5.62476 14.4381 5.62476C14.4381 5.62476 14.4381 5.62476 14.4381 5.62476C14.4381 5.62476 14.4381 5.62476 14.4381 5.62476C14.4381 5.62476 14.4381 5.62476 14.4381 5.62476C14.4381 5.62476 14.4381 5.62476 14.4381 5.62476C14.4381 5.62476 14.4381 5.62476 14.4381 5.62476C14.4381 5.62476 14.4381 5.62476 14.4381 5.62476C14.4381 5.62476 14.4381 5.62476 14.4381 5.62476C14.4381 5.62475 14.4381 5.62475 14.4381 5.62475C14.4381 5.62475 14.4381 5.62475 14.4381 5.62475C14.4381 5.62475 14.4381 5.62475 14.4381 5.62475C14.4381 5.62475 14.4381 5.62475 14.4381 5.62475C14.4381 5.62475 14.4381 5.62475 14.4381 5.62475C14.4381 5.62475 14.4381 5.62475 14.4381 5.62475C14.4381 5.62475 14.4381 5.62475 14.4381 5.62475C14.4381 5.62475 14.4381 5.62475 14.4381 5.62474C14.4381 5.62474 14.4381 5.62474 14.4381 5.62474C14.4381 5.62474 14.4381 5.62474 14.4381 5.62474C14.4381 5.62474 14.4381 5.62474 14.4381 5.62474C14.4381 5.62474 14.4381 5.62474 14.4381 5.62474C14.4381 5.62474 14.4381 5.62474 14.4381 5.62474C14.4381 5.62474 14.4381 5.62474 14.4381 5.62474C14.4381 5.62474 14.4381 5.62474 14.4381 5.62474C14.4381 5.62474 14.4381 5.62473 14.4381 5.62473C14.4381 5.62473 14.4381 5.62473 14.4381 5.62473C14.4381 5.62473 14.4381 5.62473 14.4381 5.62473C14.4381 5.62473 14.4381 5.62473 14.4381 5.62473C14.4381 5.62473 14.4381 5.62473 14.4381 5.62473C14.4381 5.62473 14.4381 5.62473 14.4381 5.62473C14.4381 5.62473 14.4381 5.62473 14.4381 5.62473C14.4381 5.62473 14.4381 5.62473 14.4381 5.62473C14.4381 5.62472 14.4381 5.62472 14.4381 5.62472C14.4381 5.62472 14.4381 5.62472 14.4381 5.62472C14.4381 5.62472 14.4381 5.62472 14.4381 5.62472C14.4381 5.62472 14.4381 5.62472 14.4381 5.62472C14.4381 5.62472 14.4381 5.62472 14.4381 5.62472C14.4381 5.62472 14.4381 5.62472 14.4381 5.62472C14.4381 5.62472 14.4381 5.62472 14.4381 5.62472C14.4381 5.62472 14.4381 5.62472 14.4381 5.62471C14.4381 5.62471 14.4381 5.62471 14.4381 5.62471C14.4381 5.62471 14.4381 5.62471 14.4381 5.62471C14.4381 5.62471 14.4381 5.62471 14.4381 5.62471C14.4381 5.62471 14.4381 5.62471 14.4381 5.62471C14.4381 5.62471 14.4381 5.62471 14.4381 5.62471C14.4381 5.62471 14.4381 5.62471 14.4381 5.62471C14.4381 5.62471 14.4381 5.62471 14.4381 5.62471C14.4381 5.62471 14.4381 5.6247 14.4381 5.6247C14.4381 5.6247 14.4381 5.6247 14.4381 5.6247C14.4381 5.6247 14.4381 5.6247 14.4381 5.6247C14.4381 5.6247 14.4381 5.6247 14.4381 5.6247C14.4381 5.6247 14.4381 5.6247 14.4381 5.6247C14.4381 5.6247 14.4381 5.6247 14.4381 5.6247C14.4381 5.6247 14.4381 5.6247 14.4381 5.6247C14.4381 5.6247 14.4381 5.6247 14.4381 5.6247C14.4381 5.62469 14.4381 5.62469 14.4381 5.62469C14.4381 5.62469 14.4381 5.62469 14.4381 5.62469C14.4381 5.62469 14.4381 5.62469 14.4381 5.62469C14.4381 5.62469 14.4381 5.62469 14.4381 5.62469C14.4381 5.62469 14.4381 5.62469 14.4381 5.62469C14.4381 5.62469 14.4381 5.62469 14.4381 5.62469C14.4381 5.62469 14.4381 5.62469 14.4381 5.62469C14.4381 5.62469 14.4381 5.62469 14.4381 5.62468C14.4381 5.62468 14.4381 5.62468 14.4381 5.62468C14.4381 5.62468 14.4381 5.62468 14.4381 5.62468C14.4381 5.62468 14.4381 5.62468 14.4381 5.62468C14.4381 5.62468 14.4381 5.62468 14.4381 5.62468C14.4381 5.62468 14.4381 5.62468 14.4381 5.62468C14.4381 5.62468 14.4381 5.62468 14.4381 5.62468C14.4381 5.62468 14.4381 5.62468 14.4381 5.62468C14.4381 5.62468 14.4381 5.62467 14.4381 5.62467C14.4381 5.62467 14.4381 5.62467 14.4381 5.62467C14.4381 5.62467 14.4381 5.62467 14.4381 5.62467C14.4381 5.62467 14.4381 5.62467 14.4381 5.62467C14.4381 5.62467 14.4381 5.62467 14.4381 5.62467C14.4381 5.62467 14.4381 5.62467 14.4381 5.62467C14.4381 5.62467 14.4381 5.62467 14.4381 5.62467C14.4381 5.62467 14.4381 5.62467 14.4381 5.62467C14.4381 5.62466 14.4381 5.62466 14.4381 5.62466C14.4381 5.62466 14.4381 5.62466 14.4381 5.62466C14.4381 5.62466 14.4381 5.62466 14.4381 5.62466C14.4381 5.62466 14.4381 5.62466 14.4381 5.62466C14.4381 5.62466 14.4381 5.62466 14.4381 5.62466C14.4381 5.62466 14.4381 5.62466 14.4381 5.62466C14.4381 5.62466 14.4381 5.62466 14.4381 5.62466C14.4381 5.62466 14.4381 5.62466 14.4381 5.62465C14.4381 5.62465 14.4381 5.62465 14.4381 5.62465C14.4381 5.62465 14.4381 5.62465 14.4381 5.62465C14.4381 5.62465 14.4381 5.62465 14.4381 5.62465C14.4381 5.62465 14.4381 5.62465 14.4381 5.62465C14.4381 5.62465 14.4381 5.62465 14.4381 5.62465C14.4381 5.62465 14.4381 5.62465 14.4381 5.62465C14.4381 5.62465 14.4381 5.62465 14.4381 5.62465C14.4381 5.62465 14.4381 5.62464 14.4381 5.62464C14.4381 5.62464 14.4381 5.62464 14.4381 5.62464C14.4381 5.62464 14.4381 5.62464 14.4381 5.62464C14.4381 5.62464 14.4381 5.62464 14.4381 5.62464C14.4381 5.62464 14.4381 5.62464 14.4381 5.62464C14.4381 5.62464 14.4381 5.62464 14.4381 5.62464C14.4381 5.62464 14.4381 5.62464 14.4381 5.62464C14.4381 5.62464 14.4381 5.62464 14.4381 5.62464C14.4381 5.62463 14.4381 5.62463 14.4381 5.62463C14.4381 5.62463 14.4381 5.62463 14.4381 5.62463C14.4381 5.62463 14.4381 5.62463 14.4381 5.62463C14.4381 5.62463 14.4381 5.62463 14.4381 5.62463C14.4381 5.62463 14.4381 5.62463 14.4381 5.62463C14.4381 5.62463 14.4381 5.62463 14.4381 5.62463C14.4381 5.62463 14.4381 5.62463 14.4381 5.62463C14.4381 5.62463 14.4381 5.62463 14.4381 5.62462C14.4381 5.62462 14.4381 5.62462 14.4381 5.62462C14.4381 5.62462 14.4381 5.62462 14.4381 5.62462C14.4381 5.62462 14.4381 5.62462 14.4381 5.62462C14.4381 5.62462 14.4381 5.62462 14.4381 5.62462C14.4381 5.62462 14.4381 5.62462 14.4381 5.62462C14.4381 5.62462 14.4381 5.62462 14.4381 5.62462C14.4381 5.62462 14.4381 5.62462 14.4381 5.62462C14.4381 5.62462 14.4381 5.62461 14.4381 5.62461C14.4381 5.62461 14.4381 5.62461 14.4381 5.62461C14.4381 5.62461 14.4381 5.62461 14.4381 5.62461C14.4381 5.62461 14.4381 5.62461 14.4381 5.62461C14.4381 5.62461 14.4381 5.62461 14.4381 5.62461C14.4381 5.62461 14.4381 5.62461 14.4381 5.62461C14.4381 5.62461 14.4381 5.62461 14.4381 5.62461C14.4381 5.62461 14.4381 5.62461 14.4381 5.62461C14.4381 5.6246 14.4381 5.6246 14.4381 5.6246C14.4381 5.6246 14.4381 5.6246 14.4381 5.6246C14.4381 5.6246 14.4381 5.6246 14.4381 5.6246C14.4381 5.6246 14.4381 5.6246 14.4381 5.6246C14.4381 5.6246 14.4381 5.6246 14.4381 5.6246C14.4381 5.6246 14.4381 5.6246 14.4381 5.6246C14.4381 5.6246 14.4381 5.6246 14.4381 5.6246C14.4381 5.6246 14.4381 5.6246 14.4381 5.62459C14.4381 5.62459 14.4381 5.62459 14.4381 5.62459C14.4381 5.62459 14.4381 5.62459 14.4381 5.62459C14.4381 5.62459 14.4381 5.62459 14.4381 5.62459C14.4381 5.62459 14.4381 5.62459 14.4381 5.62459C14.4381 5.62459 14.4381 5.62459 14.4381 5.62459C14.4381 5.62459 14.4381 5.62459 14.4381 5.62459C14.4381 5.62459 14.4381 5.62459 14.4381 5.62459C14.4381 5.62459 14.4381 5.62458 14.4381 5.62458C14.4381 5.62458 14.4381 5.62458 14.4381 5.62458C14.4381 5.62458 14.4381 5.62458 14.4381 5.62458C14.4381 5.62458 14.4381 5.62458 14.4381 5.62458C14.4381 5.62458 14.4381 5.62458 14.4381 5.62458C14.4381 5.62458 14.4381 5.62458 14.4381 5.62458C14.4381 5.62458 14.4381 5.62458 14.4381 5.62458C14.4381 5.62458 14.4381 5.62458 14.4381 5.62458C14.4381 5.62457 14.4381 5.62457 14.4381 5.62457C14.4381 5.62457 14.4381 5.62457 14.4381 5.62457C14.4381 5.62457 14.4381 5.62457 14.4381 5.62457C14.4381 5.62457 14.4381 5.62457 14.4381 5.62457C14.4381 5.62457 14.4381 5.62457 14.4381 5.62457C14.4381 5.62457 14.4381 5.62457 14.4381 5.62457C14.4381 5.62457 14.4381 5.62457 14.4381 5.62457C14.4381 5.62457 14.4381 5.62457 14.4381 5.62456C14.4381 5.62456 14.4381 5.62456 14.4381 5.62456C14.4381 5.62456 14.4381 5.62456 14.4381 5.62456C14.4381 5.62456 14.4381 5.62456 14.4381 5.62456C14.4381 5.62456 14.4381 5.62456 14.4381 5.62456C14.4381 5.62456 14.4381 5.62456 14.4381 5.62456C14.4381 5.62456 14.4381 5.62456 14.4381 5.62456C14.4381 5.62456 14.4381 5.62456 14.4381 5.62456C14.4381 5.62456 14.4381 5.62455 14.4381 5.62455C14.4381 5.62455 14.4381 5.62455 14.4381 5.62455C14.4381 5.62455 14.4381 5.62455 14.4381 5.62455C14.4381 5.62455 14.4381 5.62455 14.4381 5.62455C14.4381 5.62455 14.4381 5.62455 14.4381 5.62455C14.4381 5.62455 14.4381 5.62455 14.4381 5.62455C14.4381 5.62455 14.4381 5.62455 14.4381 5.62455C14.4381 5.62455 14.4381 5.62455 14.4381 5.62455C14.4381 5.62455 14.4381 5.62454 14.4381 5.62454C14.4381 5.62454 14.4381 5.62454 14.4381 5.62454C14.4381 5.62454 14.4381 5.62454 14.4381 5.62454C14.4381 5.62454 14.4381 5.62454 14.4381 5.62454C14.4381 5.62454 14.4381 5.62454 14.4381 5.62454C14.4381 5.62454 14.4381 5.62454 14.4381 5.62454C14.4381 5.62454 14.4381 5.62454 14.4381 5.62454C14.4381 5.62454 14.4381 5.62454 14.4381 5.62454C14.4381 5.62453 14.4381 5.62453 14.4381 5.62453C14.4381 5.62453 14.4381 5.62453 14.4381 5.62453C14.4381 5.62453 14.4381 5.62453 14.4381 5.62453C14.4381 5.62453 14.4381 5.62453 14.4381 5.62453C14.4381 5.62453 14.4381 5.62453 14.4381 5.62453C14.4381 5.62453 14.4381 5.62453 14.4381 5.62453C14.4381 5.62453 14.4381 5.62453 14.4381 5.62453C14.4381 5.62453 14.4381 5.62453 14.4381 5.62452C14.4381 5.62452 14.4381 5.62452 14.4381 5.62452C14.4381 5.62452 14.4381 5.62452 14.4381 5.62452C14.4381 5.62452 14.4381 5.62452 14.4381 5.62452C14.4381 5.62452 14.4381 5.62452 14.4381 5.62452C14.4381 5.62452 14.4381 5.62452 14.4381 5.62452C14.4381 5.62452 14.4381 5.62452 14.4381 5.62452C14.4381 5.62452 14.4381 5.62452 14.4381 5.62452C14.4381 5.62452 14.4381 5.62451 14.4381 5.62451C14.4381 5.62451 14.4381 5.62451 14.4381 5.62451C14.4381 5.62451 14.4381 5.62451 14.4381 5.62451C14.4381 5.62451 14.4381 5.62451 14.4381 5.62451C14.4381 5.62451 14.4381 5.62451 14.4381 5.62451C14.4381 5.62451 14.4381 5.62451 14.4381 5.62451C14.4381 5.62451 14.4381 5.62451 14.4381 5.62451C14.4381 5.62451 14.4381 5.62451 14.4381 5.62451C14.4381 5.6245 14.4381 5.6245 14.4381 5.6245C14.4381 5.6245 14.4381 5.6245 14.4381 5.6245C14.4381 5.6245 14.4381 5.6245 14.4381 5.6245C14.4381 5.6245 14.4381 5.6245 14.4381 5.6245C14.4381 5.6245 14.4381 5.6245 14.4381 5.6245C14.4381 5.6245 14.4381 5.6245 14.4381 5.6245C14.4381 5.6245 14.4381 5.6245 14.4381 5.6245C14.4381 5.6245 14.4381 5.6245 14.4381 5.62449C14.4381 5.62449 14.4381 5.62449 14.4381 5.62449C14.4381 5.62449 14.4381 5.62449 14.4381 5.62449C14.4381 5.62449 14.4381 5.62449 14.4381 5.62449C14.4381 5.62449 14.4381 5.62449 14.4381 5.62449C14.4381 5.62449 14.4381 5.62449 14.4381 5.62449C14.4381 5.62449 14.4381 5.62449 14.4381 5.62449C14.4381 5.62449 14.4381 5.62449 14.4381 5.62449C14.4381 5.62449 14.4381 5.62448 14.4381 5.62448C14.4381 5.62448 14.4381 5.62448 14.4381 5.62448C14.4381 5.62448 14.4381 5.62448 14.4381 5.62448C14.4381 5.62448 14.4381 5.62448 14.4381 5.62448C14.4381 5.62448 14.4381 5.62448 14.4381 5.62448C14.4381 5.62448 14.4381 5.62448 14.4381 5.62448C14.4381 5.62448 14.4381 5.62448 14.4381 5.62448C14.4381 5.62448 14.4381 5.62448 14.4381 5.62448C14.4381 5.62447 14.4381 5.62447 14.4381 5.62447C14.4381 5.62447 14.4381 5.62447 14.4381 5.62447C14.4381 5.62447 14.4381 5.62447 14.4381 5.62447C14.4381 5.62447 14.4381 5.62447 14.4381 5.62447C14.4381 5.62447 14.4381 5.62447 14.4381 5.62447C14.4381 5.62447 14.4381 5.62447 14.4381 5.62447C14.4381 5.62447 14.4381 5.62447 14.4381 5.62447C14.4381 5.62447 14.4381 5.62446 14.4381 5.62446C14.4381 5.62446 14.4381 5.62446 14.4381 5.62446C14.4381 5.62446 14.4381 5.62446 14.4381 5.62446C14.4381 5.62446 14.4381 5.62446 14.4381 5.62446C14.4381 5.62446 14.4381 5.62446 14.4381 5.62446C14.4381 5.62446 14.4381 5.62446 14.4381 5.62446C14.4381 5.62446 14.4381 5.62446 14.4381 5.62446C14.4381 5.62446 14.4381 5.62446 14.4381 5.62446C14.4381 5.62446 14.4381 5.62445 14.4381 5.62445C14.4381 5.62445 14.4381 5.62445 14.4381 5.62445C14.4381 5.62445 14.4381 5.62445 14.4381 5.62445C14.4381 5.62445 14.4381 5.62445 14.4381 5.62445C14.4381 5.62445 14.4381 5.62445 14.4381 5.62445C14.4381 5.62445 14.4381 5.62445 14.4381 5.62445C14.4381 5.62445 14.4381 5.62445 14.4381 5.62445C14.4381 5.62445 14.4381 5.62445 14.4381 5.62445C14.4381 5.62444 14.4381 5.62444 14.4381 5.62444C14.4381 5.62444 14.4381 5.62444 14.4381 5.62444C14.4381 5.62444 14.4381 5.62444 14.4381 5.62444C14.4381 5.62444 14.4381 5.62444 14.4381 5.62444C14.4381 5.62444 14.4381 5.62444 14.4381 5.62444C14.4381 5.62444 14.4381 5.62444 14.4381 5.62444C14.4381 5.62444 14.4381 5.62444 14.4381 5.62444C14.4381 5.62444 14.4381 5.62444 14.4381 5.62443C14.4381 5.62443 14.4381 5.62443 14.4381 5.62443C14.4381 5.62443 14.4381 5.62443 14.4381 5.62443C14.4381 5.62443 14.4381 5.62443 14.4381 5.62443C14.4381 5.62443 14.4381 5.62443 14.4381 5.62443C14.4381 5.62443 14.4381 5.62443 14.4381 5.62443C14.4381 5.62443 14.4381 5.62443 14.4381 5.62443C14.4381 5.62443 14.4381 5.62443 14.4381 5.62443C14.4381 5.62443 14.4381 5.62442 14.4381 5.62442C14.4381 5.62442 14.4381 5.62442 14.4381 5.62442C14.4381 5.62442 14.4381 5.62442 14.4381 5.62442C14.4381 5.62442 14.4381 5.62442 14.4381 5.62442C14.4381 5.62442 14.4381 5.62442 14.4381 5.62442C14.4381 5.62442 14.4381 5.62442 14.4381 5.62442C14.4381 5.62442 14.4381 5.62442 14.4381 5.62442C14.4381 5.62442 14.4381 5.62442 14.4381 5.62442C14.4381 5.62441 14.4381 5.62441 14.4381 5.62441C14.4381 5.62441 14.4381 5.62441 14.4381 5.62441C14.4381 5.62441 14.4381 5.62441 14.4381 5.62441C14.4381 5.62441 14.4381 5.62441 14.4381 5.62441C14.4381 5.62441 14.4381 5.62441 14.4381 5.62441C14.4381 5.62441 14.4381 5.62441 14.4381 5.62441C14.4381 5.62441 14.4381 5.62441 14.4381 5.62441C14.4381 5.62441 14.4381 5.62441 14.4381 5.6244C14.4381 5.6244 14.4381 5.6244 14.4381 5.6244C14.4381 5.6244 14.4381 5.6244 14.4381 5.6244C14.4381 5.6244 14.4381 5.6244 14.4381 5.6244C14.4381 5.6244 14.4381 5.6244 14.4381 5.6244C14.4381 5.6244 14.4381 5.6244 14.4381 5.6244C14.4381 5.6244 14.4381 5.6244 14.4381 5.6244C14.4381 5.6244 14.4381 5.6244 14.4381 5.6244C14.4381 5.6244 14.4381 5.62439 14.4381 5.62439C14.4381 5.62439 14.4381 5.62439 14.4381 5.62439C14.4381 5.62439 14.4381 5.62439 14.4381 5.62439C14.4381 5.62439 14.4381 5.62439 14.4381 5.62439C14.4381 5.62439 14.4381 5.62439 14.4381 5.62439C14.4381 5.62439 14.4381 5.62439 14.4381 5.62439C14.4381 5.62439 14.4381 5.62439 14.4381 5.62439C14.4381 5.62439 14.4381 5.62439 14.4381 5.62439C14.4381 5.62438 14.4381 5.62438 14.4381 5.62438C14.4381 5.62438 14.4381 5.62438 14.4381 5.62438C14.4381 5.62438 14.4381 5.62438 14.4381 5.62438C14.4381 5.62438 14.4381 5.62438 14.4381 5.62438C14.4381 5.62438 14.4381 5.62438 14.4381 5.62438C14.4381 5.62438 14.4381 5.62438 14.4381 5.62438C14.4381 5.62438 14.4381 5.62438 14.4381 5.62438C14.4381 5.62438 14.4381 5.62438 14.4381 5.62437C14.4381 5.62437 14.4381 5.62437 14.4381 5.62437C14.4381 5.62437 14.4381 5.62437 14.4381 5.62437C14.4381 5.62437 14.4381 5.62437 14.4381 5.62437C14.4381 5.62437 14.4381 5.62437 14.4381 5.62437C14.4381 5.62437 14.4381 5.62437 14.4381 5.62437C14.4381 5.62437 14.4381 5.62437 14.4381 5.62437C14.4381 5.62437 14.4381 5.62437 14.4381 5.62437C14.4381 5.62437 14.4381 5.62436 14.4381 5.62436C14.4381 5.62436 14.4381 5.62436 14.4381 5.62436C14.4381 5.62436 14.4381 5.62436 14.4381 5.62436C14.4381 5.62436 14.4381 5.62436 14.4381 5.62436C14.4381 5.62436 14.4381 5.62436 14.4381 5.62436C14.4381 5.62436 14.4381 5.62436 14.4381 5.62436C14.4381 5.62436 14.4381 5.62436 14.4381 5.62436C14.4381 5.62436 14.4381 5.62436 14.4381 5.62436C14.4381 5.62435 14.4381 5.62435 14.4381 5.62435C14.4381 5.62435 14.4381 5.62435 14.4381 5.62435C14.4381 5.62435 14.4381 5.62435 14.4381 5.62435C14.4381 5.62435 14.4381 5.62435 14.4381 5.62435C14.4381 5.62435 14.4381 5.62435 14.4381 5.62435C14.4381 5.62435 14.4381 5.62435 14.4381 5.62435C14.4381 5.62435 14.4381 5.62435 14.4381 5.62435C14.4381 5.62435 14.4381 5.62435 14.4381 5.62434C14.4381 5.62434 14.4381 5.62434 14.4381 5.62434C14.4381 5.62434 14.4381 5.62434 14.4381 5.62434C14.4381 5.62434 14.4381 5.62434 14.4381 5.62434C14.4381 5.62434 14.4381 5.62434 14.4381 5.62434C14.4381 5.62434 14.4381 5.62434 14.4381 5.62434C14.4381 5.62434 14.4381 5.62434 14.4381 5.62434C14.4381 5.62434 14.4381 5.62434 14.4381 5.62434C14.4381 5.62434 14.4381 5.62433 14.4381 5.62433C14.4381 5.62433 14.4381 5.62433 14.4381 5.62433H12.9381ZM11.0638 3.75C12.099 3.75 12.9381 4.58917 12.9381 5.62433H14.4381C14.4381 3.76074 12.9274 2.25 11.0638 2.25V3.75ZM9.18945 5.62433C9.18945 4.58917 10.0286 3.75 11.0638 3.75V2.25C9.20019 2.25 7.68945 3.76074 7.68945 5.62433H9.18945ZM9.18945 5.625C9.18945 5.625 9.18945 5.625 9.18945 5.625C9.18945 5.625 9.18945 5.625 9.18945 5.625C9.18945 5.625 9.18945 5.625 9.18945 5.625C9.18945 5.625 9.18945 5.625 9.18945 5.62499C9.18945 5.62499 9.18945 5.62499 9.18945 5.62499C9.18945 5.62499 9.18945 5.62499 9.18945 5.62499C9.18945 5.62499 9.18945 5.62499 9.18945 5.62499C9.18945 5.62499 9.18945 5.62499 9.18945 5.62499C9.18945 5.62499 9.18945 5.62499 9.18945 5.62499C9.18945 5.62499 9.18945 5.62499 9.18945 5.62499C9.18945 5.62499 9.18945 5.62499 9.18945 5.62499C9.18945 5.62499 9.18945 5.62498 9.18945 5.62498C9.18945 5.62498 9.18945 5.62498 9.18945 5.62498C9.18945 5.62498 9.18945 5.62498 9.18945 5.62498C9.18945 5.62498 9.18945 5.62498 9.18945 5.62498C9.18945 5.62498 9.18945 5.62498 9.18945 5.62498C9.18945 5.62498 9.18945 5.62498 9.18945 5.62498C9.18945 5.62498 9.18945 5.62498 9.18945 5.62498C9.18945 5.62498 9.18945 5.62498 9.18945 5.62498C9.18945 5.62497 9.18945 5.62497 9.18945 5.62497C9.18945 5.62497 9.18945 5.62497 9.18945 5.62497C9.18945 5.62497 9.18945 5.62497 9.18945 5.62497C9.18945 5.62497 9.18945 5.62497 9.18945 5.62497C9.18945 5.62497 9.18945 5.62497 9.18945 5.62497C9.18945 5.62497 9.18945 5.62497 9.18945 5.62497C9.18945 5.62497 9.18945 5.62497 9.18945 5.62497C9.18945 5.62497 9.18945 5.62497 9.18945 5.62496C9.18945 5.62496 9.18945 5.62496 9.18945 5.62496C9.18945 5.62496 9.18945 5.62496 9.18945 5.62496C9.18945 5.62496 9.18945 5.62496 9.18945 5.62496C9.18945 5.62496 9.18945 5.62496 9.18945 5.62496C9.18945 5.62496 9.18945 5.62496 9.18945 5.62496C9.18945 5.62496 9.18945 5.62496 9.18945 5.62496C9.18945 5.62496 9.18945 5.62496 9.18945 5.62496C9.18945 5.62496 9.18945 5.62495 9.18945 5.62495C9.18945 5.62495 9.18945 5.62495 9.18945 5.62495C9.18945 5.62495 9.18945 5.62495 9.18945 5.62495C9.18945 5.62495 9.18945 5.62495 9.18945 5.62495C9.18945 5.62495 9.18945 5.62495 9.18945 5.62495C9.18945 5.62495 9.18945 5.62495 9.18945 5.62495C9.18945 5.62495 9.18945 5.62495 9.18945 5.62495C9.18945 5.62495 9.18945 5.62495 9.18945 5.62495C9.18945 5.62494 9.18945 5.62494 9.18945 5.62494C9.18945 5.62494 9.18945 5.62494 9.18945 5.62494C9.18945 5.62494 9.18945 5.62494 9.18945 5.62494C9.18945 5.62494 9.18945 5.62494 9.18945 5.62494C9.18945 5.62494 9.18945 5.62494 9.18945 5.62494C9.18945 5.62494 9.18945 5.62494 9.18945 5.62494C9.18945 5.62494 9.18945 5.62494 9.18945 5.62494C9.18945 5.62494 9.18945 5.62494 9.18945 5.62493C9.18945 5.62493 9.18945 5.62493 9.18945 5.62493C9.18945 5.62493 9.18945 5.62493 9.18945 5.62493C9.18945 5.62493 9.18945 5.62493 9.18945 5.62493C9.18945 5.62493 9.18945 5.62493 9.18945 5.62493C9.18945 5.62493 9.18945 5.62493 9.18945 5.62493C9.18945 5.62493 9.18945 5.62493 9.18945 5.62493C9.18945 5.62493 9.18945 5.62493 9.18945 5.62493C9.18945 5.62493 9.18945 5.62492 9.18945 5.62492C9.18945 5.62492 9.18945 5.62492 9.18945 5.62492C9.18945 5.62492 9.18945 5.62492 9.18945 5.62492C9.18945 5.62492 9.18945 5.62492 9.18945 5.62492C9.18945 5.62492 9.18945 5.62492 9.18945 5.62492C9.18945 5.62492 9.18945 5.62492 9.18945 5.62492C9.18945 5.62492 9.18945 5.62492 9.18945 5.62492C9.18945 5.62492 9.18945 5.62492 9.18945 5.62492C9.18945 5.62491 9.18945 5.62491 9.18945 5.62491C9.18945 5.62491 9.18945 5.62491 9.18945 5.62491C9.18945 5.62491 9.18945 5.62491 9.18945 5.62491C9.18945 5.62491 9.18945 5.62491 9.18945 5.62491C9.18945 5.62491 9.18945 5.62491 9.18945 5.62491C9.18945 5.62491 9.18945 5.62491 9.18945 5.62491C9.18945 5.62491 9.18945 5.62491 9.18945 5.62491C9.18945 5.62491 9.18945 5.62491 9.18945 5.6249C9.18945 5.6249 9.18945 5.6249 9.18945 5.6249C9.18945 5.6249 9.18945 5.6249 9.18945 5.6249C9.18945 5.6249 9.18945 5.6249 9.18945 5.6249C9.18945 5.6249 9.18945 5.6249 9.18945 5.6249C9.18945 5.6249 9.18945 5.6249 9.18945 5.6249C9.18945 5.6249 9.18945 5.6249 9.18945 5.6249C9.18945 5.6249 9.18945 5.6249 9.18945 5.6249C9.18945 5.6249 9.18945 5.62489 9.18945 5.62489C9.18945 5.62489 9.18945 5.62489 9.18945 5.62489C9.18945 5.62489 9.18945 5.62489 9.18945 5.62489C9.18945 5.62489 9.18945 5.62489 9.18945 5.62489C9.18945 5.62489 9.18945 5.62489 9.18945 5.62489C9.18945 5.62489 9.18945 5.62489 9.18945 5.62489C9.18945 5.62489 9.18945 5.62489 9.18945 5.62489C9.18945 5.62489 9.18945 5.62489 9.18945 5.62489C9.18945 5.62489 9.18945 5.62488 9.18945 5.62488C9.18945 5.62488 9.18945 5.62488 9.18945 5.62488C9.18945 5.62488 9.18945 5.62488 9.18945 5.62488C9.18945 5.62488 9.18945 5.62488 9.18945 5.62488C9.18945 5.62488 9.18945 5.62488 9.18945 5.62488C9.18945 5.62488 9.18945 5.62488 9.18945 5.62488C9.18945 5.62488 9.18945 5.62488 9.18945 5.62488C9.18945 5.62488 9.18945 5.62488 9.18945 5.62488C9.18945 5.62487 9.18945 5.62487 9.18945 5.62487C9.18945 5.62487 9.18945 5.62487 9.18945 5.62487C9.18945 5.62487 9.18945 5.62487 9.18945 5.62487C9.18945 5.62487 9.18945 5.62487 9.18945 5.62487C9.18945 5.62487 9.18945 5.62487 9.18945 5.62487C9.18945 5.62487 9.18945 5.62487 9.18945 5.62487C9.18945 5.62487 9.18945 5.62487 9.18945 5.62487C9.18945 5.62487 9.18945 5.62487 9.18945 5.62486C9.18945 5.62486 9.18945 5.62486 9.18945 5.62486C9.18945 5.62486 9.18945 5.62486 9.18945 5.62486C9.18945 5.62486 9.18945 5.62486 9.18945 5.62486C9.18945 5.62486 9.18945 5.62486 9.18945 5.62486C9.18945 5.62486 9.18945 5.62486 9.18945 5.62486C9.18945 5.62486 9.18945 5.62486 9.18945 5.62486C9.18945 5.62486 9.18945 5.62486 9.18945 5.62486C9.18945 5.62486 9.18945 5.62485 9.18945 5.62485C9.18945 5.62485 9.18945 5.62485 9.18945 5.62485C9.18945 5.62485 9.18945 5.62485 9.18945 5.62485C9.18945 5.62485 9.18945 5.62485 9.18945 5.62485C9.18945 5.62485 9.18945 5.62485 9.18945 5.62485C9.18945 5.62485 9.18945 5.62485 9.18945 5.62485C9.18945 5.62485 9.18945 5.62485 9.18945 5.62485C9.18945 5.62485 9.18945 5.62485 9.18945 5.62485C9.18945 5.62484 9.18945 5.62484 9.18945 5.62484C9.18945 5.62484 9.18945 5.62484 9.18945 5.62484C9.18945 5.62484 9.18945 5.62484 9.18945 5.62484C9.18945 5.62484 9.18945 5.62484 9.18945 5.62484C9.18945 5.62484 9.18945 5.62484 9.18945 5.62484C9.18945 5.62484 9.18945 5.62484 9.18945 5.62484C9.18945 5.62484 9.18945 5.62484 9.18945 5.62484C9.18945 5.62484 9.18945 5.62484 9.18945 5.62483C9.18945 5.62483 9.18945 5.62483 9.18945 5.62483C9.18945 5.62483 9.18945 5.62483 9.18945 5.62483C9.18945 5.62483 9.18945 5.62483 9.18945 5.62483C9.18945 5.62483 9.18945 5.62483 9.18945 5.62483C9.18945 5.62483 9.18945 5.62483 9.18945 5.62483C9.18945 5.62483 9.18945 5.62483 9.18945 5.62483C9.18945 5.62483 9.18945 5.62483 9.18945 5.62483C9.18945 5.62483 9.18945 5.62482 9.18945 5.62482C9.18945 5.62482 9.18945 5.62482 9.18945 5.62482C9.18945 5.62482 9.18945 5.62482 9.18945 5.62482C9.18945 5.62482 9.18945 5.62482 9.18945 5.62482C9.18945 5.62482 9.18945 5.62482 9.18945 5.62482C9.18945 5.62482 9.18945 5.62482 9.18945 5.62482C9.18945 5.62482 9.18945 5.62482 9.18945 5.62482C9.18945 5.62482 9.18945 5.62482 9.18945 5.62481C9.18945 5.62481 9.18945 5.62481 9.18945 5.62481C9.18945 5.62481 9.18945 5.62481 9.18945 5.62481C9.18945 5.62481 9.18945 5.62481 9.18945 5.62481C9.18945 5.62481 9.18945 5.62481 9.18945 5.62481C9.18945 5.62481 9.18945 5.62481 9.18945 5.62481C9.18945 5.62481 9.18945 5.62481 9.18945 5.62481C9.18945 5.62481 9.18945 5.62481 9.18945 5.62481C9.18945 5.62481 9.18945 5.6248 9.18945 5.6248C9.18945 5.6248 9.18945 5.6248 9.18945 5.6248C9.18945 5.6248 9.18945 5.6248 9.18945 5.6248C9.18945 5.6248 9.18945 5.6248 9.18945 5.6248C9.18945 5.6248 9.18945 5.6248 9.18945 5.6248C9.18945 5.6248 9.18945 5.6248 9.18945 5.6248C9.18945 5.6248 9.18945 5.6248 9.18945 5.6248C9.18945 5.6248 9.18945 5.6248 9.18945 5.6248C9.18945 5.6248 9.18945 5.62479 9.18945 5.62479C9.18945 5.62479 9.18945 5.62479 9.18945 5.62479C9.18945 5.62479 9.18945 5.62479 9.18945 5.62479C9.18945 5.62479 9.18945 5.62479 9.18945 5.62479C9.18945 5.62479 9.18945 5.62479 9.18945 5.62479C9.18945 5.62479 9.18945 5.62479 9.18945 5.62479C9.18945 5.62479 9.18945 5.62479 9.18945 5.62479C9.18945 5.62479 9.18945 5.62479 9.18945 5.62479C9.18945 5.62478 9.18945 5.62478 9.18945 5.62478C9.18945 5.62478 9.18945 5.62478 9.18945 5.62478C9.18945 5.62478 9.18945 5.62478 9.18945 5.62478C9.18945 5.62478 9.18945 5.62478 9.18945 5.62478C9.18945 5.62478 9.18945 5.62478 9.18945 5.62478C9.18945 5.62478 9.18945 5.62478 9.18945 5.62478C9.18945 5.62478 9.18945 5.62478 9.18945 5.62478C9.18945 5.62478 9.18945 5.62478 9.18945 5.62477C9.18945 5.62477 9.18945 5.62477 9.18945 5.62477C9.18945 5.62477 9.18945 5.62477 9.18945 5.62477C9.18945 5.62477 9.18945 5.62477 9.18945 5.62477C9.18945 5.62477 9.18945 5.62477 9.18945 5.62477C9.18945 5.62477 9.18945 5.62477 9.18945 5.62477C9.18945 5.62477 9.18945 5.62477 9.18945 5.62477C9.18945 5.62477 9.18945 5.62477 9.18945 5.62477C9.18945 5.62477 9.18945 5.62476 9.18945 5.62476C9.18945 5.62476 9.18945 5.62476 9.18945 5.62476C9.18945 5.62476 9.18945 5.62476 9.18945 5.62476C9.18945 5.62476 9.18945 5.62476 9.18945 5.62476C9.18945 5.62476 9.18945 5.62476 9.18945 5.62476C9.18945 5.62476 9.18945 5.62476 9.18945 5.62476C9.18945 5.62476 9.18945 5.62476 9.18945 5.62476C9.18945 5.62476 9.18945 5.62476 9.18945 5.62476C9.18945 5.62475 9.18945 5.62475 9.18945 5.62475C9.18945 5.62475 9.18945 5.62475 9.18945 5.62475C9.18945 5.62475 9.18945 5.62475 9.18945 5.62475C9.18945 5.62475 9.18945 5.62475 9.18945 5.62475C9.18945 5.62475 9.18945 5.62475 9.18945 5.62475C9.18945 5.62475 9.18945 5.62475 9.18945 5.62475C9.18945 5.62475 9.18945 5.62475 9.18945 5.62475C9.18945 5.62475 9.18945 5.62475 9.18945 5.62474C9.18945 5.62474 9.18945 5.62474 9.18945 5.62474C9.18945 5.62474 9.18945 5.62474 9.18945 5.62474C9.18945 5.62474 9.18945 5.62474 9.18945 5.62474C9.18945 5.62474 9.18945 5.62474 9.18945 5.62474C9.18945 5.62474 9.18945 5.62474 9.18945 5.62474C9.18945 5.62474 9.18945 5.62474 9.18945 5.62474C9.18945 5.62474 9.18945 5.62474 9.18945 5.62474C9.18945 5.62474 9.18945 5.62473 9.18945 5.62473C9.18945 5.62473 9.18945 5.62473 9.18945 5.62473C9.18945 5.62473 9.18945 5.62473 9.18945 5.62473C9.18945 5.62473 9.18945 5.62473 9.18945 5.62473C9.18945 5.62473 9.18945 5.62473 9.18945 5.62473C9.18945 5.62473 9.18945 5.62473 9.18945 5.62473C9.18945 5.62473 9.18945 5.62473 9.18945 5.62473C9.18945 5.62473 9.18945 5.62473 9.18945 5.62473C9.18945 5.62472 9.18945 5.62472 9.18945 5.62472C9.18945 5.62472 9.18945 5.62472 9.18945 5.62472C9.18945 5.62472 9.18945 5.62472 9.18945 5.62472C9.18945 5.62472 9.18945 5.62472 9.18945 5.62472C9.18945 5.62472 9.18945 5.62472 9.18945 5.62472C9.18945 5.62472 9.18945 5.62472 9.18945 5.62472C9.18945 5.62472 9.18945 5.62472 9.18945 5.62472C9.18945 5.62472 9.18945 5.62472 9.18945 5.62471C9.18945 5.62471 9.18945 5.62471 9.18945 5.62471C9.18945 5.62471 9.18945 5.62471 9.18945 5.62471C9.18945 5.62471 9.18945 5.62471 9.18945 5.62471C9.18945 5.62471 9.18945 5.62471 9.18945 5.62471C9.18945 5.62471 9.18945 5.62471 9.18945 5.62471C9.18945 5.62471 9.18945 5.62471 9.18945 5.62471C9.18945 5.62471 9.18945 5.62471 9.18945 5.62471C9.18945 5.62471 9.18945 5.6247 9.18945 5.6247C9.18945 5.6247 9.18945 5.6247 9.18945 5.6247C9.18945 5.6247 9.18945 5.6247 9.18945 5.6247C9.18945 5.6247 9.18945 5.6247 9.18945 5.6247C9.18945 5.6247 9.18945 5.6247 9.18945 5.6247C9.18945 5.6247 9.18945 5.6247 9.18945 5.6247C9.18945 5.6247 9.18945 5.6247 9.18945 5.6247C9.18945 5.6247 9.18945 5.6247 9.18945 5.6247C9.18945 5.62469 9.18945 5.62469 9.18945 5.62469C9.18945 5.62469 9.18945 5.62469 9.18945 5.62469C9.18945 5.62469 9.18945 5.62469 9.18945 5.62469C9.18945 5.62469 9.18945 5.62469 9.18945 5.62469C9.18945 5.62469 9.18945 5.62469 9.18945 5.62469C9.18945 5.62469 9.18945 5.62469 9.18945 5.62469C9.18945 5.62469 9.18945 5.62469 9.18945 5.62469C9.18945 5.62469 9.18945 5.62469 9.18945 5.62468C9.18945 5.62468 9.18945 5.62468 9.18945 5.62468C9.18945 5.62468 9.18945 5.62468 9.18945 5.62468C9.18945 5.62468 9.18945 5.62468 9.18945 5.62468C9.18945 5.62468 9.18945 5.62468 9.18945 5.62468C9.18945 5.62468 9.18945 5.62468 9.18945 5.62468C9.18945 5.62468 9.18945 5.62468 9.18945 5.62468C9.18945 5.62468 9.18945 5.62468 9.18945 5.62468C9.18945 5.62468 9.18945 5.62467 9.18945 5.62467C9.18945 5.62467 9.18945 5.62467 9.18945 5.62467C9.18945 5.62467 9.18945 5.62467 9.18945 5.62467C9.18945 5.62467 9.18945 5.62467 9.18945 5.62467C9.18945 5.62467 9.18945 5.62467 9.18945 5.62467C9.18945 5.62467 9.18945 5.62467 9.18945 5.62467C9.18945 5.62467 9.18945 5.62467 9.18945 5.62467C9.18945 5.62467 9.18945 5.62467 9.18945 5.62467C9.18945 5.62466 9.18945 5.62466 9.18945 5.62466C9.18945 5.62466 9.18945 5.62466 9.18945 5.62466C9.18945 5.62466 9.18945 5.62466 9.18945 5.62466C9.18945 5.62466 9.18945 5.62466 9.18945 5.62466C9.18945 5.62466 9.18945 5.62466 9.18945 5.62466C9.18945 5.62466 9.18945 5.62466 9.18945 5.62466C9.18945 5.62466 9.18945 5.62466 9.18945 5.62466C9.18945 5.62466 9.18945 5.62466 9.18945 5.62465C9.18945 5.62465 9.18945 5.62465 9.18945 5.62465C9.18945 5.62465 9.18945 5.62465 9.18945 5.62465C9.18945 5.62465 9.18945 5.62465 9.18945 5.62465C9.18945 5.62465 9.18945 5.62465 9.18945 5.62465C9.18945 5.62465 9.18945 5.62465 9.18945 5.62465C9.18945 5.62465 9.18945 5.62465 9.18945 5.62465C9.18945 5.62465 9.18945 5.62465 9.18945 5.62465C9.18945 5.62465 9.18945 5.62464 9.18945 5.62464C9.18945 5.62464 9.18945 5.62464 9.18945 5.62464C9.18945 5.62464 9.18945 5.62464 9.18945 5.62464C9.18945 5.62464 9.18945 5.62464 9.18945 5.62464C9.18945 5.62464 9.18945 5.62464 9.18945 5.62464C9.18945 5.62464 9.18945 5.62464 9.18945 5.62464C9.18945 5.62464 9.18945 5.62464 9.18945 5.62464C9.18945 5.62464 9.18945 5.62464 9.18945 5.62464C9.18945 5.62463 9.18945 5.62463 9.18945 5.62463C9.18945 5.62463 9.18945 5.62463 9.18945 5.62463C9.18945 5.62463 9.18945 5.62463 9.18945 5.62463C9.18945 5.62463 9.18945 5.62463 9.18945 5.62463C9.18945 5.62463 9.18945 5.62463 9.18945 5.62463C9.18945 5.62463 9.18945 5.62463 9.18945 5.62463C9.18945 5.62463 9.18945 5.62463 9.18945 5.62463C9.18945 5.62463 9.18945 5.62463 9.18945 5.62462C9.18945 5.62462 9.18945 5.62462 9.18945 5.62462C9.18945 5.62462 9.18945 5.62462 9.18945 5.62462C9.18945 5.62462 9.18945 5.62462 9.18945 5.62462C9.18945 5.62462 9.18945 5.62462 9.18945 5.62462C9.18945 5.62462 9.18945 5.62462 9.18945 5.62462C9.18945 5.62462 9.18945 5.62462 9.18945 5.62462C9.18945 5.62462 9.18945 5.62462 9.18945 5.62462C9.18945 5.62462 9.18945 5.62461 9.18945 5.62461C9.18945 5.62461 9.18945 5.62461 9.18945 5.62461C9.18945 5.62461 9.18945 5.62461 9.18945 5.62461C9.18945 5.62461 9.18945 5.62461 9.18945 5.62461C9.18945 5.62461 9.18945 5.62461 9.18945 5.62461C9.18945 5.62461 9.18945 5.62461 9.18945 5.62461C9.18945 5.62461 9.18945 5.62461 9.18945 5.62461C9.18945 5.62461 9.18945 5.62461 9.18945 5.62461C9.18945 5.6246 9.18945 5.6246 9.18945 5.6246C9.18945 5.6246 9.18945 5.6246 9.18945 5.6246C9.18945 5.6246 9.18945 5.6246 9.18945 5.6246C9.18945 5.6246 9.18945 5.6246 9.18945 5.6246C9.18945 5.6246 9.18945 5.6246 9.18945 5.6246C9.18945 5.6246 9.18945 5.6246 9.18945 5.6246C9.18945 5.6246 9.18945 5.6246 9.18945 5.6246C9.18945 5.6246 9.18945 5.6246 9.18945 5.62459C9.18945 5.62459 9.18945 5.62459 9.18945 5.62459C9.18945 5.62459 9.18945 5.62459 9.18945 5.62459C9.18945 5.62459 9.18945 5.62459 9.18945 5.62459C9.18945 5.62459 9.18945 5.62459 9.18945 5.62459C9.18945 5.62459 9.18945 5.62459 9.18945 5.62459C9.18945 5.62459 9.18945 5.62459 9.18945 5.62459C9.18945 5.62459 9.18945 5.62459 9.18945 5.62459C9.18945 5.62459 9.18945 5.62458 9.18945 5.62458C9.18945 5.62458 9.18945 5.62458 9.18945 5.62458C9.18945 5.62458 9.18945 5.62458 9.18945 5.62458C9.18945 5.62458 9.18945 5.62458 9.18945 5.62458C9.18945 5.62458 9.18945 5.62458 9.18945 5.62458C9.18945 5.62458 9.18945 5.62458 9.18945 5.62458C9.18945 5.62458 9.18945 5.62458 9.18945 5.62458C9.18945 5.62458 9.18945 5.62458 9.18945 5.62458C9.18945 5.62457 9.18945 5.62457 9.18945 5.62457C9.18945 5.62457 9.18945 5.62457 9.18945 5.62457C9.18945 5.62457 9.18945 5.62457 9.18945 5.62457C9.18945 5.62457 9.18945 5.62457 9.18945 5.62457C9.18945 5.62457 9.18945 5.62457 9.18945 5.62457C9.18945 5.62457 9.18945 5.62457 9.18945 5.62457C9.18945 5.62457 9.18945 5.62457 9.18945 5.62457C9.18945 5.62457 9.18945 5.62457 9.18945 5.62456C9.18945 5.62456 9.18945 5.62456 9.18945 5.62456C9.18945 5.62456 9.18945 5.62456 9.18945 5.62456C9.18945 5.62456 9.18945 5.62456 9.18945 5.62456C9.18945 5.62456 9.18945 5.62456 9.18945 5.62456C9.18945 5.62456 9.18945 5.62456 9.18945 5.62456C9.18945 5.62456 9.18945 5.62456 9.18945 5.62456C9.18945 5.62456 9.18945 5.62456 9.18945 5.62456C9.18945 5.62456 9.18945 5.62455 9.18945 5.62455C9.18945 5.62455 9.18945 5.62455 9.18945 5.62455C9.18945 5.62455 9.18945 5.62455 9.18945 5.62455C9.18945 5.62455 9.18945 5.62455 9.18945 5.62455C9.18945 5.62455 9.18945 5.62455 9.18945 5.62455C9.18945 5.62455 9.18945 5.62455 9.18945 5.62455C9.18945 5.62455 9.18945 5.62455 9.18945 5.62455C9.18945 5.62455 9.18945 5.62455 9.18945 5.62455C9.18945 5.62455 9.18945 5.62454 9.18945 5.62454C9.18945 5.62454 9.18945 5.62454 9.18945 5.62454C9.18945 5.62454 9.18945 5.62454 9.18945 5.62454C9.18945 5.62454 9.18945 5.62454 9.18945 5.62454C9.18945 5.62454 9.18945 5.62454 9.18945 5.62454C9.18945 5.62454 9.18945 5.62454 9.18945 5.62454C9.18945 5.62454 9.18945 5.62454 9.18945 5.62454C9.18945 5.62454 9.18945 5.62454 9.18945 5.62454C9.18945 5.62453 9.18945 5.62453 9.18945 5.62453C9.18945 5.62453 9.18945 5.62453 9.18945 5.62453C9.18945 5.62453 9.18945 5.62453 9.18945 5.62453C9.18945 5.62453 9.18945 5.62453 9.18945 5.62453C9.18945 5.62453 9.18945 5.62453 9.18945 5.62453C9.18945 5.62453 9.18945 5.62453 9.18945 5.62453C9.18945 5.62453 9.18945 5.62453 9.18945 5.62453C9.18945 5.62453 9.18945 5.62453 9.18945 5.62452C9.18945 5.62452 9.18945 5.62452 9.18945 5.62452C9.18945 5.62452 9.18945 5.62452 9.18945 5.62452C9.18945 5.62452 9.18945 5.62452 9.18945 5.62452C9.18945 5.62452 9.18945 5.62452 9.18945 5.62452C9.18945 5.62452 9.18945 5.62452 9.18945 5.62452C9.18945 5.62452 9.18945 5.62452 9.18945 5.62452C9.18945 5.62452 9.18945 5.62452 9.18945 5.62452C9.18945 5.62452 9.18945 5.62451 9.18945 5.62451C9.18945 5.62451 9.18945 5.62451 9.18945 5.62451C9.18945 5.62451 9.18945 5.62451 9.18945 5.62451C9.18945 5.62451 9.18945 5.62451 9.18945 5.62451C9.18945 5.62451 9.18945 5.62451 9.18945 5.62451C9.18945 5.62451 9.18945 5.62451 9.18945 5.62451C9.18945 5.62451 9.18945 5.62451 9.18945 5.62451C9.18945 5.62451 9.18945 5.62451 9.18945 5.62451C9.18945 5.6245 9.18945 5.6245 9.18945 5.6245C9.18945 5.6245 9.18945 5.6245 9.18945 5.6245C9.18945 5.6245 9.18945 5.6245 9.18945 5.6245C9.18945 5.6245 9.18945 5.6245 9.18945 5.6245C9.18945 5.6245 9.18945 5.6245 9.18945 5.6245C9.18945 5.6245 9.18945 5.6245 9.18945 5.6245C9.18945 5.6245 9.18945 5.6245 9.18945 5.6245C9.18945 5.6245 9.18945 5.6245 9.18945 5.62449C9.18945 5.62449 9.18945 5.62449 9.18945 5.62449C9.18945 5.62449 9.18945 5.62449 9.18945 5.62449C9.18945 5.62449 9.18945 5.62449 9.18945 5.62449C9.18945 5.62449 9.18945 5.62449 9.18945 5.62449C9.18945 5.62449 9.18945 5.62449 9.18945 5.62449C9.18945 5.62449 9.18945 5.62449 9.18945 5.62449C9.18945 5.62449 9.18945 5.62449 9.18945 5.62449C9.18945 5.62449 9.18945 5.62448 9.18945 5.62448C9.18945 5.62448 9.18945 5.62448 9.18945 5.62448C9.18945 5.62448 9.18945 5.62448 9.18945 5.62448C9.18945 5.62448 9.18945 5.62448 9.18945 5.62448C9.18945 5.62448 9.18945 5.62448 9.18945 5.62448C9.18945 5.62448 9.18945 5.62448 9.18945 5.62448C9.18945 5.62448 9.18945 5.62448 9.18945 5.62448C9.18945 5.62448 9.18945 5.62448 9.18945 5.62448C9.18945 5.62447 9.18945 5.62447 9.18945 5.62447C9.18945 5.62447 9.18945 5.62447 9.18945 5.62447C9.18945 5.62447 9.18945 5.62447 9.18945 5.62447C9.18945 5.62447 9.18945 5.62447 9.18945 5.62447C9.18945 5.62447 9.18945 5.62447 9.18945 5.62447C9.18945 5.62447 9.18945 5.62447 9.18945 5.62447C9.18945 5.62447 9.18945 5.62447 9.18945 5.62447C9.18945 5.62447 9.18945 5.62446 9.18945 5.62446C9.18945 5.62446 9.18945 5.62446 9.18945 5.62446C9.18945 5.62446 9.18945 5.62446 9.18945 5.62446C9.18945 5.62446 9.18945 5.62446 9.18945 5.62446C9.18945 5.62446 9.18945 5.62446 9.18945 5.62446C9.18945 5.62446 9.18945 5.62446 9.18945 5.62446C9.18945 5.62446 9.18945 5.62446 9.18945 5.62446C9.18945 5.62446 9.18945 5.62446 9.18945 5.62446C9.18945 5.62446 9.18945 5.62445 9.18945 5.62445C9.18945 5.62445 9.18945 5.62445 9.18945 5.62445C9.18945 5.62445 9.18945 5.62445 9.18945 5.62445C9.18945 5.62445 9.18945 5.62445 9.18945 5.62445C9.18945 5.62445 9.18945 5.62445 9.18945 5.62445C9.18945 5.62445 9.18945 5.62445 9.18945 5.62445C9.18945 5.62445 9.18945 5.62445 9.18945 5.62445C9.18945 5.62445 9.18945 5.62445 9.18945 5.62445C9.18945 5.62444 9.18945 5.62444 9.18945 5.62444C9.18945 5.62444 9.18945 5.62444 9.18945 5.62444C9.18945 5.62444 9.18945 5.62444 9.18945 5.62444C9.18945 5.62444 9.18945 5.62444 9.18945 5.62444C9.18945 5.62444 9.18945 5.62444 9.18945 5.62444C9.18945 5.62444 9.18945 5.62444 9.18945 5.62444C9.18945 5.62444 9.18945 5.62444 9.18945 5.62444C9.18945 5.62444 9.18945 5.62444 9.18945 5.62443C9.18945 5.62443 9.18945 5.62443 9.18945 5.62443C9.18945 5.62443 9.18945 5.62443 9.18945 5.62443C9.18945 5.62443 9.18945 5.62443 9.18945 5.62443C9.18945 5.62443 9.18945 5.62443 9.18945 5.62443C9.18945 5.62443 9.18945 5.62443 9.18945 5.62443C9.18945 5.62443 9.18945 5.62443 9.18945 5.62443C9.18945 5.62443 9.18945 5.62443 9.18945 5.62443C9.18945 5.62443 9.18945 5.62442 9.18945 5.62442C9.18945 5.62442 9.18945 5.62442 9.18945 5.62442C9.18945 5.62442 9.18945 5.62442 9.18945 5.62442C9.18945 5.62442 9.18945 5.62442 9.18945 5.62442C9.18945 5.62442 9.18945 5.62442 9.18945 5.62442C9.18945 5.62442 9.18945 5.62442 9.18945 5.62442C9.18945 5.62442 9.18945 5.62442 9.18945 5.62442C9.18945 5.62442 9.18945 5.62442 9.18945 5.62442C9.18945 5.62441 9.18945 5.62441 9.18945 5.62441C9.18945 5.62441 9.18945 5.62441 9.18945 5.62441C9.18945 5.62441 9.18945 5.62441 9.18945 5.62441C9.18945 5.62441 9.18945 5.62441 9.18945 5.62441C9.18945 5.62441 9.18945 5.62441 9.18945 5.62441C9.18945 5.62441 9.18945 5.62441 9.18945 5.62441C9.18945 5.62441 9.18945 5.62441 9.18945 5.62441C9.18945 5.62441 9.18945 5.62441 9.18945 5.6244C9.18945 5.6244 9.18945 5.6244 9.18945 5.6244C9.18945 5.6244 9.18945 5.6244 9.18945 5.6244C9.18945 5.6244 9.18945 5.6244 9.18945 5.6244C9.18945 5.6244 9.18945 5.6244 9.18945 5.6244C9.18945 5.6244 9.18945 5.6244 9.18945 5.6244C9.18945 5.6244 9.18945 5.6244 9.18945 5.6244C9.18945 5.6244 9.18945 5.6244 9.18945 5.6244C9.18945 5.6244 9.18945 5.62439 9.18945 5.62439C9.18945 5.62439 9.18945 5.62439 9.18945 5.62439C9.18945 5.62439 9.18945 5.62439 9.18945 5.62439C9.18945 5.62439 9.18945 5.62439 9.18945 5.62439C9.18945 5.62439 9.18945 5.62439 9.18945 5.62439C9.18945 5.62439 9.18945 5.62439 9.18945 5.62439C9.18945 5.62439 9.18945 5.62439 9.18945 5.62439C9.18945 5.62439 9.18945 5.62439 9.18945 5.62439C9.18945 5.62438 9.18945 5.62438 9.18945 5.62438C9.18945 5.62438 9.18945 5.62438 9.18945 5.62438C9.18945 5.62438 9.18945 5.62438 9.18945 5.62438C9.18945 5.62438 9.18945 5.62438 9.18945 5.62438C9.18945 5.62438 9.18945 5.62438 9.18945 5.62438C9.18945 5.62438 9.18945 5.62438 9.18945 5.62438C9.18945 5.62438 9.18945 5.62438 9.18945 5.62438C9.18945 5.62438 9.18945 5.62438 9.18945 5.62437C9.18945 5.62437 9.18945 5.62437 9.18945 5.62437C9.18945 5.62437 9.18945 5.62437 9.18945 5.62437C9.18945 5.62437 9.18945 5.62437 9.18945 5.62437C9.18945 5.62437 9.18945 5.62437 9.18945 5.62437C9.18945 5.62437 9.18945 5.62437 9.18945 5.62437C9.18945 5.62437 9.18945 5.62437 9.18945 5.62437C9.18945 5.62437 9.18945 5.62437 9.18945 5.62437C9.18945 5.62437 9.18945 5.62436 9.18945 5.62436C9.18945 5.62436 9.18945 5.62436 9.18945 5.62436C9.18945 5.62436 9.18945 5.62436 9.18945 5.62436C9.18945 5.62436 9.18945 5.62436 9.18945 5.62436C9.18945 5.62436 9.18945 5.62436 9.18945 5.62436C9.18945 5.62436 9.18945 5.62436 9.18945 5.62436C9.18945 5.62436 9.18945 5.62436 9.18945 5.62436C9.18945 5.62436 9.18945 5.62436 9.18945 5.62436C9.18945 5.62435 9.18945 5.62435 9.18945 5.62435C9.18945 5.62435 9.18945 5.62435 9.18945 5.62435C9.18945 5.62435 9.18945 5.62435 9.18945 5.62435C9.18945 5.62435 9.18945 5.62435 9.18945 5.62435C9.18945 5.62435 9.18945 5.62435 9.18945 5.62435C9.18945 5.62435 9.18945 5.62435 9.18945 5.62435C9.18945 5.62435 9.18945 5.62435 9.18945 5.62435C9.18945 5.62435 9.18945 5.62435 9.18945 5.62434C9.18945 5.62434 9.18945 5.62434 9.18945 5.62434C9.18945 5.62434 9.18945 5.62434 9.18945 5.62434C9.18945 5.62434 9.18945 5.62434 9.18945 5.62434C9.18945 5.62434 9.18945 5.62434 9.18945 5.62434C9.18945 5.62434 9.18945 5.62434 9.18945 5.62434C9.18945 5.62434 9.18945 5.62434 9.18945 5.62434C9.18945 5.62434 9.18945 5.62434 9.18945 5.62434C9.18945 5.62434 9.18945 5.62433 9.18945 5.62433C9.18945 5.62433 9.18945 5.62433 9.18945 5.62433H7.68945C7.68945 5.62433 7.68945 5.62433 7.68945 5.62433C7.68945 5.62433 7.68945 5.62434 7.68945 5.62434C7.68945 5.62434 7.68945 5.62434 7.68945 5.62434C7.68945 5.62434 7.68945 5.62434 7.68945 5.62434C7.68945 5.62434 7.68945 5.62434 7.68945 5.62434C7.68945 5.62434 7.68945 5.62434 7.68945 5.62434C7.68945 5.62434 7.68945 5.62434 7.68945 5.62434C7.68945 5.62434 7.68945 5.62434 7.68945 5.62434C7.68945 5.62434 7.68945 5.62434 7.68945 5.62434C7.68945 5.62435 7.68945 5.62435 7.68945 5.62435C7.68945 5.62435 7.68945 5.62435 7.68945 5.62435C7.68945 5.62435 7.68945 5.62435 7.68945 5.62435C7.68945 5.62435 7.68945 5.62435 7.68945 5.62435C7.68945 5.62435 7.68945 5.62435 7.68945 5.62435C7.68945 5.62435 7.68945 5.62435 7.68945 5.62435C7.68945 5.62435 7.68945 5.62435 7.68945 5.62435C7.68945 5.62435 7.68945 5.62435 7.68945 5.62436C7.68945 5.62436 7.68945 5.62436 7.68945 5.62436C7.68945 5.62436 7.68945 5.62436 7.68945 5.62436C7.68945 5.62436 7.68945 5.62436 7.68945 5.62436C7.68945 5.62436 7.68945 5.62436 7.68945 5.62436C7.68945 5.62436 7.68945 5.62436 7.68945 5.62436C7.68945 5.62436 7.68945 5.62436 7.68945 5.62436C7.68945 5.62436 7.68945 5.62436 7.68945 5.62436C7.68945 5.62436 7.68945 5.62437 7.68945 5.62437C7.68945 5.62437 7.68945 5.62437 7.68945 5.62437C7.68945 5.62437 7.68945 5.62437 7.68945 5.62437C7.68945 5.62437 7.68945 5.62437 7.68945 5.62437C7.68945 5.62437 7.68945 5.62437 7.68945 5.62437C7.68945 5.62437 7.68945 5.62437 7.68945 5.62437C7.68945 5.62437 7.68945 5.62437 7.68945 5.62437C7.68945 5.62437 7.68945 5.62437 7.68945 5.62437C7.68945 5.62438 7.68945 5.62438 7.68945 5.62438C7.68945 5.62438 7.68945 5.62438 7.68945 5.62438C7.68945 5.62438 7.68945 5.62438 7.68945 5.62438C7.68945 5.62438 7.68945 5.62438 7.68945 5.62438C7.68945 5.62438 7.68945 5.62438 7.68945 5.62438C7.68945 5.62438 7.68945 5.62438 7.68945 5.62438C7.68945 5.62438 7.68945 5.62438 7.68945 5.62438C7.68945 5.62438 7.68945 5.62438 7.68945 5.62439C7.68945 5.62439 7.68945 5.62439 7.68945 5.62439C7.68945 5.62439 7.68945 5.62439 7.68945 5.62439C7.68945 5.62439 7.68945 5.62439 7.68945 5.62439C7.68945 5.62439 7.68945 5.62439 7.68945 5.62439C7.68945 5.62439 7.68945 5.62439 7.68945 5.62439C7.68945 5.62439 7.68945 5.62439 7.68945 5.62439C7.68945 5.62439 7.68945 5.62439 7.68945 5.62439C7.68945 5.62439 7.68945 5.6244 7.68945 5.6244C7.68945 5.6244 7.68945 5.6244 7.68945 5.6244C7.68945 5.6244 7.68945 5.6244 7.68945 5.6244C7.68945 5.6244 7.68945 5.6244 7.68945 5.6244C7.68945 5.6244 7.68945 5.6244 7.68945 5.6244C7.68945 5.6244 7.68945 5.6244 7.68945 5.6244C7.68945 5.6244 7.68945 5.6244 7.68945 5.6244C7.68945 5.6244 7.68945 5.6244 7.68945 5.6244C7.68945 5.62441 7.68945 5.62441 7.68945 5.62441C7.68945 5.62441 7.68945 5.62441 7.68945 5.62441C7.68945 5.62441 7.68945 5.62441 7.68945 5.62441C7.68945 5.62441 7.68945 5.62441 7.68945 5.62441C7.68945 5.62441 7.68945 5.62441 7.68945 5.62441C7.68945 5.62441 7.68945 5.62441 7.68945 5.62441C7.68945 5.62441 7.68945 5.62441 7.68945 5.62441C7.68945 5.62441 7.68945 5.62441 7.68945 5.62442C7.68945 5.62442 7.68945 5.62442 7.68945 5.62442C7.68945 5.62442 7.68945 5.62442 7.68945 5.62442C7.68945 5.62442 7.68945 5.62442 7.68945 5.62442C7.68945 5.62442 7.68945 5.62442 7.68945 5.62442C7.68945 5.62442 7.68945 5.62442 7.68945 5.62442C7.68945 5.62442 7.68945 5.62442 7.68945 5.62442C7.68945 5.62442 7.68945 5.62442 7.68945 5.62442C7.68945 5.62442 7.68945 5.62443 7.68945 5.62443C7.68945 5.62443 7.68945 5.62443 7.68945 5.62443C7.68945 5.62443 7.68945 5.62443 7.68945 5.62443C7.68945 5.62443 7.68945 5.62443 7.68945 5.62443C7.68945 5.62443 7.68945 5.62443 7.68945 5.62443C7.68945 5.62443 7.68945 5.62443 7.68945 5.62443C7.68945 5.62443 7.68945 5.62443 7.68945 5.62443C7.68945 5.62443 7.68945 5.62443 7.68945 5.62443C7.68945 5.62444 7.68945 5.62444 7.68945 5.62444C7.68945 5.62444 7.68945 5.62444 7.68945 5.62444C7.68945 5.62444 7.68945 5.62444 7.68945 5.62444C7.68945 5.62444 7.68945 5.62444 7.68945 5.62444C7.68945 5.62444 7.68945 5.62444 7.68945 5.62444C7.68945 5.62444 7.68945 5.62444 7.68945 5.62444C7.68945 5.62444 7.68945 5.62444 7.68945 5.62444C7.68945 5.62444 7.68945 5.62444 7.68945 5.62445C7.68945 5.62445 7.68945 5.62445 7.68945 5.62445C7.68945 5.62445 7.68945 5.62445 7.68945 5.62445C7.68945 5.62445 7.68945 5.62445 7.68945 5.62445C7.68945 5.62445 7.68945 5.62445 7.68945 5.62445C7.68945 5.62445 7.68945 5.62445 7.68945 5.62445C7.68945 5.62445 7.68945 5.62445 7.68945 5.62445C7.68945 5.62445 7.68945 5.62445 7.68945 5.62445C7.68945 5.62445 7.68945 5.62446 7.68945 5.62446C7.68945 5.62446 7.68945 5.62446 7.68945 5.62446C7.68945 5.62446 7.68945 5.62446 7.68945 5.62446C7.68945 5.62446 7.68945 5.62446 7.68945 5.62446C7.68945 5.62446 7.68945 5.62446 7.68945 5.62446C7.68945 5.62446 7.68945 5.62446 7.68945 5.62446C7.68945 5.62446 7.68945 5.62446 7.68945 5.62446C7.68945 5.62446 7.68945 5.62446 7.68945 5.62446C7.68945 5.62446 7.68945 5.62447 7.68945 5.62447C7.68945 5.62447 7.68945 5.62447 7.68945 5.62447C7.68945 5.62447 7.68945 5.62447 7.68945 5.62447C7.68945 5.62447 7.68945 5.62447 7.68945 5.62447C7.68945 5.62447 7.68945 5.62447 7.68945 5.62447C7.68945 5.62447 7.68945 5.62447 7.68945 5.62447C7.68945 5.62447 7.68945 5.62447 7.68945 5.62447C7.68945 5.62447 7.68945 5.62447 7.68945 5.62448C7.68945 5.62448 7.68945 5.62448 7.68945 5.62448C7.68945 5.62448 7.68945 5.62448 7.68945 5.62448C7.68945 5.62448 7.68945 5.62448 7.68945 5.62448C7.68945 5.62448 7.68945 5.62448 7.68945 5.62448C7.68945 5.62448 7.68945 5.62448 7.68945 5.62448C7.68945 5.62448 7.68945 5.62448 7.68945 5.62448C7.68945 5.62448 7.68945 5.62448 7.68945 5.62448C7.68945 5.62448 7.68945 5.62449 7.68945 5.62449C7.68945 5.62449 7.68945 5.62449 7.68945 5.62449C7.68945 5.62449 7.68945 5.62449 7.68945 5.62449C7.68945 5.62449 7.68945 5.62449 7.68945 5.62449C7.68945 5.62449 7.68945 5.62449 7.68945 5.62449C7.68945 5.62449 7.68945 5.62449 7.68945 5.62449C7.68945 5.62449 7.68945 5.62449 7.68945 5.62449C7.68945 5.62449 7.68945 5.62449 7.68945 5.62449C7.68945 5.6245 7.68945 5.6245 7.68945 5.6245C7.68945 5.6245 7.68945 5.6245 7.68945 5.6245C7.68945 5.6245 7.68945 5.6245 7.68945 5.6245C7.68945 5.6245 7.68945 5.6245 7.68945 5.6245C7.68945 5.6245 7.68945 5.6245 7.68945 5.6245C7.68945 5.6245 7.68945 5.6245 7.68945 5.6245C7.68945 5.6245 7.68945 5.6245 7.68945 5.6245C7.68945 5.6245 7.68945 5.6245 7.68945 5.62451C7.68945 5.62451 7.68945 5.62451 7.68945 5.62451C7.68945 5.62451 7.68945 5.62451 7.68945 5.62451C7.68945 5.62451 7.68945 5.62451 7.68945 5.62451C7.68945 5.62451 7.68945 5.62451 7.68945 5.62451C7.68945 5.62451 7.68945 5.62451 7.68945 5.62451C7.68945 5.62451 7.68945 5.62451 7.68945 5.62451C7.68945 5.62451 7.68945 5.62451 7.68945 5.62451C7.68945 5.62451 7.68945 5.62452 7.68945 5.62452C7.68945 5.62452 7.68945 5.62452 7.68945 5.62452C7.68945 5.62452 7.68945 5.62452 7.68945 5.62452C7.68945 5.62452 7.68945 5.62452 7.68945 5.62452C7.68945 5.62452 7.68945 5.62452 7.68945 5.62452C7.68945 5.62452 7.68945 5.62452 7.68945 5.62452C7.68945 5.62452 7.68945 5.62452 7.68945 5.62452C7.68945 5.62452 7.68945 5.62452 7.68945 5.62452C7.68945 5.62453 7.68945 5.62453 7.68945 5.62453C7.68945 5.62453 7.68945 5.62453 7.68945 5.62453C7.68945 5.62453 7.68945 5.62453 7.68945 5.62453C7.68945 5.62453 7.68945 5.62453 7.68945 5.62453C7.68945 5.62453 7.68945 5.62453 7.68945 5.62453C7.68945 5.62453 7.68945 5.62453 7.68945 5.62453C7.68945 5.62453 7.68945 5.62453 7.68945 5.62453C7.68945 5.62453 7.68945 5.62453 7.68945 5.62454C7.68945 5.62454 7.68945 5.62454 7.68945 5.62454C7.68945 5.62454 7.68945 5.62454 7.68945 5.62454C7.68945 5.62454 7.68945 5.62454 7.68945 5.62454C7.68945 5.62454 7.68945 5.62454 7.68945 5.62454C7.68945 5.62454 7.68945 5.62454 7.68945 5.62454C7.68945 5.62454 7.68945 5.62454 7.68945 5.62454C7.68945 5.62454 7.68945 5.62454 7.68945 5.62454C7.68945 5.62454 7.68945 5.62455 7.68945 5.62455C7.68945 5.62455 7.68945 5.62455 7.68945 5.62455C7.68945 5.62455 7.68945 5.62455 7.68945 5.62455C7.68945 5.62455 7.68945 5.62455 7.68945 5.62455C7.68945 5.62455 7.68945 5.62455 7.68945 5.62455C7.68945 5.62455 7.68945 5.62455 7.68945 5.62455C7.68945 5.62455 7.68945 5.62455 7.68945 5.62455C7.68945 5.62455 7.68945 5.62455 7.68945 5.62455C7.68945 5.62455 7.68945 5.62456 7.68945 5.62456C7.68945 5.62456 7.68945 5.62456 7.68945 5.62456C7.68945 5.62456 7.68945 5.62456 7.68945 5.62456C7.68945 5.62456 7.68945 5.62456 7.68945 5.62456C7.68945 5.62456 7.68945 5.62456 7.68945 5.62456C7.68945 5.62456 7.68945 5.62456 7.68945 5.62456C7.68945 5.62456 7.68945 5.62456 7.68945 5.62456C7.68945 5.62456 7.68945 5.62456 7.68945 5.62456C7.68945 5.62457 7.68945 5.62457 7.68945 5.62457C7.68945 5.62457 7.68945 5.62457 7.68945 5.62457C7.68945 5.62457 7.68945 5.62457 7.68945 5.62457C7.68945 5.62457 7.68945 5.62457 7.68945 5.62457C7.68945 5.62457 7.68945 5.62457 7.68945 5.62457C7.68945 5.62457 7.68945 5.62457 7.68945 5.62457C7.68945 5.62457 7.68945 5.62457 7.68945 5.62457C7.68945 5.62457 7.68945 5.62457 7.68945 5.62458C7.68945 5.62458 7.68945 5.62458 7.68945 5.62458C7.68945 5.62458 7.68945 5.62458 7.68945 5.62458C7.68945 5.62458 7.68945 5.62458 7.68945 5.62458C7.68945 5.62458 7.68945 5.62458 7.68945 5.62458C7.68945 5.62458 7.68945 5.62458 7.68945 5.62458C7.68945 5.62458 7.68945 5.62458 7.68945 5.62458C7.68945 5.62458 7.68945 5.62458 7.68945 5.62458C7.68945 5.62458 7.68945 5.62459 7.68945 5.62459C7.68945 5.62459 7.68945 5.62459 7.68945 5.62459C7.68945 5.62459 7.68945 5.62459 7.68945 5.62459C7.68945 5.62459 7.68945 5.62459 7.68945 5.62459C7.68945 5.62459 7.68945 5.62459 7.68945 5.62459C7.68945 5.62459 7.68945 5.62459 7.68945 5.62459C7.68945 5.62459 7.68945 5.62459 7.68945 5.62459C7.68945 5.62459 7.68945 5.62459 7.68945 5.62459C7.68945 5.6246 7.68945 5.6246 7.68945 5.6246C7.68945 5.6246 7.68945 5.6246 7.68945 5.6246C7.68945 5.6246 7.68945 5.6246 7.68945 5.6246C7.68945 5.6246 7.68945 5.6246 7.68945 5.6246C7.68945 5.6246 7.68945 5.6246 7.68945 5.6246C7.68945 5.6246 7.68945 5.6246 7.68945 5.6246C7.68945 5.6246 7.68945 5.6246 7.68945 5.6246C7.68945 5.6246 7.68945 5.6246 7.68945 5.62461C7.68945 5.62461 7.68945 5.62461 7.68945 5.62461C7.68945 5.62461 7.68945 5.62461 7.68945 5.62461C7.68945 5.62461 7.68945 5.62461 7.68945 5.62461C7.68945 5.62461 7.68945 5.62461 7.68945 5.62461C7.68945 5.62461 7.68945 5.62461 7.68945 5.62461C7.68945 5.62461 7.68945 5.62461 7.68945 5.62461C7.68945 5.62461 7.68945 5.62461 7.68945 5.62461C7.68945 5.62461 7.68945 5.62462 7.68945 5.62462C7.68945 5.62462 7.68945 5.62462 7.68945 5.62462C7.68945 5.62462 7.68945 5.62462 7.68945 5.62462C7.68945 5.62462 7.68945 5.62462 7.68945 5.62462C7.68945 5.62462 7.68945 5.62462 7.68945 5.62462C7.68945 5.62462 7.68945 5.62462 7.68945 5.62462C7.68945 5.62462 7.68945 5.62462 7.68945 5.62462C7.68945 5.62462 7.68945 5.62462 7.68945 5.62462C7.68945 5.62463 7.68945 5.62463 7.68945 5.62463C7.68945 5.62463 7.68945 5.62463 7.68945 5.62463C7.68945 5.62463 7.68945 5.62463 7.68945 5.62463C7.68945 5.62463 7.68945 5.62463 7.68945 5.62463C7.68945 5.62463 7.68945 5.62463 7.68945 5.62463C7.68945 5.62463 7.68945 5.62463 7.68945 5.62463C7.68945 5.62463 7.68945 5.62463 7.68945 5.62463C7.68945 5.62463 7.68945 5.62463 7.68945 5.62464C7.68945 5.62464 7.68945 5.62464 7.68945 5.62464C7.68945 5.62464 7.68945 5.62464 7.68945 5.62464C7.68945 5.62464 7.68945 5.62464 7.68945 5.62464C7.68945 5.62464 7.68945 5.62464 7.68945 5.62464C7.68945 5.62464 7.68945 5.62464 7.68945 5.62464C7.68945 5.62464 7.68945 5.62464 7.68945 5.62464C7.68945 5.62464 7.68945 5.62464 7.68945 5.62464C7.68945 5.62464 7.68945 5.62465 7.68945 5.62465C7.68945 5.62465 7.68945 5.62465 7.68945 5.62465C7.68945 5.62465 7.68945 5.62465 7.68945 5.62465C7.68945 5.62465 7.68945 5.62465 7.68945 5.62465C7.68945 5.62465 7.68945 5.62465 7.68945 5.62465C7.68945 5.62465 7.68945 5.62465 7.68945 5.62465C7.68945 5.62465 7.68945 5.62465 7.68945 5.62465C7.68945 5.62465 7.68945 5.62465 7.68945 5.62465C7.68945 5.62466 7.68945 5.62466 7.68945 5.62466C7.68945 5.62466 7.68945 5.62466 7.68945 5.62466C7.68945 5.62466 7.68945 5.62466 7.68945 5.62466C7.68945 5.62466 7.68945 5.62466 7.68945 5.62466C7.68945 5.62466 7.68945 5.62466 7.68945 5.62466C7.68945 5.62466 7.68945 5.62466 7.68945 5.62466C7.68945 5.62466 7.68945 5.62466 7.68945 5.62466C7.68945 5.62466 7.68945 5.62466 7.68945 5.62467C7.68945 5.62467 7.68945 5.62467 7.68945 5.62467C7.68945 5.62467 7.68945 5.62467 7.68945 5.62467C7.68945 5.62467 7.68945 5.62467 7.68945 5.62467C7.68945 5.62467 7.68945 5.62467 7.68945 5.62467C7.68945 5.62467 7.68945 5.62467 7.68945 5.62467C7.68945 5.62467 7.68945 5.62467 7.68945 5.62467C7.68945 5.62467 7.68945 5.62467 7.68945 5.62467C7.68945 5.62467 7.68945 5.62468 7.68945 5.62468C7.68945 5.62468 7.68945 5.62468 7.68945 5.62468C7.68945 5.62468 7.68945 5.62468 7.68945 5.62468C7.68945 5.62468 7.68945 5.62468 7.68945 5.62468C7.68945 5.62468 7.68945 5.62468 7.68945 5.62468C7.68945 5.62468 7.68945 5.62468 7.68945 5.62468C7.68945 5.62468 7.68945 5.62468 7.68945 5.62468C7.68945 5.62468 7.68945 5.62468 7.68945 5.62468C7.68945 5.62469 7.68945 5.62469 7.68945 5.62469C7.68945 5.62469 7.68945 5.62469 7.68945 5.62469C7.68945 5.62469 7.68945 5.62469 7.68945 5.62469C7.68945 5.62469 7.68945 5.62469 7.68945 5.62469C7.68945 5.62469 7.68945 5.62469 7.68945 5.62469C7.68945 5.62469 7.68945 5.62469 7.68945 5.62469C7.68945 5.62469 7.68945 5.62469 7.68945 5.62469C7.68945 5.62469 7.68945 5.62469 7.68945 5.6247C7.68945 5.6247 7.68945 5.6247 7.68945 5.6247C7.68945 5.6247 7.68945 5.6247 7.68945 5.6247C7.68945 5.6247 7.68945 5.6247 7.68945 5.6247C7.68945 5.6247 7.68945 5.6247 7.68945 5.6247C7.68945 5.6247 7.68945 5.6247 7.68945 5.6247C7.68945 5.6247 7.68945 5.6247 7.68945 5.6247C7.68945 5.6247 7.68945 5.6247 7.68945 5.6247C7.68945 5.6247 7.68945 5.62471 7.68945 5.62471C7.68945 5.62471 7.68945 5.62471 7.68945 5.62471C7.68945 5.62471 7.68945 5.62471 7.68945 5.62471C7.68945 5.62471 7.68945 5.62471 7.68945 5.62471C7.68945 5.62471 7.68945 5.62471 7.68945 5.62471C7.68945 5.62471 7.68945 5.62471 7.68945 5.62471C7.68945 5.62471 7.68945 5.62471 7.68945 5.62471C7.68945 5.62471 7.68945 5.62471 7.68945 5.62471C7.68945 5.62472 7.68945 5.62472 7.68945 5.62472C7.68945 5.62472 7.68945 5.62472 7.68945 5.62472C7.68945 5.62472 7.68945 5.62472 7.68945 5.62472C7.68945 5.62472 7.68945 5.62472 7.68945 5.62472C7.68945 5.62472 7.68945 5.62472 7.68945 5.62472C7.68945 5.62472 7.68945 5.62472 7.68945 5.62472C7.68945 5.62472 7.68945 5.62472 7.68945 5.62472C7.68945 5.62472 7.68945 5.62472 7.68945 5.62473C7.68945 5.62473 7.68945 5.62473 7.68945 5.62473C7.68945 5.62473 7.68945 5.62473 7.68945 5.62473C7.68945 5.62473 7.68945 5.62473 7.68945 5.62473C7.68945 5.62473 7.68945 5.62473 7.68945 5.62473C7.68945 5.62473 7.68945 5.62473 7.68945 5.62473C7.68945 5.62473 7.68945 5.62473 7.68945 5.62473C7.68945 5.62473 7.68945 5.62473 7.68945 5.62473C7.68945 5.62473 7.68945 5.62474 7.68945 5.62474C7.68945 5.62474 7.68945 5.62474 7.68945 5.62474C7.68945 5.62474 7.68945 5.62474 7.68945 5.62474C7.68945 5.62474 7.68945 5.62474 7.68945 5.62474C7.68945 5.62474 7.68945 5.62474 7.68945 5.62474C7.68945 5.62474 7.68945 5.62474 7.68945 5.62474C7.68945 5.62474 7.68945 5.62474 7.68945 5.62474C7.68945 5.62474 7.68945 5.62474 7.68945 5.62474C7.68945 5.62475 7.68945 5.62475 7.68945 5.62475C7.68945 5.62475 7.68945 5.62475 7.68945 5.62475C7.68945 5.62475 7.68945 5.62475 7.68945 5.62475C7.68945 5.62475 7.68945 5.62475 7.68945 5.62475C7.68945 5.62475 7.68945 5.62475 7.68945 5.62475C7.68945 5.62475 7.68945 5.62475 7.68945 5.62475C7.68945 5.62475 7.68945 5.62475 7.68945 5.62475C7.68945 5.62475 7.68945 5.62475 7.68945 5.62476C7.68945 5.62476 7.68945 5.62476 7.68945 5.62476C7.68945 5.62476 7.68945 5.62476 7.68945 5.62476C7.68945 5.62476 7.68945 5.62476 7.68945 5.62476C7.68945 5.62476 7.68945 5.62476 7.68945 5.62476C7.68945 5.62476 7.68945 5.62476 7.68945 5.62476C7.68945 5.62476 7.68945 5.62476 7.68945 5.62476C7.68945 5.62476 7.68945 5.62476 7.68945 5.62476C7.68945 5.62476 7.68945 5.62477 7.68945 5.62477C7.68945 5.62477 7.68945 5.62477 7.68945 5.62477C7.68945 5.62477 7.68945 5.62477 7.68945 5.62477C7.68945 5.62477 7.68945 5.62477 7.68945 5.62477C7.68945 5.62477 7.68945 5.62477 7.68945 5.62477C7.68945 5.62477 7.68945 5.62477 7.68945 5.62477C7.68945 5.62477 7.68945 5.62477 7.68945 5.62477C7.68945 5.62477 7.68945 5.62477 7.68945 5.62477C7.68945 5.62478 7.68945 5.62478 7.68945 5.62478C7.68945 5.62478 7.68945 5.62478 7.68945 5.62478C7.68945 5.62478 7.68945 5.62478 7.68945 5.62478C7.68945 5.62478 7.68945 5.62478 7.68945 5.62478C7.68945 5.62478 7.68945 5.62478 7.68945 5.62478C7.68945 5.62478 7.68945 5.62478 7.68945 5.62478C7.68945 5.62478 7.68945 5.62478 7.68945 5.62478C7.68945 5.62478 7.68945 5.62478 7.68945 5.62479C7.68945 5.62479 7.68945 5.62479 7.68945 5.62479C7.68945 5.62479 7.68945 5.62479 7.68945 5.62479C7.68945 5.62479 7.68945 5.62479 7.68945 5.62479C7.68945 5.62479 7.68945 5.62479 7.68945 5.62479C7.68945 5.62479 7.68945 5.62479 7.68945 5.62479C7.68945 5.62479 7.68945 5.62479 7.68945 5.62479C7.68945 5.62479 7.68945 5.62479 7.68945 5.62479C7.68945 5.62479 7.68945 5.6248 7.68945 5.6248C7.68945 5.6248 7.68945 5.6248 7.68945 5.6248C7.68945 5.6248 7.68945 5.6248 7.68945 5.6248C7.68945 5.6248 7.68945 5.6248 7.68945 5.6248C7.68945 5.6248 7.68945 5.6248 7.68945 5.6248C7.68945 5.6248 7.68945 5.6248 7.68945 5.6248C7.68945 5.6248 7.68945 5.6248 7.68945 5.6248C7.68945 5.6248 7.68945 5.6248 7.68945 5.6248C7.68945 5.6248 7.68945 5.62481 7.68945 5.62481C7.68945 5.62481 7.68945 5.62481 7.68945 5.62481C7.68945 5.62481 7.68945 5.62481 7.68945 5.62481C7.68945 5.62481 7.68945 5.62481 7.68945 5.62481C7.68945 5.62481 7.68945 5.62481 7.68945 5.62481C7.68945 5.62481 7.68945 5.62481 7.68945 5.62481C7.68945 5.62481 7.68945 5.62481 7.68945 5.62481C7.68945 5.62481 7.68945 5.62481 7.68945 5.62481C7.68945 5.62482 7.68945 5.62482 7.68945 5.62482C7.68945 5.62482 7.68945 5.62482 7.68945 5.62482C7.68945 5.62482 7.68945 5.62482 7.68945 5.62482C7.68945 5.62482 7.68945 5.62482 7.68945 5.62482C7.68945 5.62482 7.68945 5.62482 7.68945 5.62482C7.68945 5.62482 7.68945 5.62482 7.68945 5.62482C7.68945 5.62482 7.68945 5.62482 7.68945 5.62482C7.68945 5.62482 7.68945 5.62483 7.68945 5.62483C7.68945 5.62483 7.68945 5.62483 7.68945 5.62483C7.68945 5.62483 7.68945 5.62483 7.68945 5.62483C7.68945 5.62483 7.68945 5.62483 7.68945 5.62483C7.68945 5.62483 7.68945 5.62483 7.68945 5.62483C7.68945 5.62483 7.68945 5.62483 7.68945 5.62483C7.68945 5.62483 7.68945 5.62483 7.68945 5.62483C7.68945 5.62483 7.68945 5.62483 7.68945 5.62483C7.68945 5.62484 7.68945 5.62484 7.68945 5.62484C7.68945 5.62484 7.68945 5.62484 7.68945 5.62484C7.68945 5.62484 7.68945 5.62484 7.68945 5.62484C7.68945 5.62484 7.68945 5.62484 7.68945 5.62484C7.68945 5.62484 7.68945 5.62484 7.68945 5.62484C7.68945 5.62484 7.68945 5.62484 7.68945 5.62484C7.68945 5.62484 7.68945 5.62484 7.68945 5.62484C7.68945 5.62484 7.68945 5.62484 7.68945 5.62485C7.68945 5.62485 7.68945 5.62485 7.68945 5.62485C7.68945 5.62485 7.68945 5.62485 7.68945 5.62485C7.68945 5.62485 7.68945 5.62485 7.68945 5.62485C7.68945 5.62485 7.68945 5.62485 7.68945 5.62485C7.68945 5.62485 7.68945 5.62485 7.68945 5.62485C7.68945 5.62485 7.68945 5.62485 7.68945 5.62485C7.68945 5.62485 7.68945 5.62485 7.68945 5.62485C7.68945 5.62485 7.68945 5.62486 7.68945 5.62486C7.68945 5.62486 7.68945 5.62486 7.68945 5.62486C7.68945 5.62486 7.68945 5.62486 7.68945 5.62486C7.68945 5.62486 7.68945 5.62486 7.68945 5.62486C7.68945 5.62486 7.68945 5.62486 7.68945 5.62486C7.68945 5.62486 7.68945 5.62486 7.68945 5.62486C7.68945 5.62486 7.68945 5.62486 7.68945 5.62486C7.68945 5.62486 7.68945 5.62486 7.68945 5.62486C7.68945 5.62487 7.68945 5.62487 7.68945 5.62487C7.68945 5.62487 7.68945 5.62487 7.68945 5.62487C7.68945 5.62487 7.68945 5.62487 7.68945 5.62487C7.68945 5.62487 7.68945 5.62487 7.68945 5.62487C7.68945 5.62487 7.68945 5.62487 7.68945 5.62487C7.68945 5.62487 7.68945 5.62487 7.68945 5.62487C7.68945 5.62487 7.68945 5.62487 7.68945 5.62487C7.68945 5.62487 7.68945 5.62487 7.68945 5.62488C7.68945 5.62488 7.68945 5.62488 7.68945 5.62488C7.68945 5.62488 7.68945 5.62488 7.68945 5.62488C7.68945 5.62488 7.68945 5.62488 7.68945 5.62488C7.68945 5.62488 7.68945 5.62488 7.68945 5.62488C7.68945 5.62488 7.68945 5.62488 7.68945 5.62488C7.68945 5.62488 7.68945 5.62488 7.68945 5.62488C7.68945 5.62488 7.68945 5.62488 7.68945 5.62488C7.68945 5.62488 7.68945 5.62489 7.68945 5.62489C7.68945 5.62489 7.68945 5.62489 7.68945 5.62489C7.68945 5.62489 7.68945 5.62489 7.68945 5.62489C7.68945 5.62489 7.68945 5.62489 7.68945 5.62489C7.68945 5.62489 7.68945 5.62489 7.68945 5.62489C7.68945 5.62489 7.68945 5.62489 7.68945 5.62489C7.68945 5.62489 7.68945 5.62489 7.68945 5.62489C7.68945 5.62489 7.68945 5.62489 7.68945 5.62489C7.68945 5.62489 7.68945 5.6249 7.68945 5.6249C7.68945 5.6249 7.68945 5.6249 7.68945 5.6249C7.68945 5.6249 7.68945 5.6249 7.68945 5.6249C7.68945 5.6249 7.68945 5.6249 7.68945 5.6249C7.68945 5.6249 7.68945 5.6249 7.68945 5.6249C7.68945 5.6249 7.68945 5.6249 7.68945 5.6249C7.68945 5.6249 7.68945 5.6249 7.68945 5.6249C7.68945 5.6249 7.68945 5.6249 7.68945 5.6249C7.68945 5.62491 7.68945 5.62491 7.68945 5.62491C7.68945 5.62491 7.68945 5.62491 7.68945 5.62491C7.68945 5.62491 7.68945 5.62491 7.68945 5.62491C7.68945 5.62491 7.68945 5.62491 7.68945 5.62491C7.68945 5.62491 7.68945 5.62491 7.68945 5.62491C7.68945 5.62491 7.68945 5.62491 7.68945 5.62491C7.68945 5.62491 7.68945 5.62491 7.68945 5.62491C7.68945 5.62491 7.68945 5.62491 7.68945 5.62492C7.68945 5.62492 7.68945 5.62492 7.68945 5.62492C7.68945 5.62492 7.68945 5.62492 7.68945 5.62492C7.68945 5.62492 7.68945 5.62492 7.68945 5.62492C7.68945 5.62492 7.68945 5.62492 7.68945 5.62492C7.68945 5.62492 7.68945 5.62492 7.68945 5.62492C7.68945 5.62492 7.68945 5.62492 7.68945 5.62492C7.68945 5.62492 7.68945 5.62492 7.68945 5.62492C7.68945 5.62492 7.68945 5.62493 7.68945 5.62493C7.68945 5.62493 7.68945 5.62493 7.68945 5.62493C7.68945 5.62493 7.68945 5.62493 7.68945 5.62493C7.68945 5.62493 7.68945 5.62493 7.68945 5.62493C7.68945 5.62493 7.68945 5.62493 7.68945 5.62493C7.68945 5.62493 7.68945 5.62493 7.68945 5.62493C7.68945 5.62493 7.68945 5.62493 7.68945 5.62493C7.68945 5.62493 7.68945 5.62493 7.68945 5.62493C7.68945 5.62494 7.68945 5.62494 7.68945 5.62494C7.68945 5.62494 7.68945 5.62494 7.68945 5.62494C7.68945 5.62494 7.68945 5.62494 7.68945 5.62494C7.68945 5.62494 7.68945 5.62494 7.68945 5.62494C7.68945 5.62494 7.68945 5.62494 7.68945 5.62494C7.68945 5.62494 7.68945 5.62494 7.68945 5.62494C7.68945 5.62494 7.68945 5.62494 7.68945 5.62494C7.68945 5.62494 7.68945 5.62494 7.68945 5.62495C7.68945 5.62495 7.68945 5.62495 7.68945 5.62495C7.68945 5.62495 7.68945 5.62495 7.68945 5.62495C7.68945 5.62495 7.68945 5.62495 7.68945 5.62495C7.68945 5.62495 7.68945 5.62495 7.68945 5.62495C7.68945 5.62495 7.68945 5.62495 7.68945 5.62495C7.68945 5.62495 7.68945 5.62495 7.68945 5.62495C7.68945 5.62495 7.68945 5.62495 7.68945 5.62495C7.68945 5.62495 7.68945 5.62496 7.68945 5.62496C7.68945 5.62496 7.68945 5.62496 7.68945 5.62496C7.68945 5.62496 7.68945 5.62496 7.68945 5.62496C7.68945 5.62496 7.68945 5.62496 7.68945 5.62496C7.68945 5.62496 7.68945 5.62496 7.68945 5.62496C7.68945 5.62496 7.68945 5.62496 7.68945 5.62496C7.68945 5.62496 7.68945 5.62496 7.68945 5.62496C7.68945 5.62496 7.68945 5.62496 7.68945 5.62496C7.68945 5.62497 7.68945 5.62497 7.68945 5.62497C7.68945 5.62497 7.68945 5.62497 7.68945 5.62497C7.68945 5.62497 7.68945 5.62497 7.68945 5.62497C7.68945 5.62497 7.68945 5.62497 7.68945 5.62497C7.68945 5.62497 7.68945 5.62497 7.68945 5.62497C7.68945 5.62497 7.68945 5.62497 7.68945 5.62497C7.68945 5.62497 7.68945 5.62497 7.68945 5.62497C7.68945 5.62497 7.68945 5.62497 7.68945 5.62498C7.68945 5.62498 7.68945 5.62498 7.68945 5.62498C7.68945 5.62498 7.68945 5.62498 7.68945 5.62498C7.68945 5.62498 7.68945 5.62498 7.68945 5.62498C7.68945 5.62498 7.68945 5.62498 7.68945 5.62498C7.68945 5.62498 7.68945 5.62498 7.68945 5.62498C7.68945 5.62498 7.68945 5.62498 7.68945 5.62498C7.68945 5.62498 7.68945 5.62498 7.68945 5.62498C7.68945 5.62498 7.68945 5.62499 7.68945 5.62499C7.68945 5.62499 7.68945 5.62499 7.68945 5.62499C7.68945 5.62499 7.68945 5.62499 7.68945 5.62499C7.68945 5.62499 7.68945 5.62499 7.68945 5.62499C7.68945 5.62499 7.68945 5.62499 7.68945 5.62499C7.68945 5.62499 7.68945 5.62499 7.68945 5.62499C7.68945 5.62499 7.68945 5.62499 7.68945 5.62499C7.68945 5.62499 7.68945 5.62499 7.68945 5.62499C7.68945 5.625 7.68945 5.625 7.68945 5.625C7.68945 5.625 7.68945 5.625 7.68945 5.625C7.68945 5.625 7.68945 5.625 7.68945 5.625C7.68945 5.625 7.68945 5.625 7.68945 5.625H9.18945ZM7.68945 5.625V11.8951H9.18945V5.625H7.68945ZM7.95764 11.3204C6.91497 12.1944 6.25 13.509 6.25 14.9782H7.75C7.75 13.9713 8.20403 13.0711 8.92126 12.4699L7.95764 11.3204ZM6.25 14.9782C6.25 17.6132 8.38612 19.7493 11.0212 19.7493V18.2493C9.21455 18.2493 7.75 16.7848 7.75 14.9782H6.25ZM11.0212 19.7493C13.6562 19.7493 15.7923 17.6132 15.7923 14.9782H14.2923C14.2923 16.7848 12.8278 18.2493 11.0212 18.2493V19.7493ZM15.7923 14.9782C15.7923 13.5571 15.1701 12.2805 14.1857 11.4075L13.1905 12.5298C13.8675 13.1301 14.2923 14.0041 14.2923 14.9782H15.7923ZM14.4381 11.9686V5.625H12.9381V11.9686H14.4381Z" fill="#827344"/>
<path fill-rule="evenodd" clip-rule="evenodd" d="M11.651 8.50146C11.6548 8.47428 11.6568 8.44651 11.6568 8.41827C11.6568 8.091 11.3915 7.82568 11.0642 7.82568C10.7369 7.82568 10.4716 8.091 10.4716 8.41827C10.4716 8.44651 10.4736 8.47428 10.4774 8.50146H10.4716V12.9915C9.63843 13.245 9.03217 14.0195 9.03217 14.9356C9.03217 16.0577 9.94181 16.9673 11.0639 16.9673C12.186 16.9673 13.0956 16.0577 13.0956 14.9356C13.0956 14.0197 12.4897 13.2454 11.6568 12.9917V8.50146H11.651Z" fill="#827344"/>
</svg>
