<svg width="32" height="32" viewBox="0 0 32 32" fill="none" xmlns="http://www.w3.org/2000/svg">
<path d="M6 27.1816H5C5 27.7339 5.44772 28.1816 6 28.1816V27.1816ZM26.3302 27.1816V28.1816C26.8825 28.1816 27.3302 27.7339 27.3302 27.1816H26.3302ZM18.9374 27.1816H17.9374C17.9374 27.7339 18.3851 28.1816 18.9374 28.1816V27.1816ZM13.3928 27.1816V28.1816C13.9451 28.1816 14.3928 27.7339 14.3928 27.1816H13.3928ZM26.1608 13.8086L26.8219 13.0584L26.1608 13.8086ZM15.8345 5.29132L15.1734 4.54107L15.8345 5.29132ZM16.4957 5.29132L17.1568 4.54107L16.4957 5.29132ZM6.16942 13.8086L5.50827 13.0584L6.16942 13.8086ZM7 27.1816V14.1838H5V27.1816H7ZM6.83058 14.5589L16.4957 6.04157L15.1734 4.54107L5.50827 13.0584L6.83058 14.5589ZM15.8345 6.04157L25.4996 14.5589L26.8219 13.0584L17.1568 4.54107L15.8345 6.04157ZM25.3302 14.1838V27.1816H27.3302V14.1838H25.3302ZM26.3302 26.1816H18.9374V28.1816H26.3302V26.1816ZM19.9374 27.1816V21.2096H17.9374V27.1816H19.9374ZM6 28.1816H13.3928V26.1816H6V28.1816ZM14.3928 27.1816V21.2096H12.3928V27.1816H14.3928ZM14.3928 21.2096C14.3928 20.4221 15.1096 19.6502 16.1651 19.6502V17.6502C14.1585 17.6502 12.3928 19.1701 12.3928 21.2096H14.3928ZM16.1651 19.6502C17.2207 19.6502 17.9374 20.4221 17.9374 21.2096H19.9374C19.9374 19.1701 18.1718 17.6502 16.1651 17.6502V19.6502ZM25.4996 14.5589C25.3919 14.464 25.3302 14.3273 25.3302 14.1838H27.3302C27.3302 13.7531 27.1451 13.3432 26.8219 13.0584L25.4996 14.5589ZM16.4957 6.04157C16.3067 6.20807 16.0235 6.20807 15.8345 6.04157L17.1568 4.54107C16.59 4.04157 15.7402 4.04157 15.1734 4.54107L16.4957 6.04157ZM7 14.1838C7 14.3273 6.93829 14.464 6.83058 14.5589L5.50827 13.0584C5.18514 13.3432 5 13.7531 5 14.1838H7Z" fill="#BBBBBB"/>
</svg>
