<svg width="32" height="32" viewBox="0 0 32 32" fill="none" xmlns="http://www.w3.org/2000/svg">
<path d="M7.24511 18.3567V12.2132C7.43648 9.53374 9.43837 4.14044 15.9149 4.00264C22.3915 3.86484 24.3551 9.15097 24.5274 11.8113C24.4891 13.0553 24.4355 15.9223 24.5274 17.438C24.6192 18.9538 24.8719 19.6007 24.9867 19.7347L26.5943 22.2036C27.1455 24.0409 25.7522 24.5385 24.9867 24.5577H6.61353C4.36281 24.5577 4.94846 22.6821 5.52262 21.7443L6.61353 20.1366C6.90057 19.7347 7.24511 18.9309 7.24511 18.3567Z" stroke="#BBBBBB" stroke-width="2"/>
<path d="M19 25V25.6C19 26.2365 18.6839 26.847 18.1213 27.2971C17.5587 27.7471 16.7956 28 16 28C15.2044 28 14.4413 27.7471 13.8787 27.2971C13.3161 26.847 13 26.2365 13 25.6V25" stroke="#BBBBBB" stroke-width="2" stroke-linecap="round" stroke-linejoin="round"/>
</svg>
