<svg width="24" height="24" viewBox="0 0 24 24" fill="none" xmlns="http://www.w3.org/2000/svg">
<path d="M9.29244 6.29376C9.19974 6.38628 9.12619 6.49616 9.07601 6.61714C9.02583 6.73811 9 6.86779 9 6.99876C9 7.12973 9.02583 7.25941 9.07601 7.38039C9.12619 7.50136 9.19974 7.61125 9.29244 7.70376L13.1724 11.5838L9.29244 15.4638C9.10547 15.6507 9.00042 15.9043 9.00042 16.1688C9.00042 16.4332 9.10547 16.6868 9.29244 16.8738C9.47942 17.0607 9.73302 17.1658 9.99744 17.1658C10.2619 17.1658 10.5155 17.0607 10.7024 16.8738L15.2924 12.2838C15.3851 12.1912 15.4587 12.0814 15.5089 11.9604C15.5591 11.8394 15.5849 11.7097 15.5849 11.5788C15.5849 11.4478 15.5591 11.3181 15.5089 11.1971C15.4587 11.0762 15.3851 10.9663 15.2924 10.8738L10.7024 6.28376C10.3224 5.90376 9.68244 5.90376 9.29244 6.29376Z" fill="#666666"/>
</svg>
