<svg width="22" height="22" viewBox="0 0 22 22" fill="none" xmlns="http://www.w3.org/2000/svg">
<path d="M19 12.6561C19 13.3535 18.7222 14.0223 18.2276 14.5154C17.7331 15.0085 17.0623 15.2855 16.3629 15.2855H5.66804C4.96864 15.2937 4.29464 15.0244 3.79432 14.5371C3.294 14.0497 3.00834 13.3842 3.00018 12.6868C2.99202 11.9894 3.26203 11.3174 3.75081 10.8185C4.23959 10.3197 4.9071 10.0348 5.60651 10.0267C5.4955 9.19728 5.68137 8.35541 6.13141 7.64915C6.58145 6.94289 7.26684 6.41747 8.06702 6.16532C8.86721 5.91316 9.73095 5.95042 10.5063 6.27053C11.2817 6.59064 11.919 7.17311 12.3062 7.91548C12.7089 7.67024 13.1678 7.5315 13.6393 7.51236C14.1109 7.49323 14.5795 7.59435 15.0009 7.80614C15.4223 8.01794 15.7826 8.33342 16.0477 8.72274C16.3127 9.11207 16.4738 9.56237 16.5156 10.0311C17.1875 10.0699 17.819 10.3634 18.2809 10.8515C18.7427 11.3395 19 11.9851 19 12.6561V12.6561Z" stroke="#B7A878" stroke-width="1.5" stroke-linejoin="round"/>
</svg>
