<svg width="32" height="32" viewBox="0 0 32 32" fill="none" xmlns="http://www.w3.org/2000/svg">
<circle cx="16.1416" cy="10.2725" r="5.2725" fill="white" stroke="#BBBBBB" stroke-width="2"/>
<path d="M16.6176 15.5683C16.6445 15.5651 16.6684 15.5619 16.6892 15.559C16.7032 15.5585 16.7186 15.5578 16.7354 15.5569C16.8086 15.5531 16.9085 15.5459 17.029 15.532C17.2686 15.5043 17.5983 15.4494 17.9667 15.3389C18.4552 15.1923 19.0513 14.9354 19.5889 14.4828C23.0605 17.393 24.2395 20.9076 24.2395 22.7208C24.2395 23.3422 23.6439 24.3998 22.1211 25.3728C20.667 26.3019 18.575 27.0007 16.1197 27.0007C13.6645 27.0007 11.5725 26.3019 10.1184 25.3728C8.59562 24.3998 8 23.3422 8 22.7208C8 19.5642 9.83756 16.6701 12.6729 14.4358C13.49 15.1058 14.3772 15.4031 15.1023 15.5242C15.5664 15.6018 15.9707 15.609 16.2626 15.5965C16.4093 15.5902 16.5297 15.5788 16.6176 15.5683Z" fill="white" stroke="#BBBBBB" stroke-width="2"/>
</svg>
