<svg width="22" height="22" viewBox="0 0 22 22" fill="none" xmlns="http://www.w3.org/2000/svg">
<rect width="22" height="22" fill="white"/>
<path fill-rule="evenodd" clip-rule="evenodd" d="M8.18906 5.37433C8.18906 3.92495 9.36402 2.75 10.8134 2.75C12.2628 2.75 13.4377 3.92495 13.4377 5.37433V11.719C14.2686 12.4556 14.7923 13.5311 14.7923 14.7288C14.7923 16.9497 12.992 18.75 10.7712 18.75C8.55033 18.75 6.75 16.9497 6.75 14.7288C6.75 13.491 7.30934 12.3838 8.18906 11.6461V5.37433Z" fill="white"/>
<path fill-rule="evenodd" clip-rule="evenodd" d="M10.8134 3.5C9.77823 3.5 8.93906 4.33917 8.93906 5.37433L8.93906 11.996L8.67095 12.2208C7.9539 12.8221 7.5 13.7221 7.5 14.7288C7.5 16.5355 8.96455 18 10.7712 18C12.5778 18 14.0423 16.5355 14.0423 14.7288C14.0423 13.7546 13.6173 12.8805 12.9402 12.2802L12.6877 12.0563V5.37433C12.6877 4.33917 11.8486 3.5 10.8134 3.5ZM7.43906 5.37433C7.43906 3.51074 8.9498 2 10.8134 2C12.677 2 14.1877 3.51074 14.1877 5.37433V11.3986C15.0251 12.2576 15.5423 13.4332 15.5423 14.7288C15.5423 17.3639 13.4062 19.5 10.7712 19.5C8.13612 19.5 6 17.3639 6 14.7288C6 13.3901 6.55214 12.1797 7.43906 11.314V5.37433Z" fill="#B7A878"/>
<path fill-rule="evenodd" clip-rule="evenodd" d="M11.3682 8.25145C11.3722 8.22381 11.3742 8.19555 11.3742 8.16681C11.3742 7.83953 11.1089 7.57422 10.7817 7.57422C10.4544 7.57422 10.1891 7.83953 10.1891 8.16681C10.1891 8.19555 10.1911 8.22381 10.1951 8.25145H10.1891V12.7414C9.35608 12.995 8.75 13.7694 8.75 14.6853C8.75 15.8074 9.65964 16.717 10.7817 16.717C11.9038 16.717 12.8135 15.8074 12.8135 14.6853C12.8135 13.7693 12.2073 12.9949 11.3742 12.7413V8.25145H11.3682Z" fill="#B7A878"/>
</svg>
