<svg width="200" height="200" viewBox="0 0 200 200" fill="none" xmlns="http://www.w3.org/2000/svg">
<circle cx="100" cy="100" r="100" fill="#EEEEEE"/>
<circle cx="100" cy="100" r="98" fill="#DDDDDD"/>
<g filter="url(#filter0_d_504:353)">
<circle cx="100" cy="100" r="88" fill="#444444"/>
</g>
<path d="M66.1838 133.601C67.8072 123.568 73.91 112.893 77.7801 106.267C77.7801 118.968 87.297 120.119 91.0284 131.116C94.0263 139.951 87.9959 152.1 79.7128 152.1C71.4298 152.1 64.7988 142.16 66.1838 133.601Z" fill="white"/>
<path d="M99.0075 56.4661C84.5941 67.7872 79.8522 90.7428 79.3912 101.501C84.384 88.1733 105.398 87.9256 117.155 77.9703C124.61 71.6572 129.568 59.1572 129.946 50.33C122.88 47.5401 110.351 47.5561 99.0075 56.4661Z" fill="white"/>
<defs>
<filter id="filter0_d_504:353" x="8" y="12" width="184" height="184" filterUnits="userSpaceOnUse" color-interpolation-filters="sRGB">
<feFlood flood-opacity="0" result="BackgroundImageFix"/>
<feColorMatrix in="SourceAlpha" type="matrix" values="0 0 0 0 0 0 0 0 0 0 0 0 0 0 0 0 0 0 127 0" result="hardAlpha"/>
<feOffset dy="4"/>
<feGaussianBlur stdDeviation="2"/>
<feComposite in2="hardAlpha" operator="out"/>
<feColorMatrix type="matrix" values="0 0 0 0 0 0 0 0 0 0 0 0 0 0 0 0 0 0 0.25 0"/>
<feBlend mode="normal" in2="BackgroundImageFix" result="effect1_dropShadow_504:353"/>
<feBlend mode="normal" in="SourceGraphic" in2="effect1_dropShadow_504:353" result="shape"/>
</filter>
</defs>
</svg>
