<svg width="32" height="32" viewBox="0 0 32 32" fill="none" xmlns="http://www.w3.org/2000/svg">
<path d="M7 27.0137V27.0134V6.97179C7 6.16567 7.30288 5.40331 7.82547 4.84982C8.34621 4.29828 9.0398 4 9.75 4H22.25C22.9602 4 23.6538 4.29828 24.1745 4.84982C24.6971 5.40331 25 6.16567 25 6.97179V27.0134V27.0137C25.0001 27.1972 24.9545 27.3744 24.8714 27.5272C24.7886 27.6797 24.6733 27.7994 24.5427 27.8797C24.4126 27.9597 24.2697 27.9995 24.1279 28C23.9861 28.0005 23.8432 27.9619 23.7128 27.883C23.7128 27.883 23.7127 27.8829 23.7126 27.8829L17.1378 23.9033L17.1376 23.9032C16.7951 23.6959 16.4028 23.5844 16 23.5844C15.5972 23.5844 15.2049 23.6959 14.8624 23.9032L14.8622 23.9033L8.28736 27.8829C8.2873 27.8829 8.28724 27.883 8.28719 27.883C8.15679 27.9619 8.01387 28.0005 7.87211 28C7.73027 27.9995 7.58742 27.9597 7.45734 27.8797C7.32674 27.7994 7.21142 27.6797 7.12856 27.5272C7.04554 27.3744 6.99994 27.1972 7 27.0137Z" stroke="#BBBBBB" stroke-width="2"/>
</svg>
